<svg width="900" height="600" viewBox="0 0 900 600" fill="none" xmlns="http://www.w3.org/2000/svg">
<path d="M717.245 355.561C721.03 425.309 584.667 567.133 416.591 514.639C338.42 490.222 345.042 449.697 285.601 396.287C250.171 364.454 199.265 340.382 185.106 294.111C172.875 254.171 180.376 211.243 201.581 183.32C249.271 120.524 345.547 77.5241 440.41 176.464C535.273 275.405 707.463 175.676 717.245 355.561Z" fill="url(#paint0_linear_98_1557)"/>
<path d="M679.865 201.816C666.601 225.487 637.552 228.74 591.014 224.241C556.014 220.852 524.097 218.229 489.095 199.145C464.595 185.797 445.202 167.738 431.048 150.198C415.709 131.197 394.301 109.511 404.796 87.966C419.219 58.371 502.625 33.445 583.616 74.206C672.585 118.997 692.84 178.68 679.865 201.816Z" fill="url(#paint1_linear_98_1557)"/>
<path d="M342.267 491.321C311.367 448.093 279.722 402.148 238.291 379.518C195.557 356.165 187.676 370.558 184.718 393.44C181.759 416.322 194.944 470.538 253.264 501.386C311.6 532.242 371.18 531.779 342.267 491.321Z" fill="url(#paint2_linear_98_1557)"/>
<path d="M711.026 247.201C697.144 250.49 682.462 238.717 682.462 238.717C682.462 238.717 690.297 221.618 704.183 218.34C718.065 215.052 732.743 226.814 732.743 226.814C732.743 226.814 724.908 243.913 711.026 247.201Z" fill="url(#paint3_linear_98_1557)"/>
<path d="M335.011 102.414C349.626 112.48 371.953 105.444 371.953 105.444C371.953 105.444 370.571 82.089 355.946 72.032C341.332 61.966 319.014 68.992 319.014 68.992C319.014 68.992 320.397 92.347 335.011 102.414Z" fill="url(#paint4_linear_98_1557)"/>
<path d="M584.039 160.166C599.883 176.291 629.51 172.892 629.51 172.892C629.51 172.892 633.431 143.346 617.572 127.231C601.728 111.105 572.116 114.495 572.116 114.495C572.116 114.495 568.195 144.04 584.039 160.166Z" fill="url(#paint5_linear_98_1557)"/>
<path d="M652.209 368.444C645.706 368.444 640.435 373.487 640.435 379.707C640.435 385.927 645.706 390.97 652.209 390.97C658.712 390.97 663.983 385.927 663.983 379.707C663.983 373.487 658.712 368.444 652.209 368.444Z" fill="#FD7600"/>
<path d="M532.928 497.452C525.577 497.452 519.618 503.64 519.618 511.274C519.618 518.908 525.577 525.096 532.928 525.096C540.279 525.096 546.238 518.908 546.238 511.274C546.238 503.64 540.279 497.452 532.928 497.452Z" fill="#FD7600"/>
<path d="M250.851 420.662C242.086 420.662 234.981 427.538 234.981 436.02C234.981 444.502 242.086 451.378 250.851 451.378C259.616 451.378 266.721 444.502 266.721 436.02C266.721 427.538 259.616 420.662 250.851 420.662Z" fill="#FD7600"/>
<path d="M229.35 253.77C226.24 253.77 223.719 251.249 223.719 248.139C223.719 245.029 226.24 242.508 229.35 242.508C232.46 242.508 234.981 245.029 234.981 248.139C234.981 251.249 232.46 253.77 229.35 253.77Z" fill="#FD7600"/>
<path d="M674.734 166.742C668.796 166.742 663.983 161.929 663.983 155.991C663.983 150.053 668.796 145.24 674.734 145.24C680.672 145.24 685.485 150.053 685.485 155.991C685.485 161.929 680.672 166.742 674.734 166.742Z" fill="#FD7600"/>
<path d="M638.898 488.237C632.96 488.237 628.147 483.653 628.147 477.998C628.147 472.343 632.96 467.759 638.898 467.759C644.836 467.759 649.649 472.343 649.649 477.998C649.649 483.653 644.836 488.237 638.898 488.237Z" fill="#F8F8F8"/>
<path d="M185.835 354.11C179.615 354.11 174.572 349.526 174.572 343.871C174.572 338.216 179.615 333.632 185.835 333.632C192.055 333.632 197.098 338.216 197.098 343.871C197.098 349.526 192.055 354.11 185.835 354.11Z" fill="#F8F8F8"/>
<path d="M299.997 491.309C298.018 491.309 296.413 489.704 296.413 487.725C296.413 485.746 298.018 484.141 299.997 484.141C301.976 484.141 303.581 485.746 303.581 487.725C303.581 489.704 301.976 491.309 299.997 491.309Z" fill="#F8F8F8"/>
<path d="M573.883 130.906C571.056 130.906 568.764 128.614 568.764 125.787C568.764 122.96 571.056 120.668 573.883 120.668C576.71 120.668 579.002 122.96 579.002 125.787C579.002 128.614 576.71 130.906 573.883 130.906Z" fill="#F8F8F8"/>
<path d="M251.853 304.67C252.568 307.338 250.984 310.082 248.315 310.797C245.647 311.512 242.903 309.928 242.188 307.259C241.473 304.59 243.057 301.847 245.726 301.132C248.395 300.417 251.138 302.001 251.853 304.67Z" fill="#F8F8F8"/>
<path d="M252.899 199.505C249.223 199.505 246.244 196.526 246.244 192.85C246.244 189.175 249.223 186.195 252.899 186.195C256.574 186.195 259.554 189.175 259.554 192.85C259.554 196.526 256.574 199.505 252.899 199.505Z" fill="#F8F8F8"/>
<path d="M659.888 315.203C657.061 315.203 654.769 313.37 654.769 311.108C654.769 308.846 657.061 307.013 659.888 307.013C662.715 307.013 665.007 308.846 665.007 311.108C665.007 313.37 662.715 315.203 659.888 315.203Z" fill="#F8F8F8"/>
<path d="M454.622 86.8782C456.11 92.4321 452.814 98.1409 447.26 99.629C441.706 101.117 435.998 97.8213 434.509 92.2673C433.021 86.7134 436.317 81.0047 441.871 79.5165C447.425 78.0283 453.134 81.3243 454.622 86.8782Z" fill="#F8F8F8"/>
<path d="M733.538 309.06H733.672C734.465 320.297 742.821 320.47 742.821 320.47C742.821 320.47 733.606 320.649 733.606 333.633C733.606 320.649 724.392 320.47 724.392 320.47C724.392 320.47 732.745 320.297 733.538 309.06ZM293.735 131.93H293.966C295.332 151.594 309.724 151.897 309.724 151.897C309.724 151.897 293.854 152.212 293.854 174.933C293.854 152.212 277.984 151.897 277.984 151.897C277.984 151.897 292.37 151.594 293.735 131.93Z" fill="#F8F8F8"/>
<path fill-rule="evenodd" clip-rule="evenodd" d="M609.383 300.301C609.383 389.475 537.108 461.751 447.934 461.751C358.76 461.751 286.485 389.475 286.485 300.301C286.485 211.128 358.76 138.852 447.934 138.852C537.108 138.852 609.383 211.128 609.383 300.301Z" fill="#FD7600" stroke="#FD7600" stroke-width="26.897" stroke-linecap="round" stroke-linejoin="round"/>
<path d="M396.057 358.684C396.057 358.684 415.862 370.919 448.892 370.919C481.921 370.919 501.727 358.684 501.727 358.684" stroke="white" stroke-width="22.048" stroke-linecap="round" stroke-linejoin="round"/>
<path d="M408.686 284.268C408.686 298.57 396.819 310.183 382.156 310.183C367.493 310.183 355.626 298.57 355.626 284.268C355.626 269.966 367.493 258.352 382.156 258.352C396.819 258.352 408.686 269.966 408.686 284.268ZM541.287 284.268C541.287 298.57 529.42 310.183 514.757 310.183C500.094 310.183 488.227 298.57 488.227 284.268C488.227 269.966 500.094 258.352 514.757 258.352C529.42 258.352 541.287 269.966 541.287 284.268Z" fill="white" stroke="white"/>
<defs>
<linearGradient id="paint0_linear_98_1557" x1="554.263" y1="773.641" x2="299.189" y2="-377.164" gradientUnits="userSpaceOnUse">
<stop stop-color="white"/>
<stop offset="1" stop-color="#EEEEEE"/>
</linearGradient>
<linearGradient id="paint1_linear_98_1557" x1="590.512" y1="355.23" x2="472.29" y2="-176.009" gradientUnits="userSpaceOnUse">
<stop stop-color="white"/>
<stop offset="1" stop-color="#EEEEEE"/>
</linearGradient>
<linearGradient id="paint2_linear_98_1557" x1="307.764" y1="633.231" x2="206.384" y2="164.399" gradientUnits="userSpaceOnUse">
<stop stop-color="white"/>
<stop offset="1" stop-color="#EEEEEE"/>
</linearGradient>
<linearGradient id="paint3_linear_98_1557" x1="658.75" y1="255.378" x2="780.272" y2="197.967" gradientUnits="userSpaceOnUse">
<stop stop-color="white"/>
<stop offset="1" stop-color="#EEEEEE"/>
</linearGradient>
<linearGradient id="paint4_linear_98_1557" x1="391.941" y1="135.443" x2="276.899" y2="14.134" gradientUnits="userSpaceOnUse">
<stop stop-color="white"/>
<stop offset="1" stop-color="#EEEEEE"/>
</linearGradient>
<linearGradient id="paint5_linear_98_1557" x1="647.253" y1="215.248" x2="532.711" y2="35.694" gradientUnits="userSpaceOnUse">
<stop stop-color="white"/>
<stop offset="1" stop-color="#EEEEEE"/>
</linearGradient>
</defs>
</svg>
