<svg width="1001" height="1000" viewBox="0 0 1001 1000" fill="none" xmlns="http://www.w3.org/2000/svg">
<g clip-path="url(#clip0_99_1642)">
<path d="M948.232 662.523C945.798 669.827 942.755 677.149 939.693 684.452C936.65 691.451 933.607 698.773 930.259 705.772C926.912 712.771 923.241 719.788 919.59 726.483C915.938 733.482 911.982 740.195 908.008 746.89C904.052 753.28 899.792 759.994 895.227 766.384C890.948 772.774 886.383 779.184 881.819 785.574C877.235 791.66 872.367 797.746 867.194 803.851C862.325 809.632 857.133 815.718 851.96 821.519C846.787 826.996 841.29 832.778 835.813 838.255C830.336 843.752 824.535 848.925 818.753 854.098C812.953 859.575 806.867 864.463 801.085 869.332C794.98 874.2 788.894 879.069 782.504 883.653C776.095 888.217 769.704 892.782 763.295 897.042C756.905 901.302 750.21 905.581 743.497 909.537C736.802 913.493 730.089 917.144 723.09 920.796C716.072 924.467 709.377 927.814 702.074 931.161C695.056 934.508 688.057 937.551 680.735 940.594C673.432 943.333 666.11 946.395 658.807 948.829C651.485 951.264 644.181 953.698 636.574 956.133C629.252 958.263 621.644 960.393 614.018 962.219C606.715 964.044 599.088 965.585 591.177 967.106C583.55 968.628 575.943 969.845 568.316 971.062C560.709 971.975 552.778 972.888 545.171 973.801C537.24 974.409 529.632 975.018 521.702 975.322C514.094 975.627 506.164 975.931 498.252 975.627C490.644 975.627 482.714 975.627 475.106 975.018C467.175 974.714 459.568 974.105 451.637 973.192C444.03 972.279 436.403 971.366 428.492 970.149C420.865 968.932 413.258 967.715 405.631 966.193C398.024 964.672 390.397 962.827 382.79 961.001C375.163 958.871 367.86 956.741 360.234 954.611C352.931 952.177 345.628 949.742 338.305 947.004C331.002 944.569 323.68 941.507 316.377 938.464C309.359 935.421 302.056 932.378 295.038 929.031C288.039 925.684 281.04 922.013 274.327 918.362C267.328 914.71 260.614 910.754 253.92 906.798C247.511 902.842 240.816 898.563 234.426 893.999C228.016 889.739 221.626 885.174 215.217 880.591C209.131 876.026 203.045 871.157 196.94 865.984C191.158 861.116 185.072 855.924 179.272 850.75C173.794 845.577 168.013 840.1 162.516 834.604C157.039 829.126 151.866 823.345 146.674 817.544C141.197 811.762 136.328 805.676 131.44 799.895C126.571 793.79 121.702 787.704 117.119 781.314C112.555 774.904 107.99 768.514 103.73 762.124C99.4507 755.715 95.1906 749.02 91.2347 742.326C87.2788 735.631 83.6083 728.917 79.9567 721.918C76.3051 714.92 72.9578 708.206 69.5915 700.903C66.2442 693.904 63.2013 686.886 60.1583 679.583C57.4196 672.261 54.3576 664.958 51.9233 657.655C49.4889 650.333 47.0545 643.029 44.6201 635.422C42.49 628.1 40.3599 620.492 38.5151 612.885C36.6893 605.563 35.1679 597.955 33.6464 590.044C32.1249 582.417 30.9077 574.81 29.6905 567.183C28.7776 559.576 27.8647 551.664 26.9518 544.038C26.3432 536.126 25.7346 528.518 25.4303 520.588C25.126 512.98 24.8218 505.049 25.126 497.138C25.126 489.53 25.126 481.599 25.7346 473.992C26.0389 466.08 26.6475 458.454 27.5604 450.542C28.4733 442.916 29.3862 435.308 30.6034 427.396C31.8206 419.77 33.0378 412.163 34.5593 404.555C36.0807 396.929 37.9066 389.321 39.7514 381.714C41.8814 374.087 44.0115 366.784 46.1416 359.158C48.576 351.855 51.0104 344.551 53.749 337.229C56.2024 329.926 59.2454 322.623 62.2884 315.301C65.3314 308.302 68.3743 300.999 71.7406 293.981C75.0879 286.982 78.7395 279.983 82.3911 273.27C86.0426 266.271 90.0175 259.576 93.9734 252.863C97.9292 246.473 102.189 239.778 106.773 233.369C111.033 226.978 115.598 220.588 120.181 214.198C124.745 208.093 129.614 202.007 134.787 195.921C139.675 190.12 144.848 184.034 150.021 178.253C155.213 172.775 160.691 166.975 166.168 161.497C171.664 156.02 177.446 150.828 183.228 145.655C189.028 140.178 195.114 135.309 200.915 130.421C207.001 125.552 213.087 120.684 219.496 116.119C225.886 111.555 232.277 106.971 238.686 102.711C245.076 98.4507 251.79 94.1906 258.484 90.2347C265.198 86.2598 271.892 82.6083 278.891 78.9567C285.909 75.3051 292.604 71.9578 299.926 68.6106C306.925 65.2443 313.943 62.2013 321.246 59.1583C328.549 56.4196 335.871 53.3767 343.174 50.9423C350.496 48.5079 357.799 46.0545 365.426 43.6201C372.729 41.49 380.355 39.36 387.963 37.5342C395.285 35.7084 402.893 34.1869 410.823 32.6654C418.431 31.1439 426.038 29.9267 433.665 28.7095C441.272 27.7966 449.203 26.8838 456.81 25.9519C464.741 25.3433 472.348 24.7346 480.279 24.4303C487.887 24.126 495.817 23.8217 503.729 24.126C511.356 24.126 519.267 24.1261 526.894 24.7347C534.806 25.0389 542.432 25.6475 550.344 26.5795C557.97 27.4924 565.578 28.4053 573.508 29.6224C581.116 30.8396 588.742 32.0568 596.35 33.5783C603.976 35.0998 611.584 36.9256 619.191 38.7514C626.818 40.8814 634.121 43.0115 641.747 45.1416C649.05 47.595 656.372 50.0294 663.676 52.7681C670.998 55.2025 678.301 58.2454 685.623 61.2884C692.622 64.3314 699.925 67.3744 706.943 70.7406C713.942 74.0879 720.96 77.7395 727.654 81.3911C734.672 85.0426 741.367 89.0175 748.061 92.9734C754.47 96.9293 761.165 101.189 767.574 105.754C773.964 110.033 780.355 114.598 786.764 119.162C792.85 123.726 798.955 128.595 805.041 133.787C810.822 138.656 816.927 143.829 822.709 149.002C828.186 154.194 833.987 159.672 839.465 165.149C844.942 170.626 850.134 176.427 855.307 182.209C860.784 187.99 865.672 194.095 870.541 199.877C875.41 205.963 880.297 212.049 884.862 218.458C889.426 224.848 893.991 231.239 898.27 237.648C902.53 244.038 906.79 250.733 910.765 257.446C914.721 264.141 918.373 270.835 922.024 277.853C925.676 284.852 929.042 291.547 932.389 298.869C935.737 305.868 938.78 312.866 941.823 320.189C944.58 327.492 947.623 334.795 950.058 342.117C952.492 349.42 954.926 356.723 957.361 364.35C959.51 371.653 961.64 379.26 963.466 386.887C965.292 394.19 966.813 401.816 968.335 409.728C969.856 417.336 971.073 424.962 972.29 432.57C973.203 440.177 974.116 448.108 975.048 455.715C975.657 463.627 976.265 471.253 976.57 479.165C976.874 486.792 977.178 494.703 976.874 502.615C976.874 510.241 976.874 518.153 976.265 525.761C975.961 533.691 975.352 541.299 974.42 549.23C973.508 556.837 972.595 564.444 971.378 572.375C970.16 579.983 968.943 587.59 967.422 595.217C965.9 602.824 964.074 610.45 962.249 618.058C960.119 625.665 957.969 632.987 955.839 640.595C953.405 647.898 950.971 655.22 948.232 662.523Z" fill="#323232"/>
<path d="M348.062 586.069L458.655 281.81L619.819 340.596L457.115 787.704L439.142 781.314C434.273 779.488 429.709 777.663 425.43 775.513C420.865 773.383 416.301 770.949 412.041 768.21C407.761 765.776 403.806 763.037 399.85 759.994C395.894 756.951 391.919 753.889 388.267 750.542C384.616 746.89 380.964 743.543 377.921 739.892C374.555 735.936 371.208 732.265 368.469 728.309C365.426 724.049 362.687 720.093 360.234 715.833C357.495 711.25 355.365 706.989 353.235 702.425C351.105 697.86 349.279 693.277 347.453 688.713C345.932 683.844 344.391 679.279 343.174 674.411C341.957 669.523 341.044 664.654 340.436 659.785C339.827 654.612 339.218 649.724 338.914 644.856C338.914 639.683 338.914 634.814 339.218 629.926C339.218 624.753 339.827 619.884 340.74 615.015C341.348 610.128 342.261 605.259 343.479 600.39C345 595.521 346.236 590.653 348.062 586.069Z" fill="white"/>
<path d="M438.229 333.273L457.723 279.375L513.181 299.781C512.573 301.303 511.66 303.129 511.051 304.955C510.138 306.476 509.226 308.302 508.313 309.823C507.4 311.345 506.164 312.866 505.251 314.388C504.033 315.909 502.816 317.431 501.599 318.667C500.382 320.188 498.86 321.406 497.643 322.623C496.122 323.84 494.6 325.057 493.079 326.274C491.557 327.187 490.017 328.404 488.495 329.317C486.974 330.23 485.148 331.143 483.627 331.752C481.801 332.665 480.279 333.273 478.453 333.882C476.628 334.49 474.802 335.099 472.957 335.708C471.131 336.012 469.306 336.316 467.48 336.621C465.654 336.925 463.828 337.229 462.002 337.229C460.177 337.229 458.027 337.229 456.202 337.229C454.376 336.925 452.55 336.925 450.724 336.621C448.899 336.316 447.073 336.012 445.247 335.403C443.421 335.099 441.576 334.49 439.751 333.882L438.229 333.273Z" fill="#323232"/>
<path d="M280.413 520.892L315.768 424.353C316.681 421.596 317.898 419.161 319.115 416.423C320.333 413.988 321.55 411.25 323.071 408.815C324.593 406.381 326.114 403.947 327.94 401.816C329.785 399.363 331.611 397.233 333.436 395.103C335.262 392.973 337.392 391.147 339.522 389.017C341.652 387.191 343.783 385.365 346.236 383.844C348.67 382.018 350.8 380.478 353.539 378.956C355.973 377.435 358.408 376.217 361.147 375C363.6 373.783 366.339 372.566 369.077 371.653C371.816 370.74 374.555 369.827 377.293 369.219C380.051 368.61 382.79 368.001 385.528 367.697C388.571 367.088 391.31 367.088 394.068 366.784C397.111 366.784 399.849 366.784 402.892 366.784C405.631 367.088 408.37 367.393 411.432 367.697C414.17 368.306 416.909 368.914 419.648 369.523C422.691 370.131 425.429 371.044 427.883 371.957L362.991 551.055L280.413 520.892Z" fill="white"/>
<path d="M259.093 573.897L294.448 477.358C295.361 474.601 296.579 472.166 297.796 469.428C299.013 466.993 300.23 464.255 301.752 461.82C303.273 459.386 304.795 456.951 306.62 454.821C308.465 452.368 310.291 450.238 312.117 448.108C313.943 445.978 316.073 444.152 318.203 442.022C320.333 440.196 322.463 438.37 324.916 436.849C327.351 435.023 329.481 433.482 332.219 431.961C334.654 430.439 337.088 429.222 339.827 428.005C342.28 426.788 345.019 425.571 347.758 424.658C350.496 423.745 353.235 422.832 355.974 422.223C358.731 421.615 361.47 421.006 364.209 420.702C367.252 420.093 369.99 420.093 372.748 419.789C375.791 419.789 378.53 419.789 381.573 419.789C384.311 420.093 387.05 420.398 390.112 420.702C392.851 421.311 395.589 421.919 398.328 422.528C401.371 423.136 404.11 424.049 406.563 424.962L341.672 604.06L259.093 573.897Z" fill="#323232"/>
<path d="M388.571 641.203L513.181 299.781L620.427 338.751L457.114 787.704C453.463 786.486 450.116 784.965 446.768 783.444C443.421 781.922 440.055 780.096 436.707 777.966C433.664 776.121 430.622 773.991 427.579 771.861C424.517 769.427 421.778 766.992 418.735 764.558C415.996 762.124 413.562 759.385 411.127 756.646C408.37 753.889 406.24 750.846 403.805 747.803C401.675 745.064 399.545 741.717 397.719 738.674C395.894 735.326 394.068 731.96 392.527 728.613C391.006 725.266 389.484 721.918 388.267 718.267C387.05 714.92 385.833 711.249 385.224 707.597C384.311 703.946 383.398 700.294 383.094 696.643C382.485 692.972 382.181 689.016 381.877 685.365C381.877 681.713 381.877 678.061 381.877 674.106C382.181 670.435 382.485 666.783 383.094 663.132C383.703 659.48 384.311 655.829 385.528 652.177C386.441 648.507 387.354 644.855 388.571 641.203Z" fill="#323232"/>
<path d="M439.142 669.826L582.333 276.312L689.883 315.301L546.388 708.815C545.779 710.64 545.171 712.466 544.258 713.988C543.649 715.832 542.736 717.354 541.519 718.875C540.606 720.701 539.693 722.223 538.457 723.744C537.24 724.961 536.327 726.483 534.806 728.004C533.588 729.221 532.371 730.743 530.85 731.96C529.632 733.177 528.111 734.395 526.589 735.326C525.068 736.544 523.547 737.457 522.006 738.369C520.18 739.587 518.659 740.195 516.833 741.108C515.311 742.021 513.486 742.63 511.66 743.238C510.138 743.847 508.313 744.455 506.468 744.76C504.642 745.368 502.816 745.673 500.99 745.977C499.165 746.281 497.035 746.281 495.209 746.281C493.383 746.585 491.557 746.585 489.712 746.281C487.887 746.281 486.061 745.977 484.235 745.673C482.409 745.368 480.583 745.064 478.758 744.76C476.932 744.151 475.106 743.542 473.261 742.934C471.436 742.325 469.914 741.717 468.088 740.804C466.262 739.891 464.741 739.282 463.22 738.065C461.698 737.152 460.177 736.239 458.655 735.003C457.115 733.786 455.593 732.569 454.072 731.352C452.854 730.134 451.637 728.917 450.42 727.396C448.898 726.179 447.986 724.657 446.768 723.136C445.551 721.614 444.638 720.093 443.725 718.571C442.813 716.745 441.881 715.224 440.968 713.379C440.359 711.857 439.446 710.032 438.838 708.206C438.229 706.38 437.62 704.859 437.316 703.033C437.012 701.207 436.403 699.381 436.099 697.556C436.099 695.425 435.795 693.6 435.795 691.755C435.795 689.929 435.795 688.103 435.795 686.277C435.795 684.452 436.099 682.626 436.403 680.8C436.708 678.67 437.012 676.844 437.316 675.323C437.925 673.497 438.533 671.652 439.142 669.826Z" fill="#FD7600"/>
<path d="M561.622 327.492L581.116 273.878L636.878 293.981C635.966 295.807 635.338 297.652 634.425 299.173C633.816 300.999 632.904 302.52 631.991 304.042C630.773 305.868 629.861 307.389 628.643 308.911C627.73 310.128 626.513 311.649 625.296 313.171C623.775 314.388 622.557 315.91 621.036 317.127C619.819 318.363 618.278 319.58 616.757 320.493C615.235 321.71 613.714 322.623 612.192 323.536C610.671 324.449 608.845 325.362 607.324 326.275C605.498 327.188 603.672 327.796 602.131 328.405C600.306 329.013 598.48 329.622 596.654 329.926C594.828 330.535 593.003 330.839 591.177 331.143C589.351 331.143 587.525 331.448 585.68 331.448C583.55 331.752 581.724 331.752 579.899 331.448C578.073 331.448 576.247 331.143 574.421 330.839C572.596 330.535 570.751 330.231 568.925 329.926C567.099 329.318 565.273 328.709 563.448 328.1L561.622 327.492Z" fill="#323232"/>
<path d="M496.122 346.073L551.561 366.479L512.573 473.687L457.115 453.585L496.122 346.073Z" fill="#FD7600"/>
<path d="M477.236 398.146L496.73 344.551L550.344 364.045C549.735 365.567 549.126 367.393 548.213 369.218C547.605 370.74 546.692 372.566 545.779 374.087C544.562 375.609 543.649 377.13 542.432 378.652C541.519 380.173 540.302 381.714 539.085 382.931C537.544 384.452 536.327 385.669 534.805 386.887C533.588 388.104 532.067 389.321 530.545 390.538C529.024 391.451 527.502 392.668 525.981 393.581C524.155 394.494 522.614 395.407 521.093 396.016C519.267 396.928 517.441 397.537 515.616 398.146C514.094 398.754 512.268 399.363 510.443 399.971C508.617 400.276 506.791 400.58 504.946 400.884C503.12 401.189 501.295 401.493 499.165 401.493C497.339 401.493 495.513 401.493 493.687 401.493C491.861 401.189 490.017 401.189 488.191 400.884C486.365 400.58 484.539 400.276 482.713 399.667C480.888 399.363 479.062 398.754 477.236 398.146Z" fill="#323232"/>
<path d="M444.03 823.649L642.66 277.853C643.269 276.008 643.877 274.487 644.79 272.661C645.703 271.14 646.312 269.314 647.529 267.792C648.442 266.271 649.355 264.749 650.572 263.228C651.789 261.706 653.025 260.185 654.242 258.968C655.46 257.446 656.677 256.229 658.198 254.993C659.415 253.776 660.937 252.558 662.458 251.341C663.98 250.428 665.501 249.211 667.023 248.298C668.868 247.385 670.389 246.472 672.215 245.56C673.736 244.951 675.562 244.342 677.388 243.734C679.214 242.821 680.735 242.517 682.561 241.908C684.406 241.604 686.232 241.299 688.057 240.995C690.188 240.691 692.013 240.386 693.839 240.386C695.665 240.386 697.491 240.386 699.316 240.386C701.161 240.691 702.987 240.691 704.813 240.995C706.943 241.299 708.769 241.604 710.594 242.212C712.116 242.517 713.942 243.125 715.768 243.734C717.612 244.342 719.438 245.255 720.96 245.864C722.785 246.777 724.307 247.69 725.828 248.603C727.35 249.515 729.176 250.733 730.393 251.645C731.914 252.863 733.455 254.08 734.976 255.297C736.193 256.533 737.411 258.055 738.932 259.272C740.149 260.793 741.367 262.315 742.279 263.836C743.497 265.054 744.41 266.879 745.322 268.401C746.235 269.922 747.148 271.748 748.061 273.27C748.67 275.095 749.602 276.636 750.21 278.462C750.819 280.287 751.427 282.113 751.732 283.939C752.34 285.765 752.645 287.591 752.949 289.416C752.949 291.242 753.253 293.068 753.253 294.894C753.557 296.72 753.557 298.564 753.253 300.694C753.253 302.52 752.949 304.346 752.645 306.172C752.34 307.998 752.036 309.823 751.732 311.649C751.123 313.475 750.515 315.301 749.906 317.127L590.264 755.106C589.047 758.776 587.525 762.124 585.985 765.471C584.463 768.818 582.637 772.166 580.812 775.513C578.681 778.575 576.551 781.618 574.421 784.661C572.291 787.704 569.838 790.442 567.403 793.485C564.665 796.224 562.23 798.677 559.187 801.112C556.449 803.851 553.691 805.981 550.648 808.415C547.605 810.545 544.562 812.675 541.215 814.501C538.153 816.327 534.806 818.153 531.458 819.693C527.807 821.215 524.459 822.736 520.789 823.953C517.442 825.17 513.79 826.388 510.138 826.996C506.468 827.909 502.816 828.822 499.165 829.126C495.513 829.735 491.862 830.039 487.887 830.343C484.235 830.343 480.584 830.343 476.932 830.343C472.957 830.039 469.306 829.735 465.654 829.126C462.002 828.518 458.351 827.605 454.68 826.692C451.029 825.779 447.377 824.866 444.03 823.649Z" fill="white"/>
<path d="M442.185 822.736L505.25 649.419C508.008 650.332 510.747 651.55 513.181 652.786C515.92 654.003 518.354 655.22 520.789 656.742C523.242 658.263 525.676 659.785 527.806 661.61C530.241 663.436 532.371 665.262 534.501 667.088C536.631 668.914 538.761 671.044 540.606 673.193C542.432 675.323 544.258 677.453 546.083 679.887C547.605 682.017 549.431 684.452 550.648 686.886C552.169 689.625 553.691 692.059 554.908 694.513C555.84 697.251 557.057 699.99 557.97 702.729C558.883 705.163 559.796 707.902 560.404 710.945C561.013 713.683 561.622 716.441 562.23 719.18C562.534 722.223 562.839 724.961 562.839 727.7C563.143 730.743 563.143 733.482 562.839 736.544C562.839 739.282 562.534 742.021 561.926 745.064C561.622 747.803 561.013 750.541 560.1 753.28C559.491 756.019 558.579 758.776 557.666 761.515L554.299 770.644C553.386 773.078 552.474 775.817 550.952 778.575C549.735 781.009 548.518 783.444 546.996 785.878C545.475 788.312 543.953 790.747 542.127 793.181C540.606 795.311 538.761 797.745 536.631 799.59C534.805 801.72 532.675 803.85 530.545 805.676C528.415 807.806 526.285 809.632 523.851 811.154C521.701 812.979 519.267 814.501 516.833 816.022C514.398 817.24 511.66 818.78 509.225 819.997C506.468 821.214 504.033 822.127 501.295 823.04C498.556 824.257 495.817 824.866 493.078 825.779C490.016 826.387 487.278 826.996 484.539 827.3C481.8 827.605 478.757 827.909 476.019 827.909C472.957 828.213 470.218 828.213 467.479 827.909C464.436 827.909 461.698 827.605 458.959 826.996C455.897 826.692 453.158 826.083 450.42 825.475C447.681 824.562 444.942 823.953 442.185 822.736Z" fill="#323232"/>
<path d="M439.142 669.826L442.508 661.002L549.735 699.99L546.388 708.814C545.779 710.64 545.171 712.466 544.258 713.988C543.649 715.832 542.736 717.354 541.519 718.875C540.606 720.701 539.693 722.223 538.457 723.744C537.24 724.961 536.327 726.483 534.806 728.004C533.588 729.221 532.371 730.743 530.85 731.96C529.632 733.177 528.111 734.394 526.589 735.326C525.068 736.544 523.546 737.456 522.006 738.369C520.18 739.587 518.659 740.195 516.833 741.108C515.311 742.021 513.486 742.63 511.66 743.238C510.138 743.847 508.313 744.455 506.468 744.76C504.642 745.368 502.816 745.673 500.99 745.977C499.165 746.281 497.035 746.281 495.209 746.281C493.383 746.585 491.557 746.585 489.712 746.281C487.887 746.281 486.061 745.977 484.235 745.673C482.409 745.368 480.583 745.064 478.758 744.76C476.932 744.151 475.106 743.542 473.261 742.934C471.436 742.325 469.914 741.717 468.088 740.804C466.262 739.891 464.741 739.282 463.22 738.065C461.698 737.152 460.177 736.239 458.655 735.003C457.115 733.786 455.593 732.569 454.072 731.352C452.854 730.134 451.637 728.917 450.42 727.396C448.898 726.178 447.986 724.657 446.768 723.135C445.551 721.614 444.638 720.093 443.725 718.571C442.813 716.745 441.881 715.224 440.968 713.379C440.359 711.857 439.446 710.032 438.838 708.206C438.229 706.38 437.62 704.859 437.316 703.033C437.012 701.207 436.403 699.381 436.099 697.555C436.099 695.425 435.795 693.6 435.795 691.755C435.795 689.929 435.795 688.103 435.795 686.277C435.795 684.452 436.099 682.626 436.403 680.8C436.708 678.67 437.012 676.844 437.316 675.323C437.925 673.497 438.533 671.652 439.142 669.826Z" fill="#FD7600"/>
<path d="M494.6 678.975L630.773 304.955C631.382 303.129 632.295 301.303 633.208 299.782C634.121 298.26 635.338 296.72 636.574 295.198C638.096 293.677 639.313 292.46 641.139 291.243C642.66 290.025 644.182 289.112 646.007 288.2C647.833 287.591 649.659 286.982 651.485 286.374C653.329 286.07 655.155 285.765 657.285 285.765C659.111 285.461 660.937 285.765 663.067 286.07C664.893 286.374 666.719 286.678 668.563 287.287C670.389 287.895 672.215 288.808 673.736 289.721C675.258 290.938 677.084 292.155 678.301 293.373C679.822 294.59 681.04 296.111 682.257 297.652C683.474 299.173 684.406 300.999 685.319 302.521C685.927 304.346 686.536 306.172 687.145 307.998C687.449 309.824 687.753 311.954 688.057 313.78C688.057 315.605 688.057 317.735 687.753 319.58C687.449 321.406 686.84 323.232 686.232 325.058L550.039 699.077C549.431 700.903 548.518 702.729 547.605 704.251C546.692 705.772 545.475 707.598 543.953 708.815C542.736 710.336 541.215 711.554 539.693 712.771C538.153 713.988 536.631 714.92 534.806 715.833C532.98 716.441 531.154 717.05 529.328 717.659C527.502 717.963 525.677 718.267 523.547 718.572C521.702 718.572 519.876 718.267 517.746 718.267C515.92 717.963 514.094 717.354 512.268 716.746C510.443 716.137 508.617 715.224 507.095 714.292C505.251 713.075 503.729 711.858 502.512 710.641C500.99 709.424 499.773 707.902 498.556 706.381C497.339 704.859 496.426 703.033 495.513 701.512C494.904 699.686 493.992 697.86 493.687 696.034C493.079 694.209 493.079 692.06 492.774 690.234C492.774 688.408 492.774 686.278 493.079 684.452C493.383 682.626 493.992 680.801 494.6 678.975Z" fill="#323232"/>
</g>
<defs>
<clipPath id="clip0_99_1642">
<rect width="1000" height="1000" fill="white" transform="translate(0.54541)"/>
</clipPath>
</defs>
</svg>
