<svg width="1000" height="1000" viewBox="0 0 1000 1000" fill="none" xmlns="http://www.w3.org/2000/svg">
<g clip-path="url(#clip0_91_101)">
<rect width="1000" height="1000" fill="white"/>
<circle cx="254" cy="750" r="250" fill="#F8F8F8"/>
<circle cx="154" cy="150" r="150" fill="#F8F8F8"/>
<circle cx="900" cy="132" r="50" fill="#FD7600"/>
<path d="M700.798 456.196C735.011 396.937 752.118 367.307 777.778 367.307C803.438 367.307 820.545 396.937 854.758 456.196L893.248 522.863C927.461 582.122 944.568 611.752 931.738 633.974C918.908 656.196 884.695 656.196 816.268 656.196H739.288C670.861 656.196 636.648 656.196 623.818 633.974C610.988 611.752 628.094 582.122 662.308 522.863L700.798 456.196Z" fill="#F8F8F8"/>
<circle cx="517.778" cy="403.974" r="333.333" fill="#F8F8F8"/>
<path d="M192.45 587.934C192.45 519.507 192.45 485.294 214.672 472.464C236.895 459.634 266.524 476.741 325.783 510.954L392.45 549.444C451.709 583.657 481.339 600.764 481.339 626.424C481.339 652.084 451.709 669.191 392.45 703.404L325.783 741.894C266.524 776.107 236.895 793.214 214.672 780.384C192.45 767.554 192.45 733.341 192.45 664.914L192.45 587.934Z" fill="#FD7600"/>
<circle cx="444.444" cy="403.974" r="333.333" fill="#FD7600"/>
<path d="M533.333 326.994C592.593 361.207 622.222 378.314 622.222 403.974C622.222 429.634 592.593 446.741 533.333 480.954L466.667 519.444C407.407 553.657 377.778 570.764 355.556 557.934C333.333 545.104 333.333 510.891 333.333 442.464L333.333 365.484C333.333 297.057 333.333 262.844 355.556 250.014C377.778 237.184 407.407 254.29 466.667 288.504L533.333 326.994Z" fill="white"/>
<circle cx="900" cy="900" r="100" fill="#F8F8F8"/>
</g>
<defs>
<clipPath id="clip0_91_101">
<rect width="1000" height="1000" fill="white"/>
</clipPath>
</defs>
</svg>
