<svg id="visual" viewBox="0 0 360 804" width="360" height="804" xmlns="http://www.w3.org/2000/svg" xmlns:xlink="http://www.w3.org/1999/xlink" version="1.1"><rect x="0" y="0" width="360" height="804" fill="#ffffff"></rect><defs><linearGradient id="grad1_0" x1="0%" y1="0%" x2="100%" y2="100%"><stop offset="30.000000000000004%" stop-color="#ffffff" stop-opacity="1"></stop><stop offset="70%" stop-color="#ffffff" stop-opacity="1"></stop></linearGradient></defs><defs><linearGradient id="grad2_0" x1="0%" y1="0%" x2="100%" y2="100%"><stop offset="30.000000000000004%" stop-color="#ffffff" stop-opacity="1"></stop><stop offset="70%" stop-color="#ffffff" stop-opacity="1"></stop></linearGradient></defs><g transform="translate(360, 0)"><path d="M0 126C-15.5 123.3 -31.1 120.6 -47.8 115.5C-64.6 110.4 -82.5 102.9 -89.1 89.1C-95.7 75.3 -90.9 55.3 -95.2 39.4C-99.4 23.5 -112.7 11.8 -126 0L0 0Z" fill="#fd7600"></path></g><g transform="translate(0, 804)"><path d="M0 -126C16.8 -124.4 33.6 -122.8 48.2 -116.4C62.9 -110 75.4 -98.9 87 -87C98.5 -75.1 109.1 -62.5 115.5 -47.8C121.8 -33.2 123.9 -16.6 126 0L0 0Z" fill="#fd7600"></path></g></svg>