<svg width="900" height="600" viewBox="0 0 900 600" fill="none" xmlns="http://www.w3.org/2000/svg">
<g clip-path="url(#clip0_4_115)">
<path fill-rule="evenodd" clip-rule="evenodd" d="M212.107 413.851H217.283C217.882 413.851 218.457 414.089 218.88 414.513C219.304 414.936 219.542 415.511 219.543 416.11V421.287C219.542 421.886 219.304 422.46 218.88 422.884C218.456 423.307 217.882 423.545 217.283 423.546H212.107C211.509 423.544 210.935 423.305 210.512 422.882C210.089 422.459 209.85 421.885 209.848 421.287V416.11C209.837 414.869 210.855 413.851 212.107 413.851ZM230.053 413.851H235.23C235.828 413.853 236.402 414.092 236.825 414.515C237.248 414.938 237.487 415.512 237.489 416.11V421.287C237.488 421.886 237.25 422.46 236.827 422.884C236.403 423.307 235.829 423.545 235.23 423.546H230.053C229.455 423.544 228.881 423.305 228.458 422.882C228.035 422.459 227.796 421.885 227.794 421.287V416.11C227.796 415.512 228.035 414.938 228.458 414.515C228.881 414.092 229.455 413.853 230.053 413.851V413.851ZM248.012 413.851H253.188C253.787 413.853 254.36 414.092 254.783 414.515C255.207 414.938 255.446 415.511 255.448 416.11V421.287C255.447 421.886 255.209 422.46 254.785 422.884C254.361 423.307 253.787 423.545 253.188 423.546H248.012C247.414 423.544 246.84 423.305 246.417 422.882C245.994 422.459 245.755 421.885 245.753 421.287V416.11C245.742 414.869 246.76 413.851 248.012 413.851ZM265.958 413.851H271.135C271.733 413.853 272.307 414.092 272.73 414.515C273.153 414.938 273.392 415.512 273.394 416.11V421.287C273.393 421.886 273.155 422.46 272.732 422.884C272.308 423.307 271.734 423.545 271.135 423.546H265.958C265.358 423.546 264.782 423.308 264.357 422.885C263.931 422.462 263.691 421.887 263.688 421.287V416.11C263.695 415.511 263.936 414.939 264.361 414.516C264.785 414.093 265.359 413.855 265.958 413.851V413.851ZM283.906 413.851H289.083C289.683 413.851 290.259 414.089 290.684 414.512C291.11 414.935 291.35 415.51 291.353 416.11V421.287C291.352 421.584 291.293 421.879 291.179 422.153C291.064 422.428 290.897 422.677 290.686 422.887C290.475 423.097 290.225 423.263 289.95 423.376C289.675 423.489 289.38 423.547 289.083 423.546H283.906C283.308 423.544 282.734 423.305 282.311 422.882C281.888 422.459 281.649 421.885 281.647 421.287V416.11C281.649 415.512 281.888 414.938 282.311 414.515C282.734 414.092 283.308 413.853 283.906 413.851ZM230.712 433.421H235.888C236.486 433.423 237.06 433.662 237.483 434.085C237.906 434.508 238.145 435.082 238.147 435.68V440.867C238.145 441.466 237.906 442.039 237.483 442.462C237.06 442.886 236.487 443.125 235.888 443.127H230.712C230.113 443.126 229.538 442.888 229.114 442.464C228.691 442.041 228.453 441.466 228.452 440.867V435.691C228.45 435.393 228.507 435.098 228.62 434.823C228.733 434.547 228.899 434.297 229.109 434.086C229.32 433.875 229.569 433.707 229.844 433.593C230.119 433.479 230.414 433.421 230.712 433.421V433.421ZM248.658 433.421H253.834C254.433 433.423 255.006 433.662 255.429 434.085C255.853 434.508 256.092 435.081 256.094 435.68V440.867C256.091 441.466 255.852 442.039 255.429 442.462C255.006 442.885 254.433 443.124 253.834 443.127H248.658C248.059 443.125 247.486 442.886 247.063 442.462C246.64 442.039 246.401 441.466 246.399 440.867V435.691C246.397 435.393 246.454 435.098 246.567 434.823C246.68 434.547 246.846 434.297 247.056 434.086C247.266 433.875 247.516 433.707 247.79 433.593C248.065 433.479 248.36 433.421 248.658 433.421ZM266.606 433.421H271.782C272.382 433.421 272.958 433.659 273.383 434.082C273.809 434.505 274.049 435.08 274.052 435.68V440.867C274.049 441.467 273.809 442.042 273.384 442.466C272.958 442.889 272.382 443.127 271.782 443.127H266.606C266.007 443.125 265.434 442.886 265.011 442.462C264.588 442.039 264.349 441.466 264.347 440.867V435.691C264.347 435.091 264.585 434.515 265.008 434.09C265.431 433.664 266.006 433.424 266.606 433.421ZM248.012 392.827H253.188C253.787 392.83 254.36 393.069 254.783 393.492C255.206 393.915 255.445 394.488 255.448 395.087V400.263C255.447 400.862 255.209 401.437 254.785 401.86C254.362 402.284 253.787 402.522 253.188 402.522H248.012C247.414 402.52 246.84 402.281 246.417 401.858C245.994 401.435 245.755 400.861 245.753 400.263V395.087C245.742 393.846 246.76 392.827 248.012 392.827ZM265.958 392.827H271.135C271.734 392.829 272.307 393.068 272.73 393.492C273.153 393.915 273.392 394.488 273.394 395.087V400.263C273.394 400.862 273.156 401.436 272.732 401.86C272.308 402.284 271.734 402.522 271.135 402.522H265.958C265.358 402.522 264.782 402.284 264.357 401.861C263.931 401.438 263.691 400.863 263.688 400.263V395.087C263.695 394.488 263.936 393.915 264.361 393.493C264.785 393.07 265.359 392.831 265.958 392.827V392.827ZM654.533 120.96H659.709C660.308 120.96 660.883 121.198 661.306 121.622C661.73 122.045 661.968 122.62 661.969 123.219V128.396C661.968 128.995 661.73 129.569 661.306 129.993C660.882 130.416 660.308 130.654 659.709 130.655H654.533C653.935 130.653 653.361 130.414 652.938 129.991C652.515 129.568 652.276 128.994 652.274 128.396V123.219C652.263 121.978 653.281 120.96 654.533 120.96ZM672.479 120.96H677.655C678.254 120.962 678.827 121.201 679.25 121.624C679.674 122.047 679.913 122.62 679.915 123.219V128.396C679.914 128.995 679.676 129.57 679.252 129.993C678.829 130.417 678.254 130.655 677.655 130.655H672.479C671.881 130.653 671.307 130.414 670.884 129.991C670.461 129.568 670.222 128.994 670.22 128.396V123.219C670.222 122.621 670.461 122.047 670.884 121.624C671.307 121.201 671.881 120.962 672.479 120.96ZM690.438 120.96H695.614C696.213 120.962 696.786 121.201 697.209 121.624C697.633 122.047 697.872 122.62 697.874 123.219V128.396C697.873 128.995 697.635 129.569 697.211 129.993C696.787 130.416 696.213 130.654 695.614 130.655H690.438C689.84 130.653 689.266 130.414 688.843 129.991C688.42 129.568 688.181 128.994 688.179 128.396V123.219C688.168 121.978 689.186 120.96 690.438 120.96ZM708.384 120.96H713.56C714.159 120.962 714.732 121.201 715.155 121.624C715.579 122.047 715.818 122.62 715.82 123.219V128.396C715.819 128.995 715.581 129.57 715.157 129.993C714.734 130.417 714.159 130.655 713.56 130.655H708.384C707.784 130.655 707.208 130.417 706.783 129.994C706.357 129.571 706.117 128.996 706.114 128.396V123.219C706.121 122.62 706.362 122.048 706.787 121.625C707.211 121.202 707.785 120.964 708.384 120.96V120.96ZM726.332 120.96H731.509C732.109 120.96 732.685 121.198 733.11 121.621C733.536 122.044 733.776 122.619 733.779 123.219V128.396C733.778 128.693 733.719 128.988 733.605 129.262C733.49 129.537 733.323 129.786 733.112 129.996C732.901 130.206 732.651 130.372 732.376 130.485C732.101 130.598 731.806 130.656 731.509 130.655H726.332C725.734 130.653 725.16 130.414 724.737 129.991C724.314 129.568 724.075 128.994 724.073 128.396V123.219C724.075 122.621 724.314 122.047 724.737 121.624C725.16 121.201 725.734 120.962 726.332 120.96V120.96ZM673.138 140.53H678.314C678.912 140.532 679.486 140.771 679.909 141.194C680.332 141.617 680.571 142.191 680.573 142.789V147.976C680.571 148.575 680.332 149.148 679.909 149.571C679.486 149.995 678.913 150.234 678.314 150.236H673.138C672.539 150.235 671.964 149.997 671.54 149.573C671.117 149.15 670.878 148.575 670.878 147.976V142.8C670.876 142.502 670.933 142.207 671.046 141.932C671.159 141.656 671.325 141.406 671.535 141.195C671.746 140.984 671.995 140.816 672.27 140.702C672.545 140.588 672.84 140.53 673.138 140.53V140.53ZM691.084 140.53H696.26C696.859 140.532 697.432 140.771 697.855 141.194C698.279 141.617 698.518 142.19 698.52 142.789V147.976C698.517 148.575 698.278 149.148 697.855 149.571C697.432 149.994 696.859 150.233 696.26 150.236H691.084C690.485 150.234 689.912 149.995 689.489 149.571C689.066 149.148 688.827 148.575 688.825 147.976V142.8C688.823 142.502 688.88 142.207 688.993 141.932C689.106 141.656 689.272 141.406 689.482 141.195C689.692 140.984 689.941 140.816 690.216 140.702C690.491 140.588 690.786 140.53 691.084 140.53V140.53ZM709.032 140.53H714.208C714.808 140.53 715.384 140.768 715.809 141.191C716.235 141.614 716.475 142.189 716.478 142.789V147.976C716.475 148.576 716.235 149.151 715.81 149.575C715.384 149.998 714.808 150.236 714.208 150.236H709.032C708.433 150.234 707.86 149.995 707.437 149.571C707.014 149.148 706.775 148.575 706.773 147.976V142.8C706.773 142.2 707.011 141.624 707.434 141.199C707.857 140.773 708.432 140.533 709.032 140.53V140.53ZM690.438 99.936H695.614C696.213 99.9381 696.786 100.177 697.209 100.6C697.633 101.023 697.872 101.596 697.874 102.195V107.372C697.873 107.971 697.635 108.545 697.211 108.969C696.787 109.392 696.213 109.63 695.614 109.631H690.438C689.84 109.629 689.266 109.39 688.843 108.967C688.42 108.544 688.181 107.97 688.179 107.372V102.195C688.168 100.954 689.186 99.936 690.438 99.936V99.936ZM708.384 99.936H713.56C714.159 99.9381 714.732 100.177 715.155 100.6C715.579 101.023 715.818 101.596 715.82 102.195V107.372C715.819 107.971 715.581 108.546 715.157 108.969C714.734 109.393 714.159 109.631 713.56 109.631H708.384C707.784 109.631 707.208 109.393 706.783 108.97C706.357 108.547 706.117 107.972 706.114 107.372V102.195C706.121 101.596 706.362 101.024 706.787 100.601C707.211 100.178 707.785 99.9396 708.384 99.936ZM229.408 125.903H234.585C235.184 125.904 235.758 126.142 236.182 126.565C236.605 126.989 236.843 127.563 236.844 128.162V133.339C236.843 133.938 236.605 134.512 236.182 134.936C235.758 135.359 235.184 135.597 234.585 135.598H229.408C228.81 135.596 228.236 135.357 227.813 134.934C227.39 134.511 227.151 133.937 227.149 133.339V128.162C227.138 126.921 228.157 125.903 229.408 125.903ZM247.355 125.903H252.531C253.129 125.905 253.703 126.144 254.126 126.567C254.549 126.99 254.788 127.564 254.79 128.162V133.339C254.789 133.938 254.551 134.512 254.128 134.936C253.704 135.359 253.13 135.597 252.531 135.598H247.355C246.756 135.596 246.183 135.357 245.76 134.934C245.336 134.511 245.097 133.938 245.095 133.339V128.162C245.097 127.563 245.336 126.99 245.76 126.567C246.183 126.144 246.756 125.905 247.355 125.903V125.903ZM265.313 125.903H270.49C271.088 125.905 271.662 126.144 272.085 126.567C272.508 126.99 272.747 127.564 272.749 128.162V133.339C272.748 133.938 272.51 134.512 272.087 134.936C271.663 135.359 271.089 135.597 270.49 135.598H265.313C264.715 135.596 264.141 135.357 263.718 134.934C263.295 134.511 263.056 133.937 263.054 133.339V128.162C263.043 126.921 264.062 125.903 265.313 125.903ZM283.26 125.903H288.436C289.034 125.905 289.608 126.144 290.031 126.567C290.454 126.99 290.693 127.564 290.695 128.162V133.339C290.694 133.938 290.456 134.512 290.033 134.936C289.609 135.359 289.035 135.597 288.436 135.598H283.26C282.66 135.598 282.084 135.36 281.659 134.937C281.233 134.514 280.993 133.939 280.99 133.339V128.162C280.997 127.563 281.238 126.991 281.663 126.568C282.087 126.145 282.661 125.907 283.26 125.903ZM301.208 125.903H306.384C306.984 125.903 307.56 126.141 307.985 126.564C308.411 126.987 308.651 127.562 308.654 128.162V133.339C308.653 133.636 308.594 133.931 308.48 134.205C308.366 134.48 308.198 134.729 307.987 134.939C307.776 135.149 307.526 135.315 307.251 135.428C306.976 135.541 306.681 135.599 306.384 135.598H301.208C300.609 135.596 300.036 135.357 299.613 134.934C299.189 134.511 298.95 133.938 298.948 133.339V128.162C298.95 127.563 299.189 126.99 299.613 126.567C300.036 126.144 300.609 125.905 301.208 125.903V125.903ZM248.013 145.473H253.19C253.789 145.475 254.362 145.714 254.785 146.138C255.208 146.561 255.447 147.134 255.449 147.733V152.92C255.447 153.518 255.208 154.092 254.785 154.515C254.362 154.938 253.788 155.177 253.19 155.179H248.013C247.414 155.178 246.84 154.94 246.416 154.517C245.993 154.093 245.755 153.519 245.754 152.92V147.743C245.752 147.445 245.809 147.15 245.922 146.875C246.035 146.599 246.201 146.349 246.411 146.138C246.621 145.927 246.871 145.76 247.146 145.645C247.421 145.531 247.715 145.473 248.013 145.473V145.473ZM265.96 145.473H271.136C271.735 145.475 272.308 145.714 272.731 146.138C273.154 146.561 273.393 147.134 273.395 147.733V152.92C273.393 153.518 273.154 154.092 272.731 154.515C272.308 154.938 271.734 155.177 271.136 155.179H265.96C265.361 155.177 264.788 154.938 264.365 154.515C263.941 154.092 263.702 153.519 263.7 152.92V147.743C263.698 147.445 263.756 147.15 263.869 146.875C263.981 146.599 264.148 146.349 264.358 146.138C264.568 145.927 264.818 145.76 265.092 145.645C265.367 145.531 265.662 145.473 265.96 145.473ZM283.908 145.473H289.084C289.684 145.473 290.26 145.711 290.685 146.135C291.111 146.558 291.351 147.133 291.354 147.733V152.92C291.351 153.52 291.111 154.095 290.685 154.518C290.26 154.941 289.684 155.179 289.084 155.179H283.908C283.309 155.177 282.736 154.938 282.313 154.515C281.889 154.092 281.65 153.519 281.648 152.92V147.743C281.648 147.143 281.886 146.567 282.309 146.141C282.733 145.716 283.308 145.476 283.908 145.473V145.473ZM265.313 104.879H270.49C271.089 104.881 271.662 105.12 272.085 105.544C272.508 105.967 272.747 106.54 272.749 107.139V112.315C272.749 112.914 272.511 113.488 272.087 113.912C271.663 114.336 271.089 114.574 270.49 114.574H265.313C264.715 114.572 264.141 114.333 263.718 113.91C263.295 113.487 263.056 112.913 263.054 112.315V107.139C263.043 105.898 264.062 104.879 265.313 104.879ZM283.26 104.879H288.436C289.035 104.881 289.608 105.12 290.031 105.544C290.454 105.967 290.693 106.54 290.695 107.139V112.315C290.695 112.914 290.457 113.488 290.033 113.912C289.609 114.336 289.035 114.574 288.436 114.574H283.26C282.66 114.574 282.084 114.336 281.659 113.913C281.233 113.49 280.993 112.915 280.99 112.315V107.139C280.996 106.54 281.238 105.967 281.662 105.544C282.087 105.122 282.661 104.883 283.26 104.879ZM660.259 415.024H665.436C666.035 415.025 666.609 415.263 667.033 415.686C667.456 416.11 667.694 416.684 667.695 417.283V422.459C667.695 423.058 667.457 423.633 667.033 424.056C666.61 424.48 666.035 424.718 665.436 424.719H660.259C659.66 424.717 659.087 424.478 658.664 424.054C658.241 423.631 658.002 423.058 658 422.459V417.283C657.989 416.042 659.008 415.024 660.259 415.024ZM678.206 415.024H683.382C683.98 415.026 684.554 415.265 684.977 415.688C685.4 416.111 685.639 416.685 685.641 417.283V422.459C685.641 423.058 685.403 423.633 684.979 424.056C684.556 424.48 683.981 424.718 683.382 424.719H678.206C677.607 424.716 677.034 424.477 676.611 424.054C676.188 423.631 675.949 423.058 675.946 422.459V417.283C675.948 416.684 676.187 416.111 676.611 415.688C677.034 415.265 677.607 415.026 678.206 415.024ZM696.165 415.024H701.341C701.939 415.026 702.513 415.265 702.936 415.688C703.359 416.111 703.598 416.685 703.6 417.283V422.459C703.6 423.058 703.362 423.633 702.938 424.056C702.515 424.48 701.94 424.718 701.341 424.719H696.165C695.566 424.716 694.993 424.477 694.57 424.054C694.147 423.631 693.908 423.058 693.905 422.459V417.283C693.895 416.042 694.913 415.024 696.165 415.024ZM714.111 415.024H719.287C719.886 415.026 720.459 415.265 720.882 415.688C721.306 416.111 721.545 416.684 721.547 417.283V422.459C721.546 423.058 721.308 423.633 720.884 424.056C720.461 424.48 719.886 424.718 719.287 424.719H714.111C713.511 424.719 712.935 424.481 712.509 424.058C712.084 423.634 711.844 423.059 711.841 422.459V417.283C711.848 416.684 712.089 416.112 712.514 415.689C712.938 415.266 713.512 415.028 714.111 415.024V415.024ZM732.059 415.024H737.235C737.835 415.024 738.411 415.262 738.836 415.685C739.262 416.108 739.502 416.683 739.505 417.283V422.459C739.504 422.756 739.445 423.051 739.331 423.326C739.217 423.6 739.049 423.85 738.838 424.059C738.628 424.269 738.377 424.436 738.102 424.549C737.827 424.662 737.532 424.72 737.235 424.719H732.059C731.46 424.717 730.887 424.478 730.464 424.054C730.041 423.631 729.802 423.058 729.8 422.459V417.283C729.802 416.685 730.041 416.111 730.464 415.688C730.887 415.265 731.461 415.026 732.059 415.024V415.024ZM678.864 434.594H684.041C684.639 434.596 685.213 434.835 685.636 435.258C686.059 435.681 686.298 436.255 686.3 436.853V442.04C686.298 442.638 686.059 443.212 685.636 443.635C685.213 444.058 684.639 444.297 684.041 444.299H678.864C678.265 444.298 677.691 444.06 677.267 443.637C676.844 443.213 676.605 442.639 676.605 442.04V436.864C676.603 436.566 676.66 436.271 676.773 435.996C676.886 435.72 677.052 435.47 677.262 435.259C677.472 435.048 677.722 434.88 677.996 434.766C678.271 434.652 678.566 434.594 678.864 434.594ZM696.811 434.594H701.987C702.585 434.596 703.159 434.835 703.582 435.258C704.005 435.681 704.244 436.255 704.246 436.853V442.04C704.244 442.638 704.005 443.212 703.582 443.635C703.159 444.058 702.585 444.297 701.987 444.299H696.811C696.212 444.297 695.639 444.058 695.216 443.635C694.792 443.212 694.553 442.639 694.551 442.04V436.864C694.549 436.566 694.606 436.271 694.719 435.996C694.832 435.72 694.998 435.47 695.208 435.259C695.419 435.048 695.668 434.88 695.943 434.766C696.218 434.652 696.513 434.594 696.811 434.594V434.594ZM714.758 434.594H719.935C720.535 434.594 721.111 434.832 721.536 435.255C721.962 435.678 722.202 436.253 722.205 436.853V442.04C722.202 442.64 721.962 443.215 721.536 443.638C721.111 444.061 720.535 444.299 719.935 444.299H714.758C714.16 444.297 713.586 444.058 713.163 443.635C712.74 443.212 712.501 442.638 712.499 442.04V436.864C712.499 436.264 712.737 435.688 713.16 435.263C713.583 434.837 714.158 434.597 714.758 434.594V434.594ZM696.165 394H701.341C701.939 394.002 702.513 394.241 702.936 394.664C703.359 395.087 703.598 395.661 703.6 396.259V401.436C703.599 402.035 703.361 402.609 702.938 403.033C702.514 403.456 701.94 403.694 701.341 403.695H696.165C695.566 403.693 694.993 403.454 694.57 403.031C694.146 402.608 693.907 402.035 693.905 401.436V396.259C693.895 395.018 694.913 394 696.165 394ZM714.111 394H719.287C719.886 394.002 720.459 394.241 720.882 394.664C721.306 395.087 721.545 395.66 721.547 396.259V401.436C721.546 402.035 721.308 402.609 720.884 403.033C720.46 403.456 719.886 403.694 719.287 403.695H714.111C713.511 403.695 712.935 403.457 712.51 403.034C712.084 402.611 711.844 402.036 711.841 401.436V396.259C711.848 395.66 712.089 395.088 712.514 394.665C712.938 394.242 713.512 394.004 714.111 394V394Z" fill="#F8F8F8"/>
<path d="M735.925 307.966C716.147 312.651 695.229 295.878 695.229 295.878C695.229 295.878 706.392 271.517 726.176 266.847C745.954 262.161 766.865 278.92 766.865 278.92C766.865 278.92 755.702 303.28 735.925 307.966V307.966Z" fill="url(#paint0_linear_4_115)"/>
<path d="M134.823 316.782C115.045 321.467 94.127 304.694 94.127 304.694C94.127 304.694 105.29 280.334 125.074 275.663C144.852 270.978 165.763 287.736 165.763 287.736C165.763 287.736 154.6 312.097 134.823 316.782V316.782Z" fill="url(#paint1_linear_4_115)"/>
<path d="M385.449 98.727C410.23 93.717 425.122 63.874 425.122 63.874C425.122 63.874 399.823 42.171 375.042 47.201C350.26 52.211 335.368 82.034 335.368 82.034C335.368 82.034 360.667 103.737 385.449 98.727V98.727Z" fill="url(#paint2_linear_4_115)"/>
<path d="M588.985 513.473C620.375 506.261 638.336 467.756 638.336 467.756C638.336 467.756 605.39 440.968 574 448.206C542.61 455.419 524.648 493.898 524.648 493.898C524.648 493.898 557.595 520.686 588.985 513.473V513.473Z" fill="url(#paint3_linear_4_115)"/>
<path d="M782.745 350.809C773.48 350.809 765.97 357.993 765.97 366.855C765.97 375.717 773.48 382.901 782.745 382.901C792.01 382.901 799.52 375.717 799.52 366.855C799.52 357.993 792.01 350.809 782.745 350.809Z" fill="#FD7600"/>
<path d="M452 141C363.635 141 292 212.634 292 301C292 389.365 363.635 461 452 461C540.365 461 612 389.365 612 301C612 212.634 540.365 141 452 141Z" fill="#FD7600"/>
<path d="M294.108 481.089C286.042 481.089 279.504 487.627 279.504 495.693C279.504 503.759 286.042 510.297 294.108 510.297C302.174 510.297 308.712 503.759 308.712 495.693C308.712 487.627 302.174 481.089 294.108 481.089Z" fill="#FD7600"/>
<path d="M233.936 219.792C229.505 219.792 225.913 216.2 225.913 211.769C225.913 207.338 229.505 203.746 233.936 203.746C238.367 203.746 241.959 207.338 241.959 211.769C241.959 216.2 238.367 219.792 233.936 219.792Z" fill="#FD7600"/>
<path d="M765.94 168.781C758.495 168.781 752.459 162.494 752.459 154.738C752.459 146.982 758.495 140.695 765.94 140.695C773.385 140.695 779.421 146.982 779.421 154.738C779.421 162.494 773.385 168.781 765.94 168.781Z" fill="#FD7600"/>
<path d="M140.762 402.45C134.868 402.45 130.09 397.672 130.09 391.778C130.09 385.884 134.868 381.106 140.762 381.106C146.656 381.106 151.434 385.884 151.434 391.778C151.434 397.672 146.656 402.45 140.762 402.45Z" fill="#FD7600"/>
<path d="M393 493C385.82 493 380 487.404 380 480.5C380 473.596 385.82 468 393 468C400.18 468 406 473.596 406 480.5C406 487.404 400.18 493 393 493Z" fill="#F8F8F8"/>
<path d="M225.811 314.765C221.09 314.765 217.263 310.938 217.263 306.217C217.263 301.496 221.09 297.669 225.811 297.669C230.532 297.669 234.359 301.496 234.359 306.217C234.359 310.938 230.532 314.765 225.811 314.765Z" fill="#F8F8F8"/>
<path d="M470.5 525C466.358 525 463 521.418 463 517C463 512.582 466.358 509 470.5 509C474.642 509 478 512.582 478 517C478 521.418 474.642 525 470.5 525Z" fill="#F8F8F8"/>
<path d="M524.96 76.644C520.932 76.644 517.666 73.3784 517.666 69.35C517.666 65.3216 520.932 62.056 524.96 62.056C528.988 62.056 532.254 65.3216 532.254 69.35C532.254 73.3784 528.988 76.644 524.96 76.644Z" fill="#F8F8F8"/>
<path d="M197.38 357.659C198.399 361.461 196.142 365.369 192.34 366.387C188.538 367.406 184.63 365.15 183.612 361.348C182.593 357.546 184.849 353.638 188.651 352.619C192.453 351.6 196.361 353.857 197.38 357.659Z" fill="#F8F8F8"/>
<path d="M249.19 62.459C243.953 62.459 239.708 58.2138 239.708 52.977C239.708 47.7402 243.953 43.495 249.19 43.495C254.427 43.495 258.672 47.7402 258.672 52.977C258.672 58.2138 254.427 62.459 249.19 62.459Z" fill="#F8F8F8"/>
<path d="M721.359 220.359C717.331 220.359 714.065 217.747 714.065 214.524C714.065 211.301 717.331 208.689 721.359 208.689C725.387 208.689 728.653 211.301 728.653 214.524C728.653 217.747 725.387 220.359 721.359 220.359Z" fill="#F8F8F8"/>
<path d="M609.861 106.264C611.981 114.177 607.286 122.311 599.373 124.431C591.46 126.551 583.326 121.855 581.206 113.943C579.086 106.03 583.782 97.8962 591.695 95.7759C599.607 93.6556 607.741 98.3515 609.861 106.264Z" fill="#F8F8F8"/>
<path d="M798.774 202.51H798.965C800.095 218.519 812 218.765 812 218.765C812 218.765 798.872 219.021 798.872 237.519C798.872 219.021 785.743 218.765 785.743 218.765C785.743 218.765 797.644 218.519 798.774 202.51V202.51ZM168.026 134.539H168.355C170.301 162.555 190.805 162.986 190.805 162.986C190.805 162.986 168.195 163.434 168.195 195.806C168.195 163.434 145.585 162.986 145.585 162.986C145.585 162.986 166.08 162.555 168.026 134.539V134.539Z" fill="#F8F8F8"/>
<path d="M454.411 310.402V231M454.394 372.159C451.959 372.159 449.982 374.135 450 376.57C450.018 377.728 450.49 378.834 451.315 379.647C452.141 380.46 453.253 380.916 454.412 380.916C455.57 380.916 456.682 380.46 457.508 379.647C458.333 378.834 458.806 377.728 458.823 376.57C458.822 375.989 458.707 375.415 458.484 374.879C458.261 374.343 457.934 373.856 457.523 373.446C457.112 373.037 456.624 372.712 456.087 372.491C455.55 372.27 454.975 372.157 454.394 372.159" stroke="white" stroke-width="30" stroke-linecap="round" stroke-linejoin="round"/>
</g>
<defs>
<linearGradient id="paint0_linear_4_115" x1="661.447" y1="319.615" x2="834.581" y2="237.821" gradientUnits="userSpaceOnUse">
<stop stop-color="white"/>
<stop offset="1" stop-color="#EEEEEE"/>
</linearGradient>
<linearGradient id="paint1_linear_4_115" x1="60.345" y1="328.431" x2="233.479" y2="246.637" gradientUnits="userSpaceOnUse">
<stop stop-color="white"/>
<stop offset="1" stop-color="#EEEEEE"/>
</linearGradient>
<linearGradient id="paint2_linear_4_115" x1="475.647" y1="73.091" x2="237.467" y2="70.882" gradientUnits="userSpaceOnUse">
<stop stop-color="white"/>
<stop offset="1" stop-color="#EEEEEE"/>
</linearGradient>
<linearGradient id="paint3_linear_4_115" x1="702.988" y1="477.795" x2="399.6" y2="482.987" gradientUnits="userSpaceOnUse">
<stop stop-color="white"/>
<stop offset="1" stop-color="#EEEEEE"/>
</linearGradient>
<clipPath id="clip0_4_115">
<rect width="900" height="600" fill="white"/>
</clipPath>
</defs>
</svg>
