<svg width="900" height="600" viewBox="0 0 900 600" fill="none" xmlns="http://www.w3.org/2000/svg">
<path d="M466.483 487.226C582.981 487.226 677.422 392.785 677.422 276.287C677.422 159.789 582.981 65.3479 466.483 65.3479C349.985 65.3479 255.544 159.789 255.544 276.287C255.544 392.785 349.985 487.226 466.483 487.226Z" fill="#FD7600"/>
<path d="M466.483 436.376C554.897 436.376 626.571 364.702 626.571 276.288C626.571 187.874 554.897 116.2 466.483 116.2C378.069 116.2 306.395 187.874 306.395 276.288C306.395 364.702 378.069 436.376 466.483 436.376Z" fill="#F8F8F8"/>
<path d="M466.004 389.847C528.972 389.847 580.017 338.556 580.017 275.286C580.017 212.016 528.972 160.725 466.004 160.725C403.036 160.725 351.991 212.016 351.991 275.286C351.991 338.556 403.036 389.847 466.004 389.847Z" fill="#FD7600"/>
<path d="M466.004 321.878C492.039 321.878 513.144 301.018 513.144 275.286C513.144 249.554 492.039 228.694 466.004 228.694C439.969 228.694 418.864 249.554 418.864 275.286C418.864 301.018 439.969 321.878 466.004 321.878Z" fill="#F8F8F8"/>
<path d="M460.522 275.834L116.29 182.65" stroke="#F8F8F8" stroke-width="24" stroke-linecap="round"/>
<path d="M132.274 186.112L138.923 161.298C147.166 130.535 172.484 123.771 195.134 146.376L213.354 164.606L231.575 182.837C254.225 205.441 247.476 230.628 216.559 238.879L191.664 245.556L166.769 252.234C135.851 260.485 117.307 241.969 125.55 211.206L132.274 186.112Z" fill="#F8F8F8"/>
<path d="M715.972 172.696C707.545 178.096 697.527 174.11 683.164 164.565C672.363 157.385 662.432 150.989 654.355 138.701C648.7 130.103 645.525 120.858 643.965 112.693C642.273 103.846 639.072 93.0711 646.228 87.8831C656.061 80.7561 687.531 87.1281 706.809 114.456C727.984 144.481 724.211 167.42 715.972 172.696Z" fill="url(#paint0_linear_6_187)"/>
<path d="M783.319 240.812C763.599 250.594 737.426 238.016 737.426 238.016C737.426 238.016 743.243 209.584 762.973 199.816C782.693 190.034 808.856 202.598 808.856 202.598C808.856 202.598 803.039 231.03 783.319 240.812Z" fill="url(#paint1_linear_6_187)"/>
<path d="M149.301 418.888C171.178 432 202.565 419.879 202.565 419.879C202.565 419.879 198.461 386.505 176.57 373.408C154.693 360.296 123.32 372.402 123.32 372.402C123.32 372.402 127.424 405.776 149.301 418.888Z" fill="url(#paint2_linear_6_187)"/>
<path d="M736.073 285.7C726.173 285.7 718.147 293.726 718.147 303.626C718.147 313.526 726.173 321.552 736.073 321.552C745.973 321.552 753.999 313.526 753.999 303.626C753.999 293.726 745.973 285.7 736.073 285.7Z" fill="#FD7600"/>
<path d="M189.149 296.663C180.999 296.663 174.392 303.27 174.392 311.42C174.392 319.57 180.999 326.177 189.149 326.177C197.299 326.177 203.906 319.57 203.906 311.42C203.906 303.27 197.299 296.663 189.149 296.663Z" fill="#FD7600"/>
<path d="M280.805 458.61C271.524 458.61 264 451.086 264 441.805C264 432.524 271.524 425 280.805 425C290.086 425 297.61 432.524 297.61 441.805C297.61 451.086 290.086 458.61 280.805 458.61Z" fill="#FD7600"/>
<path d="M790.713 332.178C786.381 332.178 782.87 328.667 782.87 324.335C782.87 320.003 786.381 316.492 790.713 316.492C795.045 316.492 798.556 320.003 798.556 324.335C798.556 328.667 795.045 332.178 790.713 332.178Z" fill="#FD7600"/>
<path d="M433.331 537.181C427.762 537.181 423.248 532.667 423.248 527.098C423.248 521.529 427.762 517.015 433.331 517.015C438.9 517.015 443.414 521.529 443.414 527.098C443.414 532.667 438.9 537.181 433.331 537.181Z" fill="#F8F8F8"/>
<path d="M204.796 523.123C196.752 523.123 190.231 516.602 190.231 508.558C190.231 500.514 196.752 493.993 204.796 493.993C212.84 493.993 219.361 500.514 219.361 508.558C219.361 516.602 212.84 523.123 204.796 523.123Z" fill="#F8F8F8"/>
<path d="M700.729 547.955C694.607 547.955 689.644 542.992 689.644 536.87C689.644 530.748 694.607 525.785 700.729 525.785C706.851 525.785 711.814 530.748 711.814 536.87C711.814 542.992 706.851 547.955 700.729 547.955Z" fill="#F8F8F8"/>
<path d="M761.167 151.387C754.361 151.387 748.843 145.869 748.843 139.063C748.843 132.257 754.361 126.739 761.167 126.739C767.973 126.739 773.491 132.257 773.491 139.063C773.491 145.869 767.973 151.387 761.167 151.387Z" fill="#F8F8F8"/>
<path d="M106.943 280.242C108.525 286.146 105.021 292.214 99.1176 293.796C93.2137 295.378 87.1453 291.875 85.5633 285.971C83.9814 280.067 87.485 273.998 93.3889 272.416C99.2927 270.834 105.361 274.338 106.943 280.242Z" fill="#F8F8F8"/>
<path d="M268.893 134.855C266.349 134.855 264.287 132.793 264.287 130.249C264.287 127.705 266.349 125.643 268.893 125.643C271.437 125.643 273.499 127.705 273.499 130.249C273.499 132.793 271.437 134.855 268.893 134.855Z" fill="#F8F8F8"/>
<path d="M761.325 381.12C755.07 381.12 750 377.064 750 372.06C750 367.056 755.07 363 761.325 363C767.58 363 772.65 367.056 772.65 372.06C772.65 377.064 767.58 381.12 761.325 381.12Z" fill="#F8F8F8"/>
<path d="M593.181 57.7377C594.326 62.0118 591.79 66.4051 587.515 67.5503C583.241 68.6956 578.848 66.1591 577.703 61.885C576.558 57.6109 579.094 53.2176 583.368 52.0723C587.642 50.9271 592.036 53.4635 593.181 57.7377Z" fill="#F8F8F8"/>
<defs>
<linearGradient id="paint0_linear_6_187" x1="660.255" y1="207.104" x2="714.03" y2="13.7001" gradientUnits="userSpaceOnUse">
<stop stop-color="white"/>
<stop offset="1" stop-color="#EEEEEE"/>
</linearGradient>
<linearGradient id="paint1_linear_6_187" x1="707.593" y1="271.325" x2="870.242" y2="142.669" gradientUnits="userSpaceOnUse">
<stop stop-color="white"/>
<stop offset="1" stop-color="#EEEEEE"/>
</linearGradient>
<linearGradient id="paint2_linear_6_187" x1="233.96" y1="461.095" x2="57.9278" y2="297.538" gradientUnits="userSpaceOnUse">
<stop stop-color="white"/>
<stop offset="1" stop-color="#EEEEEE"/>
</linearGradient>
</defs>
</svg>
