<svg width="900" height="600" viewBox="0 0 900 600" fill="none" xmlns="http://www.w3.org/2000/svg">
<g clip-path="url(#clip0_98_1603)">
<path fill-rule="evenodd" clip-rule="evenodd" d="M574.674 57.032L712.708 103.033C718.581 104.985 723.689 108.737 727.307 113.758C730.926 118.778 732.87 124.811 732.865 130.999V484.777C732.865 506.673 709.82 520.936 690.223 511.123L582.425 457.223C574.242 453.124 565.216 450.99 556.064 450.99C546.913 450.99 537.887 453.124 529.704 457.223L405.61 519.286C397.427 523.385 388.401 525.519 379.249 525.519C370.098 525.519 361.072 523.385 352.889 519.286L218.716 452.214C213.819 449.763 209.702 445.998 206.823 441.34C203.945 436.682 202.42 431.315 202.419 425.839V91.687C202.419 71.56 222.134 57.356 241.201 63.721L360.581 103.505C372.679 107.542 385.761 107.542 397.859 103.505L537.396 57.002C549.508 52.994 562.592 52.994 574.674 57.032V57.032Z" fill="white" stroke="#F8F8F8" stroke-width="11"/>
<path d="M556.05 54.2881V451.238" stroke="#F8F8F8" stroke-width="11"/>
<path d="M379.235 106.449V525.501" stroke="#F8F8F8" stroke-width="11"/>
<path d="M666 473.266L733.905 517.103L800.95 473.266L733.905 303.934L666 473.266Z" fill="white" stroke="#F8F8F8" stroke-width="11"/>
<path d="M735.107 429.429V546.328M693.264 454.179L735.392 484.274" stroke="#F8F8F8" stroke-width="11"/>
<path d="M458.336 453.325L526.241 497.162L593.286 453.325L526.241 283.993L458.336 453.325Z" fill="white" stroke="#F8F8F8" stroke-width="11"/>
<path d="M527.443 409.488V526.387M485.6 434.237L527.728 464.332" stroke="#F8F8F8" stroke-width="11"/>
<path d="M135.283 458.642L203.187 502.48L270.232 458.642L203.187 289.311L135.283 458.642V458.642Z" fill="white" stroke="#F8F8F8" stroke-width="11"/>
<path d="M204.39 414.805V531.704M162.547 439.555L204.675 469.65" stroke="#F8F8F8" stroke-width="11"/>
<path d="M263.578 235.807C290.587 117.387 466.49 117.524 493.362 235.944C509.128 305.41 465.804 364.209 427.827 400.583C400.269 427.111 356.67 427.111 328.976 400.583C291.135 364.209 247.811 305.273 263.578 235.807V235.807Z" fill="#FD7600"/>
<path d="M342.774 278.764L371.572 308.062L427.937 250.913" stroke="white" stroke-width="24" stroke-linecap="round" stroke-linejoin="round"/>
<path d="M139.596 545.69V508.668" stroke="#F8F8F8" stroke-width="11"/>
<path d="M162.735 545.69V519.466" stroke="#F8F8F8" stroke-width="11"/>
<path d="M118 545.69V519.466" stroke="#F8F8F8" stroke-width="11"/>
<path d="M276.528 545.69V508.668" stroke="#F8F8F8" stroke-width="11"/>
<path d="M299.667 545.69V519.466" stroke="#F8F8F8" stroke-width="11"/>
<path d="M254.932 545.69V519.466" stroke="#F8F8F8" stroke-width="11"/>
<path d="M471.955 545.69V508.668" stroke="#F8F8F8" stroke-width="11"/>
<path d="M495.094 545.69V519.466" stroke="#F8F8F8" stroke-width="11"/>
<path d="M450.359 545.69V519.466" stroke="#F8F8F8" stroke-width="11"/>
<path d="M614.596 545.69V508.668" stroke="#F8F8F8" stroke-width="11"/>
<path d="M637.735 545.69V519.466" stroke="#F8F8F8" stroke-width="11"/>
<path d="M593 545.69V519.466" stroke="#F8F8F8" stroke-width="11"/>
</g>
<defs>
<clipPath id="clip0_98_1603">
<rect width="900" height="600" fill="white"/>
</clipPath>
</defs>
</svg>
