<svg width="1000" height="1000" viewBox="0 0 1000 1000" fill="none" xmlns="http://www.w3.org/2000/svg">
<rect width="1000" height="1000" fill="white"/>
<circle cx="500" cy="887" r="50" fill="#F8F8F8"/>
<circle cx="212" cy="856" r="100" fill="#F8F8F8"/>
<circle cx="800" cy="800" r="200" fill="#F8F8F8"/>
<circle cx="250" cy="412" r="250" fill="#F8F8F8"/>
<path d="M250 280C250 242.288 250 223.431 261.716 211.716C273.431 200 292.288 200 330 200H500V370C500 407.712 500 426.569 511.716 438.284C523.431 450 542.288 450 580 450H750V480C750 630.849 750 706.274 703.137 753.137C656.274 800 580.849 800 430 800H330C292.288 800 273.431 800 261.716 788.284C250 776.569 250 757.712 250 720V280Z" fill="#FD7600"/>
<path d="M500 200L750 450H642.08C575.103 450 541.614 450 520.807 429.193C500 408.386 500 374.897 500 307.92V200Z" fill="#F8F8F8"/>
<circle cx="750" cy="200" r="50" fill="#F8F8F8"/>
</svg>
