<?xml version="1.0" encoding="UTF-8" standalone="no"?>
<svg
   xmlns:dc="http://purl.org/dc/elements/1.1/"
   xmlns:cc="http://creativecommons.org/ns#"
   xmlns:rdf="http://www.w3.org/1999/02/22-rdf-syntax-ns#"
   xmlns:svg="http://www.w3.org/2000/svg"
   xmlns="http://www.w3.org/2000/svg"
   viewBox="0 0 816 1056"
   height="1056"
   width="816"
   xml:space="preserve"
   id="svg2"
   version="1.1"><metadata
     id="metadata8"><rdf:RDF><cc:Work
         rdf:about=""><dc:format>image/svg+xml</dc:format><dc:type
           rdf:resource="http://purl.org/dc/dcmitype/StillImage" /></cc:Work></rdf:RDF></metadata><defs
     id="defs6" /><g
     transform="translate(0,2.64e-5)"
     id="g10"><g
       id="g12"><path
         id="path14"
         style="fill:#ffffff;fill-opacity:1;fill-rule:nonzero;stroke:none"
         d="M 0,0 H 816 V 1056 H 0 Z" /></g><g
       id="g16"><path
         id="path18"
         style="fill:#282828;fill-opacity:1;fill-rule:nonzero;stroke:none"
         d="m 643.64001,614 c -1.28003,3.84003 -2.88,7.69 -4.48999,11.53003 -1.60003,3.67999 -3.20001,7.52997 -4.96002,11.20996 -1.76001,3.67999 -3.69,7.37 -5.60998,10.89001 -1.92005,3.68 -4,7.21003 -6.09003,10.72998 -2.08002,3.35999 -4.32001,6.89002 -6.71997,10.25001 -2.25,3.35998 -4.65002,6.73004 -7.05005,10.09002 -2.40997,3.20001 -4.96997,6.39997 -7.68994,9.60999 -2.56006,3.03998 -5.29004,6.23999 -8.01001,9.28998 -2.72003,2.88 -5.61005,5.92004 -8.48999,8.80004 -2.88001,2.88996 -5.93005,5.60999 -8.97003,8.32996 -3.04999,2.88001 -6.25,5.45001 -9.28998,8.01001 -3.21002,2.56 -6.41004,5.11999 -9.77002,7.53003 -3.37,2.39996 -6.72998,4.79999 -10.09998,7.03998 -3.36004,2.23999 -6.88,4.48999 -10.41003,6.57 -3.52002,2.08002 -7.04999,4 -10.72998,5.91999 -3.69,1.92999 -7.21002,3.69 -11.04999,5.45001 -3.69003,1.76001 -7.37002,3.35999 -11.22003,4.96002 -3.84,1.44 -7.69,3.04999 -11.53,4.32996 -3.85,1.28003 -7.69,2.56 -11.69,3.84002 -3.84998,1.12 -7.84998,2.24 -11.85999,3.20002 -3.83999,0.95996 -7.85,1.76996 -12.01001,2.57 -4.00998,0.79999 -8.00998,1.44001 -12.01999,2.07996 -4,0.48004 -8.17001,0.96002 -12.17001,1.44 -4.16998,0.32001 -8.16998,0.64002 -12.33999,0.79999 -4,0.16003 -8.16999,0.32001 -12.32999,0.16003 -4,0 -8.17001,0 -12.17001,-0.32 -4.16999,-0.15998 -8.16999,-0.47998 -12.34,-0.96002 -4,-0.47999 -8.01001,-0.95997 -12.17001,-1.59998 -4.00998,-0.64001 -8.00998,-1.28003 -12.01999,-2.08002 -4,-0.79999 -8.01001,-1.76996 -12.01001,-2.72998 -4.00998,-1.11999 -7.84998,-2.23999 -11.85999,-3.35998 -3.84,-1.28003 -7.67999,-2.56 -11.53,-4 -3.83999,-1.28003 -7.69,-2.89002 -11.53,-4.48999 -3.69,-1.60004 -7.53,-3.20002 -11.22,-4.96003 -3.67999,-1.76001 -7.36001,-3.69 -10.89001,-5.60998 -3.67999,-1.92004 -7.20999,-4 -10.72998,-6.08002 -3.37,-2.08002 -6.89002,-4.33001 -10.25,-6.72998 -3.37,-2.24005 -6.73001,-4.64001 -10.10001,-7.05005 -3.2,-2.39996 -6.39999,-4.95996 -9.61,-7.67999 -3.03999,-2.56 -6.24001,-5.28998 -9.28999,-8.01001 -2.88001,-2.71997 -5.92002,-5.59998 -8.81002,-8.48999 -2.87999,-2.88 -5.59999,-5.91998 -8.33,-8.96997 -2.87999,-3.04004 -5.43999,-6.23999 -8.00999,-9.28003 -2.56,-3.20996 -5.12,-6.40997 -7.53,-9.76996 -2.4,-3.36999 -4.8,-6.73004 -7.03999,-10.09003 C 197.35001,663 195.11,659.47998 193.03,655.96002 190.95,652.44 189.02,648.90997 187.10001,645.22998 185.17999,641.54999 183.42,638.02002 181.64999,634.17999 179.89,630.5 178.28999,626.81 176.69,622.96997 175.25,619.12 173.64,615.28003 172.36,611.44 c -1.28,-3.84997 -2.56,-7.69 -3.84,-11.69 -1.12001,-3.84998 -2.24,-7.84998 -3.21,-11.84998 -0.95999,-3.85003 -1.76,-7.85003 -2.56,-12.01001 -0.8,-4.01001 -1.44,-8.01001 -2.08,-12.02002 -0.48,-4 -0.95999,-8.15997 -1.44,-12.16998 -0.32,-4.16003 -0.64,-8.16003 -0.80001,-12.33002 -0.15999,-4 -0.31999,-8.16998 -0.15999,-12.33001 0,-4 0,-8.16999 0.32,-12.16999 0.16,-4.16 0.48001,-8.16998 0.96,-12.32998 0.48,-4.01001 0.95999,-8.01001 1.59999,-12.17001 0.64,-4.01001 1.28,-8.01001 2.08001,-12.01001 0.8,-4.00998 1.76,-8.00998 2.73001,-12.00998 1.11999,-4.01001 2.23999,-7.85001 3.36,-11.86002 1.28,-3.84 2.55999,-7.67999 4,-11.53 1.28999,-3.83999 2.89,-7.67999 4.48999,-11.53 1.6,-3.67999 3.19999,-7.51999 4.97,-11.20999 1.75999,-3.67999 3.68001,-7.36001 5.6,-10.89001 1.92,-3.68 4.01,-7.19999 6.09,-10.72998 2.08,-3.36002 4.31999,-6.88001 6.73,-10.25 2.24,-3.36002 4.64,-6.72001 7.05,-10.08002 2.39999,-3.20999 4.96001,-6.41 7.67999,-9.60999 2.57001,-3.05001 5.29001,-6.25 8.01001,-9.29 2.73,-2.88001 5.61,-5.93 8.48999,-8.81 2.89002,-2.88001 5.93001,-5.60999 8.97,-8.32999 3.05001,-2.88 6.25,-5.44 9.30001,-8.01001 3.19999,-2.56 6.40001,-5.11999 9.77,-7.51999 3.35999,-2.40002 6.72,-4.81 10.09,-7.05002 3.36001,-2.23999 6.89001,-4.47998 10.41,-6.55999 3.53,-2.09 7.04999,-4.01001 10.73001,-5.93 3.69,-1.92001 7.20999,-3.67999 11.06,-5.44 3.67999,-1.76999 7.36999,-3.36999 11.20999,-4.97 3.84,-1.44 7.69,-3.04001 11.53,-4.32001 3.85001,-1.28 7.69,-2.57 11.70001,-3.85 3.84,-1.12 7.84998,-2.23999 11.84998,-3.19999 3.85,-0.95999 7.85,-1.76 12.02002,-2.55999 4,-0.80002 8,-1.44001 12.00998,-2.08002 4,-0.47998 8.17001,-0.95999 12.17001,-1.44998 4.17001,-0.32001 8.17001,-0.64002 12.34,-0.80002 4,-0.16 8.17001,-0.31998 12.33001,-0.16 4.00998,0 8.16999,0 12.18,0.32 4.16,0.16001 8.16998,0.48001 12.32998,0.97001 4.01001,0.48001 8.01001,0.95999 12.18,1.6 4,0.63999 8.01001,1.28 12.01001,2.07999 4.01,0.80002 8.01,1.76001 12.01,2.72 4.01001,1.12002 7.85001,2.24002 11.85999,3.36001 3.84,1.29001 7.69,2.57001 11.53,4.01001 3.85001,1.28 7.69,2.87998 11.54001,4.47999 3.67999,1.6 7.52002,3.20001 11.21002,4.97 3.67999,1.76001 7.36999,3.67999 10.88995,5.6 3.69001,1.91999 7.21002,4.01001 10.73004,6.09 3.37,2.07999 6.89002,4.32001 10.26001,6.72 3.35999,2.25 6.71997,4.64999 10.08997,7.04999 3.20001,2.40002 6.41003,4.96002 9.60999,7.69 3.04003,2.56 6.25,5.28 9.29003,8 2.88001,2.73001 5.93,5.61002 8.81,8.49002 2.88001,2.87998 5.60999,5.92999 8.33002,8.97 2.87994,3.03998 5.44995,6.25 8.00995,9.28998 2.56,3.20001 5.13,6.40002 7.53003,9.77002 2.39996,3.35999 4.79999,6.72 7.04998,10.09 2.24,3.35998 4.47999,6.88 6.57001,10.41 2.08002,3.51999 4,7.03998 5.91998,10.72998 1.92005,3.68002 3.69001,7.20001 5.45002,11.05002 1.76001,3.67999 3.35998,7.35998 4.96002,11.20999 1.44995,3.84 3.04999,7.67999 4.32996,11.53 1.28002,3.84 2.55999,7.67999 3.84002,11.69 1.13001,3.84 2.25,7.84 3.21002,11.85001 0.95997,3.83999 1.75995,7.85 2.56,12.00998 0.79999,4 1.44,8.01001 2.07996,12.01001 0.48004,4 0.96002,8.17001 1.45001,12.17001 0.32001,4.16 0.64001,8.16998 0.79999,12.33002 0.16003,4.00995 0.32,8.16998 0.16003,12.32995 0,4.01001 0,8.17005 -0.32001,12.17005 -0.16003,4.16998 -0.47998,8.16998 -0.97003,12.33996 -0.47998,4 -0.95996,8 -1.59997,12.16999 -0.64002,4 -1.27997,8 -2.08002,12.01001 -0.79999,4 -1.76001,8.01001 -2.71997,12.01001 -1.12,4 -2.25,7.84997 -3.37,11.84997 -1.28003,3.84003 -2.55999,7.69 -4,11.53003 z" /></g><g
       id="g20"><path
         id="path22"
         style="fill:none;stroke:#fd7600;stroke-width:9.45100021;stroke-linecap:butt;stroke-linejoin:miter;stroke-miterlimit:4;stroke-dasharray:none;stroke-opacity:1"
         d="m 629.53998,608.88 c -1.27997,3.68 -2.71997,7.20002 -4.15998,10.72999 -1.44,3.67999 -3.04998,7.20001 -4.80999,10.55999 -1.60004,3.53003 -3.35999,6.89002 -5.12,10.25 -1.92999,3.53003 -3.85003,6.73004 -5.77002,10.09003 -2.08001,3.20996 -4.16998,6.57001 -6.25,9.77002 -2.23999,3.20996 -4.47998,6.25 -6.72998,9.28998 -2.40002,3.20001 -4.64001,6.08996 -7.21002,9.13 -2.39996,2.88001 -4.95996,5.91999 -7.52002,8.64997 -2.56995,2.88 -5.28998,5.60003 -8.00995,8.32 -2.73004,2.73004 -5.61004,5.45002 -8.49005,8.01001 -2.72998,2.56 -5.76996,4.97003 -8.64996,7.37 -3.04999,2.56 -6.09003,4.79999 -9.28998,7.04999 -3.05005,2.40002 -6.25,4.48004 -9.46002,6.72003 -3.20002,2.08001 -6.40003,4.16998 -9.77002,6.08996 -3.20001,1.92005 -6.57001,3.84003 -10.08997,5.60004 -3.36004,1.76001 -6.73001,3.52997 -10.25003,5.13 -3.53,1.59998 -7.04999,3.20002 -10.56998,4.64002 -3.69,1.43994 -7.21002,2.87994 -10.90002,4.15997 -3.51999,1.28998 -7.20999,2.40998 -10.88998,3.52997 -3.68,1.12006 -7.53,2.08002 -11.21,3.04004 -3.69,0.79999 -7.53002,1.76001 -11.22,2.39996 -3.84002,0.80005 -7.68002,1.44001 -11.37002,1.92005 -3.84,0.47998 -7.69,0.96997 -11.53,1.28998 -3.84998,0.47998 -7.69,0.64001 -11.53998,0.79998 -3.84,0.16004 -7.69,0.32001 -11.53,0.32001 -3.84002,0 -7.69,-0.15997 -11.53,-0.32001 -3.85,-0.32 -7.69,-0.63995 -11.54001,-0.95996 -3.83999,-0.48004 -7.69,-0.97003 -11.36999,-1.45001 -3.85001,-0.64002 -7.69,-1.28003 -11.37,-2.08002 -3.85,-0.79999 -7.53002,-1.59997 -11.38,-2.56 -3.68002,-0.96002 -7.37,-2.08001 -11.05002,-3.20001 -3.67999,-1.11999 -7.36999,-2.40997 -10.88998,-3.69 -3.69001,-1.27997 -7.21002,-2.71997 -10.74002,-4.15997 -3.68,-1.44001 -7.19999,-3.03998 -10.56998,-4.79999 -3.52002,-1.61005 -6.89001,-3.37 -10.25,-5.13001 -3.52002,-1.92004 -6.73001,-3.84002 -10.09,-5.76001 -3.21002,-2.09002 -6.57,-4.16998 -9.77002,-6.25 -3.20999,-2.23999 -6.25,-4.47998 -9.29,-6.72998 -3.21,-2.40002 -6.09,-4.64001 -9.13999,-7.20001 -2.88,-2.41003 -5.92,-4.97003 -8.64999,-7.53003 -2.88001,-2.56 -5.60001,-5.27997 -8.33001,-8.01001 -2.72,-2.71997 -5.44,-5.59997 -8.01,-8.47998 -2.56,-2.72998 -4.96,-5.77002 -7.36001,-8.64996 -2.56999,-3.05005 -4.80999,-6.09003 -7.04998,-9.29004 -2.40001,-3.03998 -4.49001,-6.25 -6.73001,-9.45001 -2.08001,-3.19995 -4.16001,-6.40998 -6.09,-9.76996 -1.92,-3.20001 -3.84,-6.56 -5.60001,-10.09003 -1.76999,-3.35998 -3.53,-6.71997 -5.12999,-10.25 -1.6,-3.52002 -3.19999,-7.03998 -4.65001,-10.57001 -1.44,-3.67999 -2.87999,-7.20001 -4.15998,-10.89001 -1.28002,-3.51996 -2.40001,-7.19995 -3.52001,-10.88995 -1.13,-3.68 -2.08999,-7.52002 -3.05,-11.21003 -0.8,-3.67999 -1.76,-7.52001 -2.4,-11.21002 -0.8,-3.83996 -1.44,-7.67999 -1.91999,-11.36999 -0.48001,-3.83997 -0.96001,-7.67999 -1.28002,-11.52997 -0.48999,-3.84003 -0.64999,-7.69 -0.80999,-11.53003 -0.15999,-3.83997 -0.32,-7.69 -0.32,-11.52997 0,-3.84003 0.16001,-7.69 0.32,-11.53003 0.32,-3.83999 0.65,-7.68997 0.97,-11.52997 0.47999,-3.84002 0.96,-7.69 1.44,-11.37002 0.64,-3.84 1.28,-7.69 2.08,-11.37 0.8,-3.83999 1.60001,-7.52999 2.56,-11.36999 0.96,-3.67999 2.08999,-7.37 3.21,-11.04999 1.12,-3.68002 2.4,-7.37002 3.68,-10.89001 1.28,-3.68 2.72,-7.21 4.17,-10.73001 1.44,-3.68 3.04,-7.21 4.8,-10.56998 1.6,-3.52002 3.36999,-6.89002 5.13,-10.25 1.92,-3.52002 3.84,-6.73001 5.76,-10.09 2.08999,-3.20001 4.17,-6.57001 6.25,-9.77002 2.24,-3.19998 4.49,-6.23999 6.72999,-9.28998 C 222.66,384.19 224.91,381.31 227.47,378.26999 229.86999,375.38 232.42999,372.34 235,369.62 c 2.56,-2.88999 5.28,-5.60999 8.00999,-8.32999 2.72001,-2.72 5.60001,-5.45001 8.49001,-8.01001 2.72,-2.56 5.76001,-4.95999 8.64999,-7.35999 3.04001,-2.57 6.08002,-4.81002 9.29001,-7.05001 3.04001,-2.4 6.23999,-4.47999 9.45001,-6.72999 3.19999,-2.08001 6.40998,-4.16 9.76999,-6.08001 3.19999,-1.91999 6.57001,-3.85001 10.09,-5.60999 3.37,-1.76001 6.73001,-3.52002 10.25,-5.12002 3.53,-1.59998 7.04999,-3.20999 10.57999,-4.65 3.68002,-1.44 7.21002,-2.88 10.89001,-4.16 3.51999,-1.28 7.20999,-2.39999 10.88999,-3.51999 3.69,-1.12 7.53002,-2.09 11.22,-3.04999 3.68002,-0.80002 7.52002,-1.76001 11.21002,-2.40002 3.83999,-0.79999 7.69,-1.44 11.36999,-1.91999 3.85001,-0.48001 7.69001,-0.95999 11.54001,-1.27999 3.84,-0.48001 7.67999,-0.64002 11.53,-0.80002 3.84,-0.15998 7.69,-0.31998 11.53,-0.31998 3.84998,0 7.69,0.16 11.53998,0.31998 3.84002,0.32001 7.69,0.64001 11.53,0.96002 3.84002,0.47998 7.69,0.95999 11.37002,1.44 3.84998,0.63999 7.69,1.28 11.37998,2.07999 3.84002,0.79999 7.53,1.6 11.37002,2.56 3.67999,0.97 7.37,2.08999 11.04999,3.20999 3.69,1.12002 7.37,2.40002 10.89999,3.68002 3.68,1.28 7.20002,2.72 10.73001,4.16 3.68,1.44999 7.21,3.04999 10.57001,4.81 3.52997,1.59998 6.89002,3.35999 10.25,5.12 3.52997,1.92999 6.72998,3.85 10.09998,5.76999 3.20001,2.08001 6.56,4.16 9.77002,6.23999 3.20001,2.25 6.23999,4.49002 9.28998,6.73001 3.20001,2.39999 6.08001,4.64001 9.13,7.20999 2.88001,2.40002 5.92999,4.96002 8.65002,7.52002 2.88001,2.56998 5.60999,5.28998 8.32996,8.00998 2.72003,2.72 5.44,5.61001 8.01001,8.49002 2.56,2.72 4.96002,5.75998 7.37,8.64999 2.55999,3.04001 4.80004,6.07999 7.04003,9.29001 2.40998,3.03998 4.48999,6.23999 6.72998,9.44 2.09003,3.20999 4.16999,6.40998 6.09003,9.76999 1.91998,3.20999 3.83997,6.57001 5.60999,10.09 1.76001,3.36999 3.52002,6.73001 5.11999,10.25 1.59998,3.51999 3.21002,7.04999 4.65003,10.57001 1.44,3.67999 2.87994,7.20999 4.15997,10.88998 1.28003,3.52002 2.40997,7.21002 3.53003,10.89001 1.11999,3.68 2.07996,7.53 3.03998,11.21 0.79998,3.67999 1.76001,7.53 2.39996,11.20999 0.80005,3.84002 1.45001,7.69 1.93005,11.37002 0.47998,3.84998 0.95996,7.68998 1.27997,11.53 0.47998,3.84998 0.64002,7.69 0.79999,11.52997 0.16003,3.85004 0.32001,7.69 0.32001,11.53003 0,3.84998 -0.15998,7.69 -0.32001,11.52997 -0.32001,3.85003 -0.63995,7.69 -0.95996,11.53003 -0.48004,3.84997 -0.96002,7.69 -1.44,11.36999 -0.65003,3.84998 -1.29004,7.69 -2.09003,11.38001 -0.79999,3.83996 -1.59998,7.52002 -2.56,11.36999 -0.96002,3.68 -2.08001,7.35999 -3.20001,11.04999 -1.13,3.67999 -2.40997,7.35999 -3.69,10.89001 z" /></g><g
       id="g24"><path
         id="path26"
         style="fill:none;stroke:#ffffff;stroke-width:9.45100021;stroke-linecap:butt;stroke-linejoin:miter;stroke-miterlimit:4;stroke-dasharray:none;stroke-opacity:1"
         d="m 610.79999,602.15002 c -1.27997,3.19996 -2.56,6.56995 -3.83997,9.76996 -1.45001,3.20002 -2.89001,6.40003 -4.33002,9.61005 -1.59997,3.19995 -3.20001,6.39996 -4.80999,9.44995 -1.76001,3.04004 -3.52002,6.08002 -5.28003,9.12 -1.91998,3.05004 -3.69,5.93005 -5.76996,8.97003 -1.92004,2.88 -4,5.77002 -6.09003,8.48999 -2.08001,2.88 -4.32001,5.59997 -6.55999,8.33001 -2.25001,2.71998 -4.49,5.44001 -6.89002,8 -2.39996,2.57001 -4.81,5.13001 -7.37,7.52997 -2.55999,2.56 -5.13,4.97003 -7.69,7.37 -2.55999,2.24005 -5.28998,4.64001 -8.01001,6.72003 -2.71997,2.25 -5.60998,4.48999 -8.32995,6.57001 -2.88001,2.07995 -5.77002,4 -8.81,5.92999 -2.88001,1.91998 -5.92999,3.83997 -8.81,5.59998 -3.04004,1.92004 -6.25003,3.52001 -9.29001,5.29003 -3.04001,1.59998 -6.25,3.19996 -9.45001,4.63996 -3.20999,1.44 -6.41,2.88 -9.76999,4.16003 -3.21002,1.45001 -6.41,2.57001 -9.77002,3.84998 -3.36999,1.11999 -6.72998,2.23999 -10.1,3.20001 -3.35999,0.96002 -6.72,1.91998 -10.25,2.71997 -3.35999,0.80005 -6.72998,1.60004 -10.25,2.24005 -3.51999,0.81 -6.88999,1.28998 -10.40998,1.76996 -3.53,0.48004 -7.05001,0.96002 -10.58001,1.28003 -3.35999,0.32001 -6.88001,0.64001 -10.41001,0.64001 -3.51999,0.15998 -7.04999,0.31995 -10.57,0.31995 -3.51999,0 -7.04999,-0.15997 -10.56998,-0.31995 -3.53,-0.16003 -7.05002,-0.48004 -10.57001,-0.80004 -3.53,-0.47998 -7.04999,-0.95997 -10.42001,-1.44001 -3.51999,-0.47998 -7.04999,-1.11999 -10.40998,-1.92999 -3.52001,-0.63995 -6.89001,-1.44 -10.41,-2.23999 -3.37002,-0.95996 -6.73001,-1.91998 -10.09,-2.88 -3.37002,-1.12 -6.73001,-2.24 -10.1,-3.35999 -3.20001,-1.28003 -6.56,-2.57001 -9.77002,-3.84998 -3.19998,-1.44 -6.39999,-2.88 -9.60999,-4.32 -3.20001,-1.60004 -6.41,-3.20002 -9.45001,-4.81 -3.03998,-1.76001 -6.08999,-3.52002 -9.13,-5.28003 -3.03998,-1.91998 -5.93,-3.67999 -8.97,-5.77002 -2.87998,-1.91998 -5.76999,-4 -8.48999,-6.07996 -2.88001,-2.08001 -5.60999,-4.32 -8.32999,-6.57 -2.72,-2.23999 -5.45001,-4.47998 -8.01001,-6.88001 -2.56,-2.40997 -5.13001,-4.81 -7.53,-7.36999 -2.56,-2.56 -4.96001,-5.12 -7.37,-7.69001 -2.24,-2.55999 -4.64,-5.28002 -6.73001,-8 -2.23999,-2.72998 -4.47999,-5.60998 -6.55999,-8.33001 -2.09,-2.88001 -4.01,-5.76996 -5.93,-8.81 -1.92,-2.88 -3.83999,-5.92999 -5.61,-8.81 -1.92,-3.03998 -3.52,-6.23999 -5.28,-9.28998 -1.6,-3.04003 -3.21,-6.23999 -4.65001,-9.44 -1.44,-3.21002 -2.87999,-6.41003 -4.15998,-9.77002 -1.45002,-3.21002 -2.57001,-6.40997 -3.85001,-9.77002 -1.12,-3.36999 -2.24001,-6.72998 -3.2,-10.08996 -0.96,-3.37 -1.92,-6.72998 -2.72,-10.25 -0.81,-3.35999 -1.61,-6.72998 -2.25,-10.25 -0.8,-3.52002 -1.28,-6.89002 -1.76001,-10.41004 -0.47999,-3.51996 -0.95999,-7.04999 -1.28,-10.56994 -0.31999,-3.36005 -0.64,-6.89002 -0.64,-10.41004 -0.15998,-3.52002 -0.31999,-7.04999 -0.31999,-10.57001 0,-3.51995 0.16001,-7.04998 0.31999,-10.57 C 193.67,513.27002 193.99,509.75 194.31,506.22 c 0.47999,-3.51999 0.96,-7.04001 1.44,-10.41 0.48,-3.51999 1.11999,-7.04001 1.92,-10.41001 0.64,-3.51999 1.44,-6.88 2.25,-10.41 0.96,-3.35999 1.92,-6.72 2.88,-10.09 1.12,-3.35998 2.23999,-6.72 3.36,-10.08999 1.28,-3.20001 2.57,-6.56 3.84999,-9.76001 C 211.45,441.84 212.89,438.64001 214.33,435.44 c 1.59999,-3.20999 3.20999,-6.41 4.81,-9.45001 1.75999,-3.03998 3.52,-6.09 5.28,-9.13 1.93001,-3.03998 3.69,-5.93 5.77,-8.96998 1.92,-2.88 4.01,-5.76001 6.09,-8.49002 2.08,-2.88 4.32001,-5.6 6.57001,-8.32 2.23999,-2.72998 4.47999,-5.44999 6.87999,-8.00998 2.41,-2.56 4.80999,-5.13001 7.37001,-7.53 2.57,-2.56 5.13,-4.96002 7.69,-7.36002 2.56998,-2.25 5.28998,-4.64999 8.00998,-6.72998 2.72,-2.24002 5.61001,-4.48001 8.33001,-6.57001 2.88001,-2.08001 5.76999,-4 8.81,-5.92001 2.88999,-1.91998 5.93,-3.85 8.81,-5.60998 3.04999,-1.92002 6.25,-3.52002 9.29001,-5.28 3.04999,-1.60001 6.25,-3.20001 9.44998,-4.65 3.21002,-1.44 6.41,-2.88 9.78,-4.16 3.20001,-1.44 6.40002,-2.56 9.77002,-3.84 3.35998,-1.12002 6.72998,-2.25 10.08999,-3.21002 3.35999,-0.95999 6.72999,-1.91998 10.25,-2.72 3.37,-0.79999 6.72999,-1.59998 10.25,-2.23999 3.53,-0.79999 6.88999,-1.28 10.41999,-1.76001 3.52002,-0.47998 7.04001,-0.95999 10.57001,-1.28 3.36001,-0.31998 6.89001,-0.63998 10.41,-0.63998 3.51999,-0.16001 7.04999,-0.32001 10.57001,-0.32001 3.52999,0 7.04998,0.16 10.57998,0.32001 3.52002,0.16 7.04001,0.47998 10.57001,0.79999 3.51999,0.48001 7.04999,0.95999 10.41,1.44 3.51999,0.48001 7.04999,1.11999 10.41001,1.92001 3.53,0.63999 6.88998,1.44 10.41,2.23999 3.37,0.95999 6.72998,1.92001 10.09998,2.88001 3.36001,1.13 6.72,2.25 10.09002,3.36999 3.19999,1.28 6.56998,2.56 9.76999,3.84 3.20001,1.44 6.41001,2.88 9.60999,4.33001 3.20001,1.59998 6.41,3.19999 9.45001,4.79999 3.04999,1.76001 6.09003,3.51999 9.13,5.28 3.04999,1.92999 5.93,3.69 8.96998,5.76999 2.89001,1.92001 5.77001,4 8.49005,6.09 2.88995,2.08001 5.60998,4.32 8.32995,6.56002 2.73004,2.23999 5.45001,4.48999 8.01001,6.88999 2.57001,2.39999 5.13001,4.79999 7.53003,7.36001 2.56,2.56998 4.96997,5.12998 7.37,7.68998 2.23999,2.56002 4.64996,5.29001 6.72998,8.01001 2.23999,2.72 4.47998,5.6 6.57,8.33001 2.08002,2.87998 4,5.75998 5.91999,8.79999 1.92999,2.88999 3.85003,5.92999 5.60998,8.81 1.92005,3.04001 3.52002,6.25 5.29004,9.29001 1.59998,3.03998 3.20001,6.25 4.64002,9.44998 1.44,3.20001 2.87994,6.40002 4.16998,9.77002 1.44,3.19998 2.56,6.39999 3.83997,9.76999 1.11999,3.36001 2.24005,6.72 3.20001,10.08999 0.97003,3.36002 1.92999,6.72001 2.73004,10.25 0.79999,3.36002 1.59997,6.72001 2.23999,10.24002 0.79999,3.53 1.27997,6.88999 1.76001,10.40998 0.47998,3.53 0.95996,7.05002 1.27997,10.57001 0.32,3.36999 0.64001,6.89001 0.64001,10.41003 0.15998,3.52997 0.33002,7.04999 0.33002,10.56995 0,3.53002 -0.17004,7.05004 -0.33002,10.57 -0.16003,3.53003 -0.48004,7.04999 -0.79999,10.57001 -0.48004,3.53003 -0.96002,7.04999 -1.44,10.41003 -0.48004,3.52997 -1.11999,7.04999 -1.92004,10.40998 -0.63996,3.52002 -1.44,6.89001 -2.23999,10.40997 -0.95996,3.36005 -1.92999,6.73004 -2.89002,10.09003 -1.11999,3.35998 -2.23999,6.72998 -3.35998,10.09002 z" /></g><g
       transform="translate(328.07001,573.79999)"
       id="g28"><path
         id="path30"
         style="fill:#ffffff;fill-opacity:1;fill-rule:nonzero;stroke:none"
         d="M 0,0 58.150002,-159.98 142.89,-129.07001 57.34,106.02 47.889999,102.66 C 45.330002,101.7 42.93,100.74 40.68,99.610001 c -2.400001,-1.120003 -4.799999,-2.400002 -7.040001,-3.840004 -2.25,-1.279999 -4.33,-2.719994 -6.409999,-4.32 -2.08,-1.599999 -4.170001,-3.209999 -6.090001,-4.969994 -1.92,-1.920005 -3.84,-3.68 -5.439999,-5.600006 -1.77,-2.079994 -3.53,-4.009994 -4.97,-6.089996 -1.6,-2.239998 -3.04,-4.32 -4.33,-6.559998 C 4.96,65.82 3.84,63.580002 2.72,61.18 1.6,58.779999 0.64,56.369999 -0.32,53.970001 -1.12,51.41 -1.93,49.009998 -2.57,46.450001 -3.21,43.880001 -3.69,41.32 -4.01,38.759998 -4.33,36.040001 -4.65,33.470001 -4.81,30.91 c 0,-2.719999 0,-5.280001 0.16,-7.850001 0,-2.719999 0.32,-5.279998 0.8,-7.839999 0.32,-2.57 0.8,-5.13 1.44,-7.69 C -1.61,4.97 -0.96,2.41 0,0 Z" /></g><g
       transform="translate(375.48001,440.88)"
       id="g32"><path
         id="path34"
         style="fill:#282828;fill-opacity:1;fill-rule:nonzero;stroke:none"
         d="m 0,0 10.25,-28.34 29.16,10.729999 c -0.32,0.800002 -0.799999,1.760001 -1.119999,2.720001 -0.48,0.8 -0.959999,1.76 -1.440003,2.56 -0.479999,0.8 -1.129997,1.6 -1.609996,2.4 -0.640004,0.8 -1.280003,1.6 -1.920002,2.25 -0.64,0.8 -1.440001,1.44 -2.08,2.08 -0.799999,0.64 -1.600001,1.28 -2.4,1.92 -0.799999,0.48 -1.61,1.12 -2.41,1.6 -0.800001,0.48 -1.76,0.96 -2.559999,1.28 C 22.91,-0.32 22.110001,0 21.15,0.32 20.190001,0.64 19.23,0.96 18.26,1.28 17.299999,1.44 16.34,1.6 15.38,1.76 14.42,1.92 13.46,2.08 12.5,2.08 c -0.96,0 -2.09,0 -3.05,0 C 8.49,1.92 7.53,1.92 6.57,1.76 5.61,1.6 4.65,1.44 3.69,1.12 2.73,0.96 1.76,0.64 0.8,0.32 Z" /></g><g
       transform="translate(292.5,539.53003)"
       id="g36"><path
         id="path38"
         style="fill:#ffffff;fill-opacity:1;fill-rule:nonzero;stroke:none"
         d="m 0,0 18.59,-50.759998 c 0.48,-1.450001 1.119999,-2.730004 1.76,-4.170002 0.64,-1.279999 1.279999,-2.720002 2.08,-4 0.8,-1.279999 1.600001,-2.560002 2.56,-3.680001 0.969999,-1.290001 1.93,-2.409996 2.889999,-3.529998 0.960001,-1.120003 2.08,-2.080002 3.200001,-3.199997 1.120001,-0.960007 2.24,-1.920006 3.530001,-2.720002 1.279998,-0.959999 2.399997,-1.770004 3.84,-2.569999 1.279999,-0.800003 2.559997,-1.440003 4,-2.080002 1.290001,-0.639999 2.729999,-1.279999 4.169998,-1.760002 1.440002,-0.479996 2.880001,-0.959999 4.32,-1.279999 1.45,-0.32 2.890003,-0.639999 4.330001,-0.800003 1.599999,-0.32 3.040001,-0.32 4.489998,-0.479996 1.600003,0 3.040001,0 4.640004,0 1.439994,0.159996 2.879997,0.32 4.489997,0.479996 1.440003,0.32 2.879998,0.639999 4.32,0.960007 1.599999,0.319999 3.040001,0.799995 4.330002,1.279998 L 43.419998,15.86 Z" /></g><g
       transform="translate(281.29001,567.40002)"
       id="g40"><path
         id="path42"
         style="fill:#282828;fill-opacity:1;fill-rule:nonzero;stroke:none"
         d="m 0,0 18.59,-50.759998 c 0.48,-1.450001 1.119999,-2.730004 1.76,-4.170002 0.64,-1.279999 1.279999,-2.720002 2.08,-4 0.8,-1.279999 1.600001,-2.560002 2.56,-3.680001 0.969999,-1.290001 1.93,-2.409996 2.889999,-3.529998 0.960001,-1.120003 2.08,-2.080002 3.200001,-3.199997 1.120001,-0.960007 2.24,-1.920006 3.530001,-2.720002 1.279998,-0.959999 2.399997,-1.770004 3.84,-2.569999 1.279999,-0.800003 2.559997,-1.440003 4,-2.080002 1.290001,-0.639999 2.729999,-1.279999 4.169998,-1.760002 1.440002,-0.479996 2.880001,-0.959999 4.32,-1.279999 1.45,-0.32 2.890003,-0.639999 4.330001,-0.800003 1.599999,-0.32 3.040001,-0.32 4.489998,-0.479996 1.600003,0 3.040001,0 4.640004,0 1.439994,0.159996 2.879997,0.32 4.489997,0.479996 1.440003,0.32 2.879998,0.639999 4.32,0.960007 1.599999,0.319999 3.040001,0.799995 4.330002,1.279998 L 43.419998,15.86 Z" /></g><g
       transform="translate(349.37,602.78998)"
       id="g44"><path
         id="path46"
         style="fill:#282828;fill-opacity:1;fill-rule:nonzero;stroke:none"
         d="M 0,0 65.519997,-179.52 121.91,-159.03 36.040001,77.029999 c -1.920002,-0.64 -3.68,-1.440003 -5.440001,-2.239998 -1.76,-0.800003 -3.53,-1.760002 -5.290001,-2.879997 -1.6,-0.970002 -3.199998,-2.090004 -4.799999,-3.210007 -1.61,-1.279999 -3.050001,-2.559998 -4.65,-3.839996 -1.44,-1.279999 -2.72,-2.720002 -4,-4.16 C 10.41,59.25 9.29,57.650002 8.01,56.049999 6.89,54.610001 5.77,52.849998 4.81,51.25 3.85,49.490002 2.89,47.720001 2.08,45.959999 1.28,44.200001 0.48,42.439999 -0.16,40.52 -0.8,38.759998 -1.44,36.830002 -1.76,34.91 -2.24,32.990002 -2.72,31.07 -2.88,29.15 -3.2,27.219999 -3.36,25.139999 -3.52,23.219999 c 0,-1.92 0,-3.84 0,-5.92 C -3.36,15.37 -3.2,13.45 -2.88,11.53 -2.56,9.61 -2.24,7.69 -1.6,5.77 -1.12,3.84 -0.64,1.92 0,0 Z" /></g><g
       transform="translate(375.95999,617.84003)"
       id="g48"><path
         id="path50"
         style="fill:#fd7600;fill-opacity:1;fill-rule:nonzero;stroke:none"
         d="M 0,0 75.290001,-206.91 131.84,-186.41 56.389999,20.5 C 56.07,21.459999 55.75,22.42 55.27,23.219999 54.950001,24.190001 54.470001,24.99 53.830002,25.790001 53.349998,26.75 52.869999,27.549999 52.220001,28.35 51.580002,28.99 51.099998,29.790001 50.299999,30.59 49.66,31.23 49.02,32.029999 48.220001,32.669998 47.580002,33.310001 46.779999,33.950001 45.98,34.439999 45.18,35.080002 44.380001,35.560001 43.57,36.040001 42.610001,36.68 41.810001,37 40.849998,37.48 40.049999,37.959999 39.09,38.279999 38.130001,38.599998 c -0.799999,0.32 -1.760002,0.640004 -2.729999,0.800004 C 34.439999,39.720001 33.48,39.880001 32.52,40.040001 c -0.960001,0.16 -2.079999,0.16 -3.04,0.16 -0.96,0.16 -1.920001,0.16 -2.89,0 -0.960001,0 -1.92,-0.16 -2.880001,-0.32 -0.959999,-0.16 -1.919998,-0.32 -2.879999,-0.479999 -0.959999,-0.32 -1.92,-0.640004 -2.889999,-0.960003 C 16.98,38.119999 16.18,37.799999 15.22,37.32 14.26,36.84 13.46,36.52 12.66,35.880001 11.86,35.400002 11.06,34.919998 10.26,34.27 9.45,33.630001 8.65,32.990002 7.85,32.349998 7.21,31.709999 6.57,31.07 5.93,30.27 5.13,29.629999 4.65,28.83 4.01,28.030001 3.37,27.23 2.89,26.43 2.41,25.629999 1.93,24.67 1.44,23.870001 0.96,22.9 0.64,22.1 0.16,21.139999 -0.16,20.18 -0.48,19.219999 -0.8,18.42 -0.96,17.459999 -1.12,16.5 -1.44,15.54 -1.6,14.58 c 0,-1.12 -0.16,-2.08 -0.16,-3.05 0,-0.96 0,-1.92 0,-2.88 0,-0.96 0.16,-1.92 0.32,-2.88 C -1.28,4.65 -1.12,3.69 -0.96,2.89 -0.64,1.93 -0.32,0.96 0,0 Z" /></g><g
       transform="translate(440.35999,437.84)"
       id="g52"><path
         id="path54"
         style="fill:#282828;fill-opacity:1;fill-rule:nonzero;stroke:none"
         d="m 0,0 10.25,-28.190001 29.32,10.57 C 39.09,-16.66 38.759998,-15.69 38.279999,-14.89 37.959999,-13.93 37.48,-13.13 37,-12.33 c -0.639999,0.96 -1.119999,1.76 -1.759998,2.56 -0.480004,0.64 -1.120003,1.44 -1.760002,2.24 -0.8,0.64 -1.439999,1.44 -2.24,2.08 -0.64,0.65 -1.449999,1.29 -2.25,1.77 -0.799999,0.64 -1.600001,1.12 -2.4,1.6 -0.799999,0.48 -1.76,0.96 -2.559999,1.44 -0.960001,0.48 -1.92,0.8 -2.730002,1.12 C 20.34,0.8 19.379999,1.12 18.42,1.28 17.459999,1.6 16.5,1.76 15.54,1.92 c -0.96,0 -1.92,0.16 -2.89,0.16 -1.12,0.16 -2.08,0.16 -3.04,0 C 8.65,2.08 7.69,1.92 6.73,1.76 5.77,1.6 4.8,1.44 3.84,1.28 2.88,0.96 1.92,0.64 0.96,0.32 Z" /></g><g
       id="g56"><path
         id="path58"
         style="fill:#fd7600;fill-opacity:1;fill-rule:nonzero;stroke:none"
         d="m 405.92001,447.60999 29.15,10.73001 -20.5,56.37002 L 385.41,504.14001 Z" /></g><g
       transform="translate(395.98999,474.98999)"
       id="g60"><path
         id="path62"
         style="fill:#282828;fill-opacity:1;fill-rule:nonzero;stroke:none"
         d="m 0,0 10.25,-28.18 28.189999,10.25 c -0.32,0.800001 -0.64,1.76 -1.119999,2.72 -0.32,0.8 -0.8,1.76 -1.279999,2.56 -0.639999,0.8 -1.120003,1.6 -1.760002,2.4 C 33.799999,-9.45 33.16,-8.64 32.52,-8 31.709999,-7.2 31.07,-6.56 30.27,-5.92 29.629999,-5.28 28.83,-4.64 28.030001,-4 27.23,-3.52 26.43,-2.88 25.629999,-2.4 24.67,-1.92 23.860001,-1.44 23.059999,-1.12 22.1,-0.64 21.139999,-0.32 20.18,0 19.379999,0.32 18.42,0.64 17.459999,0.96 16.5,1.12 15.54,1.28 14.57,1.44 13.61,1.6 12.65,1.76 11.53,1.76 c -0.96,0 -1.92,0 -2.88,0 C 7.69,1.6 6.72,1.6 5.76,1.44 4.8,1.28 3.84,1.12 2.88,0.8 1.92,0.64 0.96,0.32 0,0 Z" /></g><g
       transform="translate(378.53,698.71997)"
       id="g64"><path
         id="path66"
         style="fill:#ffffff;fill-opacity:1;fill-rule:nonzero;stroke:none"
         d="m 0,0 104.44,-286.98001 c 0.32,-0.97 0.64,-1.76999 1.12,-2.72998 0.48,-0.80002 0.8,-1.76001 1.44,-2.56 0.48,-0.80002 0.96,-1.60001 1.6,-2.40002 0.64,-0.79999 1.29,-1.59998 1.93,-2.23999 0.64,-0.79999 1.28,-1.44001 2.08,-2.09 0.64,-0.64001 1.44,-1.28 2.24,-1.92001 0.8,-0.47998 1.6,-1.12 2.4,-1.59998 0.97,-0.48001 1.77,-0.96002 2.73,-1.44 0.8,-0.32001 1.76,-0.64002 2.72,-0.96002 0.96,-0.47998 1.76,-0.63999 2.72,-0.95999 0.97,-0.16001 1.93,-0.32001 2.89,-0.47999 1.11999,-0.16 2.08,-0.32 3.04001,-0.32 0.95999,0 1.91999,0 2.87999,0 0.97,0.16 1.93,0.16 2.88999,0.32 1.12001,0.15998 2.08001,0.31998 3.04001,0.63999 0.80001,0.16 1.76,0.48001 2.72,0.79999 0.97001,0.32 1.93,0.80001 2.73,1.12002 0.96001,0.47998 1.75999,0.95999 2.56,1.44 0.8,0.47999 1.75999,1.12 2.40001,1.59998 0.79998,0.64001 1.60998,1.28 2.40999,1.92001 0.63999,0.65 1.27999,1.44999 2.08,2.09 0.64,0.79999 1.28,1.60001 1.76001,2.39999 0.64,0.64002 1.11999,1.60001 1.59999,2.4 0.47999,0.80002 0.96,1.76001 1.44,2.56 0.31999,0.96002 0.81,1.77001 1.13,2.73001 0.32,0.95999 0.64,1.92001 0.79999,2.88 0.32001,0.95999 0.48001,1.92001 0.64,2.88001 0,0.95999 0.16001,1.91998 0.16001,2.88 0.16,0.95999 0.16,1.92999 0,3.04999 0,0.95999 -0.16001,1.92001 -0.32,2.88 -0.16,0.96 -0.32,1.91999 -0.48001,2.88001 -0.31999,0.95999 -0.64,1.91998 -0.95999,2.88 L 76.889999,-36.040001 c -0.639999,1.93 -1.440002,3.690003 -2.25,5.450001 -0.800003,1.76 -1.760002,3.52 -2.720001,5.280001 -1.119995,1.609998 -2.239998,3.209999 -3.36,4.809999 -1.119996,1.6 -2.409996,3.040001 -3.689995,4.64 -1.440003,1.44 -2.720001,2.73 -4.320004,4.01 -1.439998,1.44 -2.889999,2.56 -4.489998,3.84 -1.600002,1.12 -3.2,2.24 -4.960003,3.2 -1.609996,0.96 -3.369998,1.92 -5.129997,2.73 -1.920002,0.8 -3.68,1.6 -5.61,2.24 C 38.599998,0.8 36.68,1.44 34.759998,1.76 32.830002,2.24 30.91,2.72 28.99,2.88 27.07,3.2 25.15,3.36 23.059999,3.52 c -1.92,0 -3.84,0 -5.76,0 C 15.21,3.36 13.29,3.2 11.37,2.88 9.45,2.56 7.53,2.08 5.6,1.6 3.68,1.12 1.76,0.64 0,0 Z" /></g><g
       transform="translate(377.56,698.23999)"
       id="g68"><path
         id="path70"
         style="fill:#282828;fill-opacity:1;fill-rule:nonzero;stroke:none"
         d="m 0,0 33.16,-91.129997 c 1.450001,0.479995 2.889999,1.119995 4.170002,1.769996 1.439998,0.64 2.719997,1.279999 4,2.080002 1.289997,0.799996 2.57,1.599999 3.689998,2.559998 1.279999,0.959999 2.399998,1.919998 3.520001,2.880005 1.119999,0.959999 2.239998,2.079994 3.209999,3.209999 0.959999,1.119995 1.919998,2.239998 2.880001,3.519996 0.799999,1.120003 1.759998,2.400002 2.399998,3.680001 0.800003,1.440002 1.600002,2.720001 2.240001,4.010002 0.489998,1.439995 1.130002,2.879997 1.610001,4.32 0.48,1.279998 0.959999,2.719997 1.279999,4.319999 0.32,1.439999 0.639999,2.89 0.959999,4.329998 0.16,1.600003 0.32,3.040001 0.32,4.48 0.159999,1.600002 0.159999,3.040001 0,4.650001 0,1.439999 -0.16,2.880001 -0.48,4.48 -0.16,1.439998 -0.479999,2.880001 -0.959999,4.32 -0.32,1.439998 -0.799999,2.889999 -1.279999,4.330001 l -1.77,4.8 c -0.48,1.279998 -0.959999,2.719999 -1.760002,4.17 -0.64,1.279998 -1.279999,2.559999 -2.079998,3.84 -0.8,1.279999 -1.600003,2.559999 -2.560002,3.839999 -0.799999,1.12 -1.77,2.4 -2.889999,3.37 -0.959999,1.12 -2.079998,2.24 -3.200001,3.2 -1.119999,1.12 -2.239998,2.08 -3.52,2.88 -1.129998,0.96 -2.41,1.76 -3.689999,2.56 -1.279999,0.64 -2.720001,1.45 -4,2.09 -1.450001,0.64 -2.73,1.12 -4.17,1.6 C 29.639999,0.8 28.200001,1.12 26.76,1.6 25.15,1.92 23.709999,2.24 22.27,2.4 20.83,2.56 19.23,2.72 17.790001,2.72 16.18,2.88 14.74,2.88 13.3,2.72 11.7,2.72 10.26,2.56 8.82,2.24 7.21,2.08 5.77,1.76 4.33,1.44 2.89,0.96 1.45,0.64 0,0 Z" /></g><g
       transform="translate(375.95999,617.84003)"
       id="g72"><path
         id="path74"
         style="fill:#fd7600;fill-opacity:1;fill-rule:nonzero;stroke:none"
         d="m 0,0 1.77,-4.64 56.380002,20.5 -1.760003,4.64 C 56.07,21.459999 55.75,22.42 55.27,23.219999 54.950001,24.190001 54.470001,24.99 53.830002,25.790001 53.349998,26.75 52.869999,27.549999 52.220001,28.35 51.580002,28.99 51.099998,29.790001 50.299999,30.59 49.66,31.23 49.02,32.029999 48.220001,32.669998 47.580002,33.310001 46.779999,33.950001 45.98,34.439999 45.18,35.080002 44.380001,35.560001 43.57,36.040001 42.610001,36.68 41.810001,37 40.849998,37.48 40.049999,37.959999 39.09,38.279999 38.130001,38.599998 c -0.799999,0.32 -1.760002,0.640004 -2.729999,0.800004 C 34.439999,39.720001 33.48,39.880001 32.52,40.040001 c -0.960001,0.16 -2.079999,0.16 -3.04,0.16 -0.96,0.16 -1.920001,0.16 -2.89,0 -0.960001,0 -1.92,-0.16 -2.880001,-0.32 -0.959999,-0.16 -1.919998,-0.32 -2.879999,-0.479999 -0.959999,-0.32 -1.92,-0.640004 -2.889999,-0.960003 C 16.98,38.119999 16.18,37.799999 15.22,37.32 14.26,36.84 13.46,36.52 12.66,35.880001 11.86,35.400002 11.06,34.919998 10.26,34.27 9.45,33.630001 8.65,32.990002 7.85,32.349998 7.21,31.709999 6.57,31.07 5.93,30.27 5.13,29.629999 4.65,28.83 4.01,28.030001 3.37,27.23 2.89,26.43 2.41,25.629999 1.93,24.67 1.44,23.870001 0.96,22.9 0.64,22.1 0.16,21.139999 -0.16,20.18 -0.48,19.219999 -0.8,18.42 -0.96,17.459999 -1.12,16.5 -1.44,15.54 -1.6,14.58 c 0,-1.12 -0.16,-2.08 -0.16,-3.05 0,-0.96 0,-1.92 0,-2.88 0,-0.96 0.16,-1.92 0.32,-2.88 C -1.28,4.65 -1.12,3.69 -0.96,2.89 -0.64,1.93 -0.32,0.96 0,0 Z" /></g><g
       transform="translate(405.12,622.65002)"
       id="g76"><path
         id="path78"
         style="fill:#282828;fill-opacity:1;fill-rule:nonzero;stroke:none"
         d="m 0,0 71.599998,-196.66 c 0.32,-0.95999 0.800004,-1.92 1.279999,-2.72 0.480004,-0.79999 1.120003,-1.61 1.770005,-2.40999 0.799995,-0.80001 1.439994,-1.44001 2.400001,-2.08 0.799995,-0.64 1.599999,-1.12001 2.559998,-1.60001 0.959999,-0.31999 1.919998,-0.64 2.879997,-0.95999 0.970001,-0.16001 1.93,-0.32001 3.050003,-0.32001 0.959999,-0.16 1.919998,0 3.040001,0.16 0.959999,0.16001 1.919998,0.32 2.889999,0.64 0.959999,0.32 1.919998,0.80001 2.720001,1.28 0.799996,0.64 1.759995,1.28 2.399994,1.92 0.800003,0.64 1.440003,1.44 2.080002,2.25 0.64,0.8 1.130005,1.76 1.610002,2.56 0.32,0.96 0.64,1.92 0.96,2.88 0.16,0.95999 0.32,2.08 0.48,3.04 0,0.96 0,2.08 -0.16,3.05 -0.16,0.96001 -0.48,1.92 -0.8,2.88 L 29.15,10.57 c -0.32,0.96 -0.8,1.92 -1.279999,2.72 -0.480002,0.8 -1.120001,1.76 -1.92,2.4 C 25.309999,16.49 24.51,17.129999 23.709999,17.77 22.9,18.41 22.1,18.9 21.139999,19.379999 20.18,19.700001 19.219999,20.02 18.26,20.34 c -0.960001,0.16 -1.92,0.32 -3.04,0.48 -0.97,0 -1.93,-0.16 -3.05,-0.16 C 11.21,20.5 10.25,20.18 9.29,19.860001 8.33,19.540001 7.37,19.059999 6.57,18.57 5.6,17.93 4.8,17.290001 4.16,16.65 3.36,16.01 2.72,15.21 2.08,14.41 1.44,13.61 0.96,12.65 0.48,11.85 0.16,10.89 -0.32,9.93 -0.48,8.97 -0.8,8.01 -0.8,6.88 -0.96,5.92 c 0,-0.96 0,-2.08 0.16,-3.04 C -0.64,1.92 -0.32,0.96 0,0 Z" /></g></g></svg>