<svg width="1000" height="1000" viewBox="0 0 1000 1000" fill="none" xmlns="http://www.w3.org/2000/svg">
<g clip-path="url(#clip0_115_2)">
<rect width="1000" height="1000" fill="white"/>
<path d="M969.798 670.824C967.001 678.415 964.005 686.219 960.809 693.61C957.8 701.214 954.404 708.605 950.808 716.009C947.2 723.412 943.604 730.804 939.608 737.808C935.8 745 931.805 752.204 927.398 759.195C923.203 766.2 918.808 772.992 914.201 779.796C909.606 786.588 904.799 793.193 900.005 799.785C894.998 806.39 890.004 812.782 884.798 818.988C879.604 825.38 874.198 831.573 868.604 837.578C863.198 843.571 857.405 849.577 851.599 855.17C845.806 860.976 839.801 866.569 833.808 872.163C827.603 877.569 821.397 882.763 815.005 887.969C808.8 893.163 802.207 898.157 795.603 902.964C788.998 907.758 782.406 912.553 775.601 916.96C768.597 921.555 761.805 925.75 754.801 929.957C747.609 934.152 740.605 938.148 733.201 941.956C725.997 945.751 718.805 949.347 711.402 952.943C703.798 956.351 696.407 959.547 688.803 962.744C681.2 965.74 673.609 968.737 665.805 971.346C658.202 974.143 650.398 976.74 642.607 978.937C634.604 981.334 626.801 983.544 618.798 985.342C610.807 987.34 603.004 989.138 594.801 990.736C586.798 992.134 578.807 993.533 570.605 994.731C562.601 995.93 554.399 996.741 546.208 997.54C538.205 998.339 530.002 998.939 521.799 999.338C513.597 999.538 505.406 999.738 497.203 999.738C489 999.738 480.997 999.538 472.807 998.939C464.604 998.539 456.401 997.94 448.198 997.141C440.195 996.13 432.005 995.131 424.002 993.932C415.799 992.733 407.796 991.135 399.805 989.537C391.802 987.939 383.799 986.141 375.796 984.144C368.005 982.133 360.002 979.736 352.199 977.339C344.395 974.942 336.604 972.345 329.001 969.548C321.397 966.739 313.607 963.743 306.203 960.546C298.599 957.55 291.195 954.141 283.804 950.546C276.4 946.95 268.996 943.354 262.005 939.346C254.801 935.551 247.597 931.555 240.605 927.148C233.601 922.953 226.796 918.558 220.004 913.951C213.2 909.356 206.595 904.562 200.003 899.755C193.398 894.761 187.005 889.767 180.8 884.561C174.395 879.367 168.202 873.973 162.197 868.367C156.204 862.973 150.199 857.168 144.605 851.375C138.799 845.569 133.206 839.576 127.6 833.583C122.194 827.378 117 821.185 111.794 814.78C106.6 808.587 101.606 801.983 96.7988 795.39C92.0044 788.786 87.1975 782.193 82.8027 775.389C78.1956 768.397 74.0005 761.593 69.8055 754.601C65.5979 747.397 61.6026 740.405 57.7946 733.001C53.9991 725.81 50.4033 718.606 46.795 711.214C43.399 703.611 40.2028 696.219 36.994 688.616C33.9976 681.012 31.0011 673.421 28.4041 665.618C25.5949 658.027 22.998 650.223 20.8006 642.433C18.4034 634.429 16.1935 626.626 14.3956 618.636C12.3979 610.632 10.6 602.842 9.00192 594.639C7.60357 586.648 6.20521 578.645 4.99413 570.442C3.79554 562.452 2.99648 554.249 2.19742 546.058C1.39836 538.055 0.799061 529.852 0.39953 521.662C0.199765 513.459 0 505.269 0 497.066C0 488.863 0.199765 480.872 0.79906 472.67C1.19859 464.479 1.79789 456.276 2.59695 448.073C3.59577 440.083 4.5946 431.88 5.79319 423.889C7.00427 415.687 8.60239 407.683 10.2005 399.693C11.7986 391.69 13.5965 383.699 15.5942 375.696C17.6043 367.905 20.0015 359.902 22.3987 352.099C24.7959 344.308 27.4053 336.505 30.202 328.914C32.9987 321.31 35.9952 313.519 39.2039 306.115C42.2004 298.512 45.5964 291.12 49.2047 283.717C52.8005 276.325 56.3962 268.922 60.404 261.93C64.1996 254.726 68.1949 247.534 72.6022 240.53C76.7973 233.538 81.2046 226.734 85.7992 219.942C90.3938 213.137 95.2006 206.545 99.995 199.94C105.002 193.348 109.996 186.943 115.202 180.75C120.396 174.345 125.802 168.152 131.396 162.159C136.802 156.154 142.595 150.161 148.401 144.555C154.206 138.762 160.199 133.156 166.205 127.563C172.397 122.169 178.603 116.963 184.995 111.769C191.2 106.562 197.805 101.568 204.397 96.7738C211.002 91.9669 217.594 87.1726 224.399 82.7777C231.403 78.1706 238.195 73.9756 245.199 69.7805C252.403 65.5729 259.395 61.5776 266.799 57.7821C274.003 53.9866 281.195 50.3783 288.598 46.7825C296.202 43.3865 303.606 40.1903 311.197 36.9816C318.8 33.9851 326.404 30.9886 334.195 28.3916C341.798 25.5949 349.602 22.9855 357.405 20.7881C365.396 18.3909 373.199 16.1935 381.202 14.3956C389.205 12.3979 396.996 10.5876 405.199 8.98945C413.202 7.5911 421.205 6.19272 429.395 4.99413C437.399 3.79554 445.601 2.99649 453.804 2.19743C461.807 1.39837 469.998 0.79907 478.201 0.39954C486.403 0.199774 494.606 0 502.797 0C511 0 519.003 0.199765 527.206 0.79906C535.396 1.19859 543.599 1.79789 551.802 2.59695C559.805 3.59578 568.008 4.5946 575.998 5.79319C584.201 6.99178 592.204 8.58991 600.207 10.188C608.198 11.7986 616.201 13.5965 624.204 15.5942C632.007 17.5918 639.998 19.989 647.801 22.3862C655.605 24.7834 663.408 27.3928 670.999 30.1895C678.603 32.9862 686.406 35.9827 693.797 39.1914C701.401 42.1879 708.805 45.5839 716.208 49.1797C723.6 52.788 731.004 56.3837 738.008 60.3791C745.199 64.1746 752.403 68.1824 759.408 72.5772C766.399 76.7723 773.204 81.1796 780.009 85.7742C786.801 90.3688 793.405 95.1757 799.998 99.97C806.602 104.964 813.007 109.971 819.2 115.165C825.605 120.359 831.798 125.765 837.803 131.358C843.809 136.764 849.802 142.557 855.407 148.363C861.201 154.156 866.807 160.149 872.4 166.155C877.806 172.348 883 178.553 888.206 184.945C893.4 191.15 898.407 197.743 903.201 204.347C908.008 210.94 912.802 217.544 917.21 224.336C921.804 231.341 925.999 238.133 930.207 245.137C934.402 252.328 938.41 259.333 942.205 266.724C946.001 273.928 949.609 281.12 953.205 288.523C956.601 296.115 959.81 303.518 963.006 311.109C966.002 318.713 968.999 326.317 971.608 334.107C974.405 341.711 977.002 349.502 979.199 357.305C981.609 365.296 983.807 373.099 985.604 381.102C987.602 389.093 989.4 396.896 990.998 405.087C992.409 413.09 993.807 421.08 995.006 429.283C996.204 437.286 997.004 445.477 997.803 453.679C998.602 461.67 999.201 469.873 999.6 478.076C999.8 486.266 1000 494.469 1000 502.659C1000 510.862 999.8 518.865 999.201 527.056C998.801 535.259 998.202 543.449 997.403 551.652C996.404 559.655 995.405 567.845 994.207 575.848C993.008 584.039 991.41 592.042 989.8 600.045C988.201 608.035 986.404 616.039 984.406 624.029C982.408 631.833 979.999 639.823 977.601 647.627C975.204 655.43 972.607 663.221 969.798 670.824Z" fill="#3C3C3C"/>
<path d="M941.606 660.624C939.009 667.816 936.2 675.02 933.203 682.024C930.207 689.215 926.998 696.22 923.802 703.012C920.406 710.016 917.01 716.808 913.202 723.612C909.606 730.405 905.798 737.009 901.803 743.602C897.807 750.206 893.6 756.599 889.405 762.991C884.998 769.396 880.603 775.589 876.008 781.794C871.401 787.987 866.607 793.992 861.6 799.985C856.806 805.791 851.799 811.584 846.605 817.377C841.399 822.983 836.005 828.577 830.599 833.983C825.006 839.377 819.4 844.57 813.806 849.777C808.001 854.771 802.207 859.777 796.202 864.772C790.209 869.566 784.204 874.173 777.998 878.768C771.806 883.362 765.401 887.77 759.008 891.965C752.603 896.16 745.998 900.355 739.406 904.163C732.801 908.158 725.997 911.954 719.205 915.562C712.4 918.958 705.608 922.554 698.604 925.75C691.6 928.959 684.608 931.955 677.404 934.952C670.4 937.948 663.208 940.545 656.004 943.155C648.6 945.752 641.396 948.149 634.005 950.146C626.601 952.344 619.197 954.541 611.806 956.351C604.202 958.149 596.799 959.748 589.208 961.146C581.604 962.744 574 963.943 566.397 964.941C558.806 966.14 551.202 966.939 543.599 967.738C535.808 968.337 528.204 968.937 520.601 969.349C512.797 969.549 505.206 969.748 497.403 969.748C489.799 969.748 481.996 969.549 474.405 969.137C466.602 968.537 458.998 967.938 451.407 967.139C443.803 966.34 436.2 965.341 428.596 964.342C420.805 963.144 413.402 961.745 405.798 960.147C398.207 958.749 390.803 956.951 383.399 954.941C375.796 953.143 368.405 950.945 361.201 948.748C353.797 946.551 346.405 943.954 339.201 941.344C331.997 938.747 324.806 935.95 317.801 932.954C310.597 929.958 303.606 926.749 296.801 923.553C289.797 920.157 283.005 916.761 276.2 912.953C269.396 909.357 262.804 905.561 256.199 901.566C249.607 897.558 243.202 893.363 236.797 889.168C230.404 884.761 224.199 880.366 218.006 875.771C211.801 871.164 205.796 866.37 199.803 861.376C193.997 856.569 188.204 851.575 182.398 846.381C176.805 841.174 171.199 835.781 165.805 830.375C160.399 824.781 155.205 819.188 149.999 813.582C145.005 807.789 139.998 801.983 135.004 795.99C130.197 789.984 125.602 783.992 120.995 777.799C116.401 771.594 112.006 765.201 107.798 758.796C103.603 752.404 99.3957 745.799 95.6001 739.207C91.6048 732.602 87.7968 725.81 84.201 719.005C80.805 712.213 77.1967 705.409 74.0005 698.417C70.8042 691.413 67.7953 684.421 64.7988 677.217C61.8023 670.225 59.2054 663.021 56.5959 655.83C53.999 648.426 51.6018 641.234 49.6042 633.831C47.3943 626.427 45.1968 619.035 43.399 611.632C41.6011 604.04 40.0029 596.637 38.6046 589.046C36.994 581.442 35.7954 573.851 34.7966 566.247C33.598 558.656 32.7989 551.053 31.9998 543.449C31.4006 535.658 30.8013 528.055 30.4017 520.464C30.202 512.66 30.0022 505.069 30.0022 497.266C30.0022 489.662 30.202 481.872 30.6015 474.268C31.2008 466.477 31.8001 458.874 32.5991 451.282C33.3982 443.679 34.1973 436.088 35.3959 428.484C36.5945 420.681 38.0053 413.29 39.6034 405.686C41.0018 398.095 42.7997 390.691 44.7973 383.3C46.5952 375.696 48.8051 368.305 51.0025 361.101C53.1999 353.71 55.7969 346.306 58.3938 339.102C61.0033 331.91 63.8 324.706 66.7965 317.714C69.8054 310.51 73.0017 303.519 76.1979 296.714C79.5939 289.722 83.0024 282.918 86.798 276.126C90.3937 269.321 94.2018 262.729 98.1971 256.124C102.205 249.532 106.4 243.127 110.595 236.735C115.002 230.342 119.397 224.137 124.004 217.944C128.599 211.739 133.406 205.746 138.4 199.741C143.194 193.947 148.201 188.142 153.395 182.348C158.601 176.755 163.995 171.149 169.401 165.755C174.994 160.349 180.6 155.155 186.206 149.962C191.999 144.955 197.805 139.961 203.798 134.967C209.803 130.16 215.796 125.565 222.002 120.971C228.194 116.363 234.599 111.969 241.004 107.774C247.397 103.566 254.001 99.371 260.606 95.5754C267.198 91.5676 274.003 87.7721 280.795 84.1763C287.599 80.7803 294.404 77.172 301.396 73.9758C308.4 70.7796 315.404 67.7831 322.596 64.7741C329.6 61.7776 336.804 59.1807 343.996 56.5837C351.4 53.9868 358.604 51.5771 365.995 49.5795C373.399 47.3821 380.802 45.1846 388.206 43.3867C395.797 41.5889 403.201 39.9907 410.805 38.5924C418.396 36.9818 425.999 35.7832 433.603 34.7844C441.206 33.5858 448.798 32.7867 456.401 31.9877C464.204 31.3884 471.796 30.7891 479.399 30.3895C487.202 30.1898 494.806 29.99 502.597 29.99C510.2 29.99 518.004 30.1898 525.607 30.5893C533.398 31.1886 541.002 31.7879 548.605 32.5869C556.196 33.386 563.8 34.1851 571.404 35.3837C579.207 36.5823 586.598 37.9806 594.202 39.5912C601.805 40.9896 609.197 42.7875 616.6 44.7851C624.204 46.583 631.608 48.7804 638.799 50.9778C646.203 53.1877 653.607 55.7847 660.798 58.3816C668.003 60.9786 675.207 63.7753 682.198 66.7843C689.402 69.7807 696.407 72.977 703.199 76.1732C710.203 79.5817 717.007 82.9777 723.799 86.7733C730.604 90.369 737.209 94.1771 743.801 98.1724C750.406 102.168 756.798 106.363 763.203 110.57C769.608 114.965 775.801 119.36 782.006 123.967C788.199 128.562 794.204 133.356 800.197 138.363C806.003 143.157 811.809 148.164 817.602 153.358C823.208 158.551 828.801 163.958 834.207 169.351C839.601 174.945 844.807 180.551 850.001 186.144C855.008 191.95 860.002 197.743 865.009 203.748C869.803 209.741 874.397 215.734 879.005 221.939C883.599 228.132 888.006 234.537 892.202 240.93C896.409 247.335 900.604 253.927 904.4 260.532C908.408 267.124 912.203 273.928 915.799 280.72C919.207 287.525 922.803 294.317 925.999 301.321C929.208 308.313 932.205 315.317 935.201 322.509C938.21 329.513 940.807 336.705 943.404 343.909C946.001 351.3 948.398 358.504 950.408 365.895C952.606 373.299 954.803 380.703 956.601 388.094C958.399 395.698 960.009 403.089 961.408 410.693C963.006 418.284 964.204 425.887 965.203 433.478C966.402 441.082 967.201 448.673 968 456.277C968.599 464.08 969.199 471.671 969.598 479.275C969.798 487.065 970.01 494.669 970.01 502.46C970.01 510.063 969.798 517.867 969.398 525.458C968.799 533.261 968.2 540.852 967.401 548.456C966.602 556.047 965.603 563.65 964.604 571.242C963.405 579.045 962.007 586.449 960.409 594.04C958.998 601.643 957.2 609.035 955.203 616.438C953.405 624.029 951.207 631.433 949.01 638.625C946.8 646.029 944.203 653.42 941.606 660.624Z" stroke="#FD7600" stroke-width="18.8004"/>
<path d="M904 646.828C901.603 653.42 899.006 660.025 896.409 666.617C893.6 673.022 890.803 679.414 887.807 685.819C884.598 692.212 881.402 698.417 878.206 704.61C874.81 710.815 871.201 716.808 867.606 722.801C864.01 728.806 860.202 734.799 856.206 740.605C852.199 746.398 848.203 752.204 844.008 757.797C839.801 763.391 835.406 768.997 830.999 774.39C826.404 779.796 821.809 785.19 817.003 790.384C812.208 795.391 807.401 800.585 802.407 805.591C797.401 810.386 792.207 815.18 787 819.987C781.806 824.581 776.4 829.176 771.007 833.583C765.6 838.178 760.007 842.373 754.201 846.58C748.608 850.776 742.802 854.771 737.009 858.566C731.004 862.574 725.198 866.17 719.005 869.766C713 873.374 706.807 876.77 700.602 880.166C694.397 883.362 688.204 886.559 681.799 889.567C675.406 892.364 669.001 895.361 662.397 897.958C655.804 900.555 649.2 903.164 642.607 905.361C636.003 907.759 629.398 909.956 622.606 911.954C615.801 913.951 608.997 915.762 602.205 917.36C595.4 919.158 588.396 920.556 581.604 921.954C574.6 923.353 567.808 924.352 560.804 925.35C553.799 926.349 546.808 927.348 539.803 927.947C532.799 928.559 525.807 928.959 518.803 929.358C511.799 929.558 504.607 929.758 497.603 929.758C490.599 929.758 483.607 929.558 476.603 929.158C469.598 928.759 462.607 928.16 455.602 927.348C448.598 926.749 441.606 925.75 434.602 924.751C427.598 923.752 420.806 922.354 413.801 920.956C406.997 919.557 400.005 917.959 393.201 916.361C386.396 914.563 379.604 912.553 372.999 910.555C366.207 908.558 359.603 906.16 352.998 903.763C346.406 901.366 339.801 898.757 333.196 896.16C326.804 893.363 320.399 890.566 314.006 887.57C307.601 884.361 301.396 881.165 295.203 877.969C288.998 874.573 283.005 870.964 277 867.369C271.007 863.773 265.001 859.977 259.196 855.969C253.402 851.974 247.597 847.979 242.003 843.771C236.397 839.576 230.804 835.181 225.398 830.774C220.004 826.18 214.598 821.585 209.404 816.778C204.397 811.984 199.204 807.189 194.197 802.183C189.403 797.189 184.596 791.995 179.801 786.788C175.194 781.594 170.6 776.188 166.205 770.795C161.598 765.401 157.403 759.795 153.195 754.002C149 748.396 145.005 742.603 141.197 736.809C137.201 730.804 133.606 725.011 129.997 718.806C126.402 712.813 123.006 706.607 119.597 700.415C116.401 694.21 113.205 688.017 110.196 681.612C107.399 675.219 104.402 668.827 101.806 662.222C99.1961 655.63 96.5991 649.025 94.4017 642.433C92.0045 635.828 89.7946 629.236 87.797 622.431C85.7993 615.639 84.0014 608.835 82.4033 602.043C80.6054 595.238 79.1946 588.247 77.7962 581.442C76.3979 574.45 75.399 567.646 74.4002 560.654C73.4014 553.65 72.4025 546.658 71.8033 539.654C71.204 532.662 70.8044 525.658 70.4049 518.666C70.2051 511.662 70.0054 504.47 70.0054 497.466C70.0054 490.474 70.2051 483.47 70.6047 476.478C71.0042 469.474 71.6035 462.469 72.4026 455.478C73.0018 448.473 74.0007 441.481 74.9995 434.477C75.9983 427.485 77.3967 420.681 78.795 413.689C80.2059 406.885 81.804 399.893 83.4021 393.088C85.2 386.296 87.1977 379.492 89.1953 372.9C91.2055 366.095 93.6026 359.503 95.9998 352.898C98.397 346.306 100.994 339.714 103.603 333.109C106.4 326.716 109.197 320.311 112.206 313.919C115.402 307.514 118.598 301.321 121.795 295.116C125.203 288.923 128.799 282.918 132.395 276.925C136.003 270.919 139.798 264.926 143.806 259.133C147.801 253.328 151.797 247.534 156.004 241.928C160.199 236.335 164.594 230.742 169.002 225.335C173.596 219.942 178.203 214.536 182.998 209.342C187.804 204.348 192.599 199.141 197.605 194.147C202.6 189.353 207.806 184.546 213 179.751C218.206 175.144 223.6 170.55 229.006 166.155C234.4 161.548 240.006 157.353 245.799 153.158C251.405 148.963 257.198 144.955 263.004 141.159C268.997 137.164 274.802 133.556 280.995 129.96C287 126.364 293.206 122.968 299.398 119.56C305.603 116.363 311.796 113.167 318.201 110.171C324.606 107.374 330.999 104.365 337.603 101.768C344.196 99.1712 350.8 96.5742 357.405 94.3768C363.997 91.9671 370.602 89.7697 377.407 87.7721C384.199 85.7744 391.003 83.9765 397.795 82.3784C404.6 80.5805 411.604 79.1697 418.396 77.7713C425.4 76.373 432.205 75.3741 439.197 74.3753C446.201 73.3765 453.205 72.3777 460.197 71.7784C467.201 71.1791 474.205 70.7795 481.197 70.38C488.201 70.1802 495.405 69.9805 502.397 69.9805C509.402 69.9805 516.406 70.1802 523.398 70.5798C530.402 70.9793 537.406 71.5786 544.398 72.3776C551.402 72.9769 558.406 73.9758 565.398 74.9746C572.402 75.9734 579.207 77.3718 586.199 78.7702C593.003 80.181 600.008 81.7791 606.8 83.3772C613.604 85.1751 620.409 87.1728 627.001 89.1704C633.805 91.1681 640.398 93.5778 647.002 95.9749C653.607 98.3721 660.199 100.969 666.804 103.566C673.197 106.363 679.602 109.172 686.006 112.168C692.399 115.365 698.604 118.561 704.797 121.77C711.002 125.166 717.008 128.761 723.001 132.357C729.006 135.965 734.999 139.761 740.805 143.756C746.598 147.752 752.403 151.759 757.997 155.954C763.603 160.15 769.209 164.557 774.602 168.952C780.008 173.546 785.402 178.153 790.609 182.948C795.603 187.742 800.809 192.549 805.803 197.543C810.598 202.537 815.404 207.744 820.199 212.938C824.806 218.144 829.4 223.538 833.808 228.931C838.402 234.337 842.597 239.931 846.805 245.736C851 251.33 855.008 257.123 858.803 262.929C862.799 268.922 866.407 274.727 870.003 280.92C873.599 286.926 877.007 293.118 880.403 299.323C883.599 305.516 886.808 311.709 889.804 318.114C892.601 324.506 895.598 330.911 898.207 337.504C900.804 344.108 903.401 350.701 905.598 357.305C908.008 363.898 910.205 370.502 912.203 377.294C914.201 384.099 915.999 390.891 917.609 397.695C919.407 404.487 920.806 411.492 922.204 418.284C923.602 425.288 924.601 432.08 925.6 439.084C926.599 446.076 927.61 453.08 928.209 460.072C928.809 467.076 929.208 474.068 929.608 481.072C929.807 488.064 930.007 495.268 930.007 502.26C930.007 509.264 929.807 516.256 929.408 523.26C929.008 530.252 928.409 537.256 927.61 544.248C926.998 551.253 925.999 558.244 925.001 565.249C924.002 572.24 922.603 579.045 921.205 586.049C919.807 592.841 918.209 599.845 916.598 606.637C914.8 613.442 912.802 620.234 910.805 626.826C908.807 633.631 906.41 640.223 904 646.828Z" stroke="white" stroke-width="18.8004"/>
<path d="M339.401 590.444L455.602 270.919L624.803 332.509L453.804 802.182L435.001 795.39C432.604 794.392 430.007 793.593 427.597 792.594C425.2 791.595 422.803 790.384 420.606 789.385C418.196 788.186 415.799 786.988 413.601 785.789C411.204 784.391 409.007 783.192 406.797 781.794C404.4 780.396 402.202 778.997 400.005 777.599C398.007 776.188 395.797 774.59 393.6 772.992C391.602 771.394 389.604 769.795 387.607 768.197C385.597 766.399 383.599 764.801 381.601 762.991C379.604 761.193 377.806 759.395 375.995 757.597C374.198 755.6 372.4 753.802 370.602 751.804C368.804 749.794 367.206 747.796 365.395 745.799C363.797 743.801 362.199 741.803 360.601 739.606C359.203 737.608 357.605 735.398 356.206 733.201C354.795 731.004 353.397 728.806 351.999 726.609C350.6 724.212 349.402 722.002 348.203 719.604C347.005 717.407 345.806 715.01 344.595 712.613C343.596 710.215 342.597 707.806 341.598 705.409C340.6 703.011 339.601 700.614 338.802 698.217C337.803 695.62 337.004 693.21 336.404 690.614C335.605 688.216 335.006 685.619 334.195 683.022C333.595 680.613 333.196 678.016 332.596 675.419C332.197 672.822 331.598 670.225 331.398 667.616C330.998 665.019 330.599 662.422 330.399 659.825C330.199 657.228 329.999 654.631 329.8 652.021C329.8 649.424 329.6 646.827 329.8 644.231C329.8 641.634 329.8 639.024 329.999 636.427C329.999 633.83 330.199 631.034 330.599 628.437C330.799 625.827 331.198 623.23 331.598 620.633C331.997 618.236 332.397 615.639 332.996 613.03C333.395 610.433 333.995 607.836 334.806 605.439C335.406 602.842 336.005 600.245 336.804 597.835C337.603 595.238 338.402 592.841 339.401 590.444Z" fill="white"/>
<path d="M434.002 324.706L454.403 268.322L512.797 289.522C511.998 291.52 511.199 293.318 510.4 294.916C509.601 296.714 508.602 298.512 507.603 300.122C506.605 301.92 505.606 303.518 504.407 305.116C503.196 306.715 501.798 308.113 500.599 309.511C499.201 311.109 497.802 312.52 496.404 313.719C495.006 315.117 493.408 316.316 491.797 317.514C490.199 318.513 488.601 319.712 486.803 320.711C485.205 321.709 483.407 322.508 481.597 323.507C479.998 324.306 478.001 324.906 476.203 325.705C474.405 326.317 472.407 326.916 470.597 327.315C468.599 327.715 466.801 328.114 464.804 328.514C462.806 328.714 460.996 328.913 458.998 328.913C457 329.113 455.003 329.113 453.005 328.913C451.007 328.913 449.197 328.714 447.199 328.314C445.202 328.114 443.404 327.715 441.406 327.116C439.596 326.716 437.598 326.117 435.8 325.505L434.002 324.706Z" fill="#3C3C3C"/>
<path d="M268.397 522.062L305.403 420.481C306.402 417.684 307.601 414.888 308.999 412.291C310.198 409.494 311.596 406.885 313.207 404.288C314.805 401.691 316.403 399.293 318.201 396.896C319.999 394.499 321.996 392.089 324.007 389.892C326.004 387.695 328.202 385.497 330.399 383.499C332.597 381.502 335.006 379.691 337.403 377.894C339.801 376.096 342.398 374.298 345.007 372.899C347.604 371.301 350.201 369.903 352.998 368.704C355.807 367.306 358.404 366.295 361.4 365.296C364.197 364.297 367.006 363.298 370.003 362.699C372.999 361.9 375.796 361.301 378.805 360.901C381.801 360.502 384.798 360.302 387.807 360.102C390.803 359.902 393.8 359.902 396.796 360.102C399.805 360.302 402.802 360.701 405.798 361.101C408.807 361.5 411.803 362.1 414.6 362.899C417.597 363.698 420.406 364.497 423.402 365.496L354.995 553.45L268.397 522.062Z" fill="white"/>
<path d="M245.999 577.646L283.005 476.265C284.004 473.469 285.202 470.672 286.601 467.875C287.799 465.278 289.198 462.469 290.796 459.872C292.407 457.475 294.005 454.878 295.803 452.481C297.6 450.084 299.598 447.674 301.596 445.477C303.606 443.279 305.803 441.282 308.001 439.284C310.198 437.286 312.595 435.276 315.005 433.478C317.402 431.68 319.999 430.082 322.596 428.484C325.205 427.086 327.802 425.687 330.599 424.289C333.396 423.09 336.005 421.892 339.002 420.881C341.798 419.882 344.595 419.083 347.604 418.284C350.601 417.684 353.397 417.085 356.406 416.685C359.403 416.286 362.399 415.886 365.396 415.886C368.405 415.687 371.401 415.687 374.398 415.886C377.407 416.086 380.403 416.286 383.4 416.685C386.396 417.285 389.405 417.884 392.202 418.683C395.198 419.282 398.007 420.281 401.004 421.28L332.597 609.234L245.999 577.646Z" fill="#3C3C3C"/>
<path d="M382.001 648.426L512.797 289.522L625.403 330.712L453.804 802.182C452.006 801.583 450.196 800.784 448.198 799.985C446.4 799.386 444.603 798.587 443.004 797.588C441.207 796.789 439.396 795.99 437.598 794.991C436 793.992 434.202 792.993 432.604 791.994C430.806 790.983 429.196 789.984 427.598 788.786C425.999 787.787 424.401 786.588 422.803 785.39C421.205 784.191 419.607 782.993 418.196 781.794C416.598 780.595 415.2 779.197 413.801 777.998C412.203 776.588 410.805 775.189 409.606 773.791C408.195 772.393 406.797 770.994 405.399 769.596C404.2 768.197 402.802 766.599 401.603 765.001C400.405 763.59 399.206 761.992 398.007 760.394C396.796 758.796 395.797 757.198 394.599 755.6C393.6 754.002 392.601 752.204 391.602 750.606C390.604 748.995 389.605 747.197 388.606 745.399C387.807 743.801 386.796 742.003 385.996 740.205C385.197 738.407 384.398 736.61 383.799 734.799C383 733.001 382.201 731.203 381.602 729.206C381.002 727.408 380.403 725.61 379.804 723.612C379.204 721.802 378.805 719.804 378.206 718.006C377.806 716.009 377.407 714.211 377.007 712.213C376.595 710.415 376.195 708.405 375.996 706.408C375.796 704.41 375.596 702.612 375.396 700.614C375.197 698.617 374.997 696.619 374.997 694.809C374.797 692.811 374.797 690.813 374.797 688.816C374.797 686.818 374.797 684.82 374.997 683.023C375.197 681.012 375.197 679.015 375.396 677.017C375.596 675.019 375.996 673.222 376.195 671.224C376.595 669.226 376.807 667.416 377.207 665.418C377.606 663.421 378.006 661.623 378.605 659.625C379.005 657.827 379.604 655.829 380.203 654.019C380.803 652.221 381.402 650.224 382.001 648.426Z" fill="#3C3C3C"/>
<path d="M435.002 678.415L585.6 264.926L698.205 306.115L547.806 719.405C547.207 721.203 546.408 723.013 545.397 724.811C544.598 726.609 543.799 728.407 542.6 730.005C541.601 731.603 540.602 733.201 539.404 734.799C538.205 736.397 537.007 738.008 535.608 739.406C534.397 740.805 532.999 742.203 531.401 743.601C530.002 744.8 528.404 745.998 526.806 747.197C525.208 748.396 523.597 749.394 521.999 750.406C520.201 751.405 518.603 752.403 516.805 753.202C515.008 754.002 513.197 754.801 511.399 755.4C509.402 756.199 507.604 756.599 505.606 757.198C503.808 757.597 501.798 757.997 499.8 758.197C498.003 758.596 496.005 758.796 494.007 758.796C491.997 758.796 489.999 758.796 488.202 758.796C486.204 758.596 484.206 758.396 482.196 758.197C480.398 757.797 478.401 757.398 476.603 756.998C474.605 756.399 472.807 755.999 470.797 755.2C468.999 754.601 467.201 753.802 465.403 753.003C463.605 752.204 462.007 751.205 460.197 750.206C458.599 749.195 457.001 747.996 455.403 746.798C453.804 745.599 452.406 744.4 450.795 743.002C449.397 741.803 447.999 740.405 446.8 739.007C445.402 737.409 444.203 735.998 443.005 734.4C441.806 732.801 440.807 731.203 439.796 729.405C438.797 727.807 437.798 726.009 436.999 724.212C436.2 722.401 435.401 720.603 434.802 718.805C434.202 717.008 433.603 715.01 433.204 713.212C432.604 711.214 432.205 709.217 432.005 707.406C431.805 705.409 431.606 703.411 431.406 701.413C431.406 699.615 431.406 697.618 431.406 695.62C431.606 693.61 431.805 691.612 432.005 689.814C432.405 687.817 432.804 685.819 433.204 684.021C433.803 682.024 434.402 680.213 435.002 678.415Z" fill="#FD7600"/>
<path d="M563.8 318.713L584.401 262.529L642.607 283.717C641.808 285.527 641.197 287.325 640.198 289.123C639.399 290.921 638.6 292.519 637.401 294.317C636.402 295.915 635.403 297.513 634.205 299.124C633.006 300.722 631.808 302.12 630.397 303.718C628.998 305.117 627.8 306.515 626.202 307.713C624.803 309.112 623.205 310.31 621.607 311.509C619.997 312.72 618.398 313.719 616.8 314.718C615.002 315.717 613.404 316.715 611.606 317.514C609.808 318.314 607.998 319.113 606 319.712C604.203 320.311 602.405 320.91 600.407 321.31C598.597 321.909 596.599 322.309 594.601 322.509C592.803 322.708 590.806 322.908 588.808 323.108C586.798 323.108 584.8 323.108 583.002 323.108C581.005 322.908 579.007 322.708 576.997 322.309C575.199 322.109 573.202 321.71 571.204 321.31C569.406 320.711 567.608 320.111 565.598 319.512L563.8 318.713Z" fill="#3C3C3C"/>
<path d="M495.006 338.502L553.2 359.702L512.198 472.27L453.804 451.082L495.006 338.502Z" fill="#FD7600"/>
<path d="M475.004 392.888L495.605 336.505L552.001 357.105C551.402 358.903 550.603 360.701 549.804 362.499C548.805 364.297 548.006 365.895 547.007 367.705C545.796 369.303 544.797 370.902 543.599 372.5C542.4 374.098 541.201 375.696 539.803 377.094C538.605 378.493 537.206 379.891 535.608 381.302C534.197 382.5 532.599 383.699 531.001 384.898C529.403 386.096 527.805 387.095 526.207 388.094C524.396 389.093 522.798 390.092 521 390.891C519.202 391.69 517.404 392.489 515.607 393.088C513.596 393.687 511.799 394.287 509.801 394.898C508.003 395.298 506.005 395.697 504.008 395.897C502.197 396.297 500.2 396.497 498.202 396.497C496.204 396.497 494.207 396.497 492.396 396.497C490.399 396.297 488.401 396.097 486.403 395.897C484.605 395.498 482.608 395.098 480.797 394.699C478.8 394.087 477.002 393.488 475.004 392.888Z" fill="#3C3C3C"/>
<path d="M439.995 839.776L648.8 266.724C649.399 264.926 650.198 263.128 650.997 261.33C651.796 259.533 652.808 257.735 653.807 256.124C654.805 254.526 656.004 252.728 657.203 251.33C658.201 249.732 659.6 248.133 660.798 246.735C662.197 245.337 663.608 243.938 665.006 242.528C666.604 241.329 668.002 240.13 669.601 238.932C671.199 237.733 672.797 236.535 674.607 235.536C676.205 234.537 678.003 233.738 679.801 232.939C681.599 232.14 683.397 231.341 685.207 230.741C687.005 229.93 689.003 229.53 690.801 228.931C692.798 228.532 694.609 228.132 696.606 227.932C698.604 227.533 700.602 227.333 702.399 227.333C704.397 227.133 706.407 227.333 708.405 227.333C710.403 227.533 712.2 227.732 714.198 227.932C716.208 228.332 718.206 228.731 720.004 229.131C722.001 229.53 723.799 230.142 725.597 230.941C727.408 231.54 729.205 232.34 731.003 233.139C732.801 233.938 734.599 234.936 736.197 235.935C738.008 236.934 739.606 238.133 741.204 239.331C742.602 240.53 744.2 241.728 745.599 242.927C746.997 244.338 748.408 245.736 749.806 247.135C751.005 248.733 752.403 250.131 753.402 251.729C754.601 253.327 755.799 254.926 756.798 256.723C757.797 258.334 758.608 260.132 759.408 261.93C760.406 263.728 761.006 265.526 761.805 267.323C762.404 269.121 763.003 271.119 763.403 272.929C763.802 274.927 764.202 276.925 764.601 278.723C764.801 280.72 765.001 282.718 765.001 284.715C765.201 286.526 765.201 288.524 765.001 290.521C765.001 292.519 764.801 294.516 764.402 296.314C764.202 298.312 763.802 300.322 763.203 302.12C762.804 304.118 762.204 305.916 761.405 307.713L594.002 767.998C593.203 769.995 592.604 771.793 591.804 773.591C591.005 775.389 590.206 777.187 589.407 778.997C588.396 780.795 587.597 782.393 586.598 784.191C585.799 785.989 584.8 787.587 583.801 789.385C582.803 790.983 581.604 792.594 580.605 794.192C579.407 795.79 578.408 797.388 577.197 798.986C575.998 800.584 574.799 802.182 573.401 803.581C572.202 805.191 571.004 806.59 569.606 808.188C568.207 809.586 566.996 810.985 565.598 812.383C564.199 813.781 562.801 814.98 561.203 816.378C559.805 817.777 558.206 818.988 556.808 820.186C555.197 821.385 553.599 822.584 552.001 823.782C550.603 824.981 548.805 826.179 547.207 827.178C545.596 828.177 543.998 829.376 542.2 830.374C540.602 831.373 538.804 832.172 537.206 833.184C535.396 834.182 533.598 834.981 531.8 835.781C530.002 836.58 528.204 837.379 526.406 838.178C524.596 838.977 522.798 839.576 521 840.175C519.003 840.974 517.205 841.574 515.407 841.973C513.397 842.573 511.599 843.172 509.601 843.571C507.803 843.971 505.806 844.57 504.008 844.77C501.997 845.169 500 845.569 498.002 845.769C496.204 846.181 494.207 846.381 492.197 846.58C490.199 846.78 488.401 846.78 486.403 846.98C484.406 846.98 482.396 846.98 480.398 846.98C478.6 846.98 476.602 846.98 474.605 846.78C472.607 846.78 470.597 846.58 468.799 846.381C466.801 846.181 464.804 845.969 462.806 845.569C460.996 845.369 458.998 844.97 457 844.57C455.202 844.171 453.205 843.771 451.407 843.172C449.397 842.772 447.599 842.173 445.601 841.574C443.803 841.174 442.005 840.375 439.995 839.776Z" fill="white"/>
<path d="M438.198 839.176L504.607 656.828C507.404 657.827 510.201 659.026 512.797 660.424C515.607 661.622 518.204 663.021 520.801 664.619C523.398 666.217 525.807 667.815 528.404 669.626C530.801 671.423 532.999 673.421 535.196 675.419C537.406 677.416 539.603 679.614 541.601 681.824C543.599 684.221 545.596 686.418 547.207 688.816C549.005 691.412 550.803 693.81 552.201 696.419C553.799 699.016 555.198 701.613 556.396 704.41C557.807 707.206 558.806 710.016 559.805 712.812C560.804 715.609 561.802 718.406 562.402 721.402C563.201 724.411 563.8 727.208 564.2 730.204C564.599 733.201 564.799 736.197 564.999 739.206C565.198 742.203 565.198 745.199 564.999 748.196C564.799 751.405 564.399 754.401 564 757.198C563.6 760.194 563.001 763.191 562.202 766.2C561.403 768.996 560.604 771.993 559.605 774.79L556.196 784.191C555.198 786.988 553.999 789.784 552.601 792.394C551.402 795.191 549.804 797.788 548.406 800.384C546.808 802.981 544.997 805.391 543.199 807.788C541.401 810.185 539.603 812.583 537.606 814.78C535.396 816.977 533.398 819.187 531.001 821.185C528.804 823.183 526.606 824.981 523.997 826.778C521.6 828.576 519.202 830.374 516.606 831.773C513.996 833.383 511.199 834.782 508.602 835.98C505.806 837.379 502.996 838.377 500.2 839.376C497.403 840.375 494.407 841.374 491.597 841.973C488.601 842.772 485.604 843.371 482.608 843.771C479.799 844.171 476.802 844.37 473.606 844.57C470.597 844.77 467.601 844.77 464.604 844.57C461.608 844.37 458.599 843.971 455.602 843.571C452.805 843.172 449.797 842.572 446.8 841.773C444.003 840.974 441.007 840.175 438.198 839.176Z" fill="#3C3C3C"/>
<path d="M435.002 678.415L438.398 669.026L551.202 710.016L547.806 719.405C547.207 721.203 546.408 723.013 545.397 724.811C544.598 726.609 543.799 728.407 542.6 730.005C541.601 731.603 540.602 733.201 539.404 734.799C538.205 736.397 537.007 738.008 535.608 739.406C534.397 740.805 532.999 742.203 531.401 743.601C530.002 744.8 528.404 745.999 526.806 747.197C525.208 748.396 523.597 749.395 521.999 750.406C520.201 751.405 518.603 752.404 516.805 753.203C515.008 754.002 513.197 754.801 511.399 755.4C509.402 756.199 507.604 756.599 505.606 757.198C503.808 757.597 501.798 757.997 499.8 758.197C498.003 758.596 496.005 758.796 494.007 758.796C491.997 758.796 489.999 758.796 488.202 758.796C486.204 758.596 484.206 758.396 482.196 758.197C480.398 757.797 478.401 757.398 476.603 756.998C474.605 756.399 472.807 755.999 470.797 755.2C468.999 754.601 467.201 753.802 465.403 753.003C463.605 752.204 462.007 751.205 460.197 750.206C458.599 749.195 457.001 747.996 455.403 746.798C453.804 745.599 452.406 744.4 450.795 743.002C449.397 741.803 447.999 740.405 446.8 739.007C445.402 737.409 444.203 735.998 443.005 734.4C441.806 732.802 440.807 731.203 439.796 729.406C438.797 727.807 437.798 726.01 436.999 724.212C436.2 722.401 435.401 720.603 434.802 718.805C434.202 717.008 433.603 715.01 433.204 713.212C432.604 711.214 432.205 709.217 432.005 707.406C431.805 705.409 431.606 703.411 431.406 701.413C431.406 699.616 431.406 697.618 431.406 695.62C431.606 693.61 431.805 691.612 432.005 689.815C432.405 687.817 432.804 685.819 433.204 684.021C433.803 682.024 434.402 680.213 435.002 678.415Z" fill="#FD7600"/>
<path d="M493.208 687.817L636.202 295.116C636.602 294.117 637.001 293.318 637.401 292.319C637.8 291.52 638.4 290.521 638.799 289.722C639.399 288.923 639.998 287.924 640.597 287.125C641.196 286.326 641.808 285.527 642.607 284.928C643.207 284.116 644.006 283.317 644.605 282.718C645.404 281.919 646.203 281.32 647.002 280.72C647.801 280.121 648.8 279.522 649.599 279.122C650.398 278.523 651.397 278.123 652.209 277.724C653.207 277.324 654.206 276.925 655.005 276.525C656.004 276.126 657.003 275.926 658.002 275.726C659.001 275.526 659.999 275.327 660.998 275.127C661.997 274.927 663.008 274.927 664.007 274.727C665.006 274.727 666.005 274.727 667.004 274.727C668.002 274.927 669.001 274.927 670 275.127C670.999 275.327 671.998 275.526 672.997 275.726C674.008 275.926 675.007 276.325 676.006 276.725C677.004 276.925 677.803 277.324 678.802 277.924C679.601 278.323 680.6 278.723 681.399 279.322C682.398 279.721 683.197 280.321 684.009 280.92C684.808 281.519 685.607 282.318 686.406 282.918C687.005 283.517 687.804 284.316 688.403 285.128C689.203 285.927 689.802 286.726 690.401 287.525C691 288.324 691.6 289.123 691.999 289.922C692.599 290.921 692.998 291.72 693.398 292.719C693.997 293.518 694.197 294.517 694.609 295.515C695.008 296.514 695.208 297.313 695.408 298.312C695.807 299.323 696.007 300.322 696.007 301.321C696.207 302.32 696.407 303.319 696.407 304.517C696.407 305.516 696.407 306.515 696.407 307.514C696.207 308.513 696.207 309.511 696.007 310.51C695.807 311.509 695.607 312.52 695.408 313.519C695.208 314.518 694.808 315.517 694.609 316.316L551.602 709.005C551.202 710.016 550.803 711.015 550.403 711.814C550.004 712.813 549.404 713.612 549.005 714.61C548.405 715.409 547.806 716.209 547.207 717.008C546.608 717.807 545.996 718.606 545.197 719.405C544.597 720.204 543.798 720.803 543.199 721.602C542.4 722.202 541.601 722.801 540.802 723.413C540.003 724.012 539.004 724.611 538.205 725.21C537.406 725.61 536.407 726.209 535.608 726.609C534.597 727.008 533.598 727.408 532.599 727.608C531.8 728.007 530.801 728.407 529.802 728.606C528.804 728.806 527.805 729.006 526.806 729.206C525.807 729.206 524.796 729.406 523.797 729.406C522.798 729.406 521.799 729.406 520.8 729.406C519.802 729.406 518.603 729.206 517.604 729.006C516.605 729.006 515.607 728.806 514.807 728.407C513.796 728.207 512.797 728.007 511.798 727.608C510.8 727.208 510.001 726.809 509.002 726.409C508.003 726.01 507.204 725.41 506.405 725.011C505.406 724.411 504.607 723.812 503.808 723.213C502.996 722.601 502.197 722.002 501.398 721.402C500.799 720.603 500 719.804 499.401 719.205C498.601 718.406 498.002 717.607 497.403 716.808C496.804 716.009 496.204 715.21 495.805 714.211C495.205 713.412 494.806 712.413 494.406 711.614C493.807 710.615 493.607 709.616 493.208 708.805C492.796 707.806 492.596 706.807 492.197 705.808C491.997 704.809 491.797 703.811 491.797 702.812C491.597 701.813 491.397 700.814 491.397 699.815C491.397 698.816 491.397 697.818 491.397 696.819C491.597 695.82 491.597 694.809 491.797 693.81C491.997 692.811 492.197 691.812 492.396 690.813C492.596 689.815 492.996 688.816 493.208 687.817Z" fill="#3C3C3C"/>
</g>
<defs>
<clipPath id="clip0_115_2">
<rect width="1000" height="1000" fill="white"/>
</clipPath>
</defs>
</svg>
