<svg width="1000" height="1000" viewBox="0 0 1000 1000" fill="none" xmlns="http://www.w3.org/2000/svg">
<path d="M949.96 664.394C947.291 671.75 944.431 678.914 941.366 686.27C938.505 693.434 935.223 700.598 931.75 707.75C928.481 714.709 924.79 721.656 921.112 728.616C917.434 735.563 913.539 742.306 909.453 749.062C905.366 755.804 901.063 762.355 896.772 768.894C892.264 775.445 887.769 781.779 883.069 787.922C878.357 794.256 873.453 800.398 868.537 806.528C863.429 812.466 858.308 818.392 852.995 824.113C847.67 830.051 842.153 835.568 836.624 841.097C831.107 846.614 825.373 852.131 819.448 857.252C813.714 862.564 807.788 867.672 801.646 872.589C795.503 877.493 789.374 882.192 783.027 886.904C776.693 891.604 770.141 896.099 763.603 900.403C757.052 904.694 750.501 908.78 743.758 912.879C737.002 916.761 730.043 920.644 723.3 924.321C716.34 928.012 709.176 931.486 702.229 934.755C695.065 938.024 687.913 941.306 680.545 944.167C673.381 947.231 666.025 949.888 658.657 952.557C651.084 955.213 643.715 957.665 636.155 959.912C628.582 961.956 621.01 963.999 613.45 966.042C605.877 967.894 598.1 969.528 590.54 970.959C582.763 972.389 574.985 973.819 567.208 974.841C559.444 976.067 551.667 976.884 543.89 977.701C536.125 978.314 528.348 978.927 520.367 979.336C512.59 979.54 504.825 979.745 496.844 979.745C489.067 979.745 481.29 979.336 473.321 978.927C465.544 978.519 457.767 977.906 450.002 977.088C442.021 976.271 434.244 975.25 426.467 974.024C418.907 973.002 411.129 971.572 403.352 969.937C395.792 968.302 388.015 966.668 380.442 964.612C372.87 962.773 365.309 960.525 357.737 958.278C350.368 956.03 342.808 953.578 335.44 950.705C328.071 948.049 320.92 945.188 313.551 942.123C306.387 939.263 299.236 935.981 292.072 932.507C285.112 929.238 278.165 925.56 271.205 921.869C264.245 918.192 257.502 914.309 250.747 910.21C244.004 906.124 237.453 901.833 230.902 897.542C224.363 893.034 218.017 888.539 211.887 883.84C205.54 879.127 199.397 874.223 193.268 869.32C187.33 864.199 181.404 859.091 175.67 853.765C169.745 848.453 164.215 842.936 158.698 837.407C153.169 831.89 147.652 826.156 142.531 820.231C137.219 814.509 132.098 808.571 127.194 802.442C122.278 796.299 117.578 790.169 112.866 783.822C108.166 777.488 103.671 770.95 99.3675 764.399C95.0767 757.86 90.9774 751.309 86.8909 744.566C83.0088 737.811 79.1138 730.864 75.436 724.108C71.7581 717.161 68.2718 709.997 65.0026 703.05C61.7334 695.886 58.4514 688.734 55.5909 681.366C52.526 674.215 49.8698 666.846 47.2008 659.491C44.5446 651.918 42.0927 644.562 39.8451 636.989C37.8018 629.416 35.7458 621.856 33.7026 614.284C31.8636 606.724 30.229 598.946 28.7988 591.386C27.3685 583.609 25.9254 575.845 24.9038 568.068C23.6779 560.291 22.8606 552.526 22.0432 544.749C21.4303 536.985 20.8173 529.208 20.4086 521.239C20.2043 513.462 20 505.698 20 497.716C20 489.939 20.4087 482.175 20.8173 474.193C21.226 466.429 21.8389 458.652 22.6562 450.887C23.4735 442.906 24.4952 435.141 25.7211 427.364C26.7555 419.792 28.1858 412.027 29.8204 404.25C31.455 396.69 33.0896 388.913 35.1328 381.353C36.9718 373.78 39.2321 366.22 41.4797 358.647C43.7273 351.292 46.1792 343.719 49.0525 336.35C51.7087 328.995 54.5693 321.83 57.6341 314.475C60.5075 307.311 63.7767 300.159 67.2502 292.995C70.5322 286.048 74.21 279.088 77.8879 272.141C81.5785 265.181 85.4607 258.439 89.5472 251.683C93.6464 244.94 97.9373 238.389 102.228 231.851C106.736 225.312 111.231 218.966 115.943 212.836C120.643 206.489 125.559 200.359 130.463 194.217C135.584 188.291 140.692 182.353 146.018 176.632C151.33 170.706 156.86 165.177 162.376 159.66C167.906 154.131 173.627 148.614 179.565 143.506C185.286 138.18 191.224 133.072 197.354 128.169C203.497 123.252 209.626 118.552 215.973 113.853C222.32 109.141 228.859 104.646 235.41 100.355C241.948 96.0512 248.499 91.9647 255.255 87.8782C261.998 83.9832 268.957 80.101 275.7 76.4232C282.66 72.7453 289.824 69.259 296.771 65.9898C303.935 62.7206 311.099 59.4514 318.455 56.5909C325.619 53.5132 332.988 50.857 340.344 48.2008C347.916 45.5446 355.285 43.0926 362.858 40.8323C370.418 38.7891 377.99 36.7458 385.563 34.7025C393.123 32.8636 400.9 31.229 408.473 29.7988C416.238 28.3557 424.015 26.9254 431.792 25.9038C439.569 24.6778 447.333 23.8605 455.11 23.0432C462.888 22.4303 470.652 21.8173 478.633 21.4086C486.41 21.2043 494.188 21 502.156 21C509.933 21 517.71 21.4086 525.692 21.8173C533.456 22.226 541.233 22.8389 549.011 23.6562C556.979 24.4735 564.756 25.4951 572.534 26.7211C580.106 27.7427 587.871 29.1858 595.648 30.8204C603.221 32.455 610.985 34.0896 618.558 36.1328C626.131 37.9717 633.703 40.2193 641.263 42.4797C648.632 44.7272 656.205 47.1792 663.56 50.0397C670.929 52.6959 678.093 55.5565 685.449 58.6341C692.613 61.4947 699.777 64.7639 706.928 68.2374C713.888 71.5194 720.848 75.1972 727.795 78.8751C734.755 82.5529 741.498 86.4479 748.253 90.5344C755.009 94.6209 761.547 98.9245 768.098 103.215C774.649 107.71 780.983 112.206 787.126 116.918C793.46 121.617 799.603 126.534 805.732 131.438C811.671 136.546 817.609 141.667 823.33 146.979C829.268 152.292 834.785 157.821 840.314 163.338C845.831 168.868 851.361 174.589 856.469 180.514C861.794 186.248 866.902 192.173 871.819 198.316C876.723 204.446 881.422 210.588 886.134 216.922C890.834 223.256 895.342 229.808 899.633 236.346C903.923 242.897 908.023 249.436 912.109 256.191C916.004 262.934 919.886 269.894 923.564 276.636C927.255 283.596 930.728 290.747 933.997 297.707C937.279 304.859 940.549 312.023 943.409 319.379C946.474 326.543 949.143 333.898 951.799 341.267C954.455 348.827 956.907 356.195 959.168 363.755C961.211 371.328 963.254 378.901 965.297 386.461C967.136 394.034 968.771 401.798 970.214 409.371C971.644 417.135 973.075 424.913 974.096 432.677C975.322 440.454 976.139 448.218 976.957 455.995C977.57 463.773 978.183 471.537 978.591 479.518C978.796 487.283 979 495.06 979 503.029C979 510.806 978.591 518.583 978.183 526.551C977.774 534.329 977.161 542.093 976.344 549.87C975.527 557.839 974.505 565.616 973.279 573.38C972.257 580.953 970.827 588.73 969.18 596.495C967.545 604.067 965.91 611.832 963.867 619.404C962.028 626.965 959.781 634.537 957.52 642.097C955.273 649.466 952.821 657.026 949.96 664.394V664.394Z" fill="#323232"/>
<path d="M922.951 654.574C920.499 661.33 917.843 668.277 914.97 675.032C912.109 681.775 909.044 688.53 905.775 695.273C902.697 701.824 899.224 708.363 895.75 714.914C892.264 721.452 888.586 727.786 884.704 734.133C881.013 740.467 876.927 746.61 872.84 752.739C868.741 758.882 864.45 764.807 859.942 770.746C855.652 776.671 850.952 782.392 846.24 788.126C841.54 793.847 836.828 799.377 831.72 804.689C826.803 810.206 821.695 815.531 816.37 820.639C811.262 825.952 805.732 830.868 800.42 835.772C794.89 840.893 789.169 845.592 783.435 850.292C777.714 854.8 771.98 859.295 766.055 863.79C760.117 868.081 753.987 872.385 747.845 876.267C741.702 880.353 735.368 884.248 729.021 888.13C722.687 891.808 716.34 895.486 709.802 898.972C703.251 902.242 696.699 905.511 689.957 908.78C683.201 911.858 676.446 914.718 669.703 917.579C662.947 920.439 656 922.891 649.041 925.356C642.081 927.808 635.134 930.055 627.969 932.303C620.805 934.346 613.858 936.185 606.694 938.024C599.53 939.876 592.174 941.306 585.01 942.736C577.846 944.167 570.49 945.393 563.122 946.414C555.958 947.436 548.602 948.253 541.233 949.07C533.865 949.683 526.509 950.092 519.141 950.501C511.772 950.909 504.417 950.909 497.048 950.909C489.68 950.909 482.324 950.705 474.956 950.296C467.587 949.888 460.231 949.275 452.863 948.457C445.494 947.844 438.126 946.823 430.975 945.597C423.606 944.575 416.442 943.349 409.086 941.715C401.922 940.284 394.758 938.65 387.606 936.798C380.442 934.959 373.278 932.916 366.331 930.873C359.371 928.625 352.22 926.378 345.26 923.709C338.505 921.257 331.558 918.6 324.802 915.74C318.047 912.879 311.304 909.802 304.548 906.533C298.01 903.468 291.459 899.994 284.908 896.521C278.369 893.034 272.022 889.356 265.688 885.474C259.341 881.784 253.199 877.697 247.069 873.611C240.927 869.524 235.001 865.22 229.063 860.725C223.138 856.434 217.404 851.722 211.683 847.023C205.949 842.323 200.432 837.611 195.107 832.503C189.59 827.599 184.265 822.478 179.157 817.166C173.831 812.045 168.927 806.528 164.011 801.216C158.903 795.686 154.191 789.965 149.491 784.231C144.983 778.51 140.488 772.789 135.993 766.851C131.689 760.925 127.398 754.783 123.503 748.653C119.417 742.523 115.535 736.176 111.64 729.842C107.962 723.495 104.284 717.161 100.798 710.61C97.5286 704.072 94.2594 697.521 90.9774 690.778C87.9126 684.022 85.052 677.28 82.1915 670.524C79.3181 663.781 76.8662 656.822 74.4143 649.875C71.9624 642.915 69.7021 635.968 67.4545 628.804C65.4112 621.652 63.5723 614.692 61.7334 607.541C59.8945 600.377 58.4514 593.021 57.0212 585.857C55.5909 578.706 54.3649 571.337 53.3433 563.981C52.3217 556.817 51.5044 549.461 50.6871 542.093C50.0741 534.737 49.6654 527.369 49.2568 520.013C48.8481 512.645 48.8481 505.289 48.8481 497.92C48.8481 490.565 49.0525 483.196 49.4611 475.828C49.8698 468.472 50.4827 461.104 51.3 453.748C51.913 446.379 52.9346 439.024 54.1606 431.86C55.1822 424.504 56.4082 417.34 58.0428 409.984C59.4858 402.82 61.1204 395.669 62.9593 388.504C64.7983 381.353 66.8415 374.189 68.8848 367.242C71.1451 360.282 73.3927 353.131 76.0489 346.171C78.5008 339.428 81.1698 332.468 84.0304 325.725C86.8909 318.97 89.9558 312.227 93.2378 305.472C96.3027 298.933 99.7762 292.382 103.262 285.844C106.736 279.293 110.414 272.959 114.309 266.624C117.987 260.278 122.073 254.148 126.172 248.005C130.259 241.876 134.55 235.937 139.058 230.012C143.349 224.074 148.061 218.353 152.76 212.632C157.472 206.898 162.172 201.381 167.28 196.056C172.197 190.539 177.305 185.226 182.63 180.106C187.738 174.793 193.268 169.889 198.58 164.973C204.11 159.865 209.831 155.165 215.565 150.453C221.286 145.958 227.02 141.463 232.958 136.955C238.883 132.664 245.026 128.373 251.156 124.478C257.298 120.391 263.632 116.509 269.979 112.627C276.326 108.937 282.66 105.259 289.211 101.785C295.75 98.5159 302.301 95.2339 309.056 91.9647C315.799 88.8999 322.554 86.0393 329.297 83.166C336.053 80.3054 343.013 77.8535 349.96 75.4016C356.919 72.9497 363.879 70.7022 371.031 68.4418C378.195 66.3986 385.155 64.5597 392.306 62.7207C399.47 60.8818 406.839 59.4515 413.99 58.0212C421.154 56.591 428.523 55.3522 435.878 54.3306C443.042 53.309 450.411 52.4917 457.767 51.6744C465.135 51.0614 472.504 50.6528 479.859 50.2441C487.228 49.8354 494.596 49.8354 501.952 49.8354C509.32 49.8354 516.689 50.0398 524.045 50.4484C531.413 50.8571 538.782 51.4701 546.137 52.2874C553.506 52.9003 560.874 53.922 568.026 55.1479C575.394 56.1695 582.558 57.4083 589.914 59.0429C597.078 60.4731 604.242 62.1077 611.394 63.9467C618.558 65.7856 625.722 67.8288 632.669 69.8721C639.629 72.1324 646.793 74.38 653.74 77.0362C660.496 79.4881 667.455 82.1444 674.198 85.0177C680.954 87.8782 687.709 90.9431 694.452 94.2123C701.003 97.2772 707.541 100.763 714.093 104.237C720.644 107.711 726.978 111.388 733.325 115.283C739.659 118.961 745.801 123.048 751.931 127.147C758.074 131.233 764.012 135.524 769.937 140.019C775.875 144.323 781.596 149.023 787.33 153.722C793.051 158.434 798.581 163.134 803.893 168.242C809.423 173.158 814.735 178.267 819.856 183.592C825.169 188.7 830.085 194.217 834.989 199.542C840.11 205.059 844.81 210.793 849.509 216.514C854.017 222.235 858.512 227.969 863.02 233.894C867.311 239.832 871.602 245.962 875.497 252.092C879.583 258.234 883.478 264.568 887.36 270.915C891.038 277.249 894.729 283.596 898.202 290.135C901.471 296.686 904.753 303.224 908.023 309.98C911.088 316.722 913.948 323.478 916.821 330.221C919.682 336.976 922.134 343.923 924.586 350.883C927.05 357.83 929.298 364.79 931.546 371.941C933.589 379.105 935.428 386.052 937.279 393.217C939.118 400.368 940.549 407.736 941.979 414.888C943.409 422.052 944.635 429.408 945.657 436.776C946.678 443.928 947.496 451.296 948.326 458.652C948.939 466.02 949.347 473.376 949.756 480.744C950.165 488.1 950.165 495.469 950.165 502.824C950.165 510.193 949.96 517.548 949.552 524.917C949.143 532.273 948.53 539.641 947.713 547.01C947.087 554.365 946.065 561.734 944.84 568.885C943.818 576.254 942.592 583.405 940.957 590.774C939.527 597.925 937.892 605.089 936.041 612.24C934.202 619.405 932.159 626.556 930.115 633.516C927.868 640.463 925.607 647.627 922.951 654.574V654.574Z" stroke="#FD7600" stroke-width="18.2066"/>
<path d="M886.952 641.28C884.704 647.627 882.239 653.961 879.583 660.103C876.927 666.437 874.271 672.58 871.193 678.71C868.333 684.635 865.268 690.778 861.999 696.703C858.921 702.641 855.447 708.362 851.974 714.288C848.487 720.022 844.81 725.743 841.132 731.272C837.237 736.789 833.355 742.306 829.268 747.835C825.373 753.148 821.082 758.473 816.779 763.581C812.488 768.894 807.993 773.81 803.485 778.918C798.99 783.822 794.277 788.739 789.374 793.438C784.661 798.138 779.758 802.85 774.649 807.345C769.733 811.84 764.625 816.144 759.3 820.435C754.191 824.725 748.662 828.825 743.349 832.707C737.82 836.793 732.303 840.688 726.774 844.366C721.052 848.044 715.318 851.722 709.597 855.004C703.659 858.477 697.925 861.747 691.796 865.016C685.857 868.081 679.932 871.158 673.789 874.019C667.66 876.879 661.517 879.536 655.183 881.988C649.041 884.657 642.694 887.109 636.36 889.152C630.013 891.399 623.474 893.647 617.127 895.486C610.576 897.338 604.038 899.176 597.487 900.811C590.948 902.446 584.397 903.876 577.642 905.102C571.103 906.328 564.552 907.554 557.809 908.371C551.054 909.393 544.298 910.21 537.76 910.836C531.004 911.449 524.249 911.857 517.506 912.266C510.751 912.47 504.008 912.675 497.252 912.675C490.497 912.47 483.754 912.266 476.999 912.062C470.243 911.653 463.501 911.04 456.745 910.427C450.207 909.597 443.451 908.78 436.696 907.758C430.157 906.736 423.402 905.511 416.863 904.285C410.312 902.854 403.761 901.424 397.223 899.789C390.671 897.951 384.12 896.099 377.582 894.26C371.235 892.217 364.901 889.969 358.554 887.721C352.22 885.474 345.873 883.022 339.731 880.353C333.396 877.697 327.254 875.041 321.124 871.976C315.186 869.115 309.056 866.037 303.118 862.768C297.18 859.703 291.459 856.23 285.521 852.744C279.799 849.27 274.066 845.592 268.549 841.914C263.019 838.019 257.502 834.137 251.973 830.051C246.66 826.156 241.335 821.865 236.227 817.574C230.902 813.283 225.998 808.775 220.877 804.28C215.973 799.785 211.07 795.073 206.357 790.169C201.658 785.469 196.946 780.553 192.45 775.445C187.943 770.541 183.652 765.42 179.361 760.108C175.057 754.987 170.971 749.47 167.076 744.158C162.989 738.628 159.107 733.111 155.416 727.582C151.739 721.861 148.061 716.139 144.779 710.406C141.305 704.48 138.036 698.746 134.754 692.617C131.689 686.691 128.624 680.753 125.764 674.623C122.89 668.481 120.234 662.351 117.782 656.004C115.126 649.874 112.661 643.527 110.618 637.193C108.371 630.859 106.123 624.308 104.284 617.974C102.432 611.423 100.594 604.884 98.9589 598.333C97.3243 591.795 95.894 585.244 94.6681 578.501C93.4421 571.95 92.2162 565.411 91.3861 558.656C90.3645 551.913 89.5472 545.158 88.9342 538.619C88.3212 531.864 87.9126 525.121 87.5039 518.365C87.2996 511.623 87.0953 504.88 87.0953 498.124C87.2996 491.382 87.5039 484.626 87.7082 477.884C88.1169 471.128 88.7299 464.385 89.3429 457.63C90.1602 451.091 90.9775 444.336 92.0118 437.593C93.0335 431.042 94.2594 424.299 95.4854 417.748C96.9157 411.21 98.3459 404.659 99.9805 398.12C101.819 391.569 103.671 385.031 105.51 378.492C107.553 372.145 109.801 365.811 112.048 359.464C114.309 353.13 116.761 346.783 119.417 340.654C122.073 334.307 124.742 328.177 127.807 322.035C130.668 316.109 133.732 309.979 137.014 304.041C140.079 298.116 143.553 292.382 147.039 286.456C150.513 280.735 154.191 275.001 157.881 269.485C161.763 263.955 165.646 258.438 169.745 252.922C173.627 247.596 177.918 242.284 182.221 237.163C186.512 231.851 191.02 226.947 195.515 221.826C200.023 216.922 204.723 212.018 209.627 207.306C214.339 202.607 219.243 197.907 224.363 193.399C229.267 188.904 234.388 184.613 239.701 180.31C244.822 176.019 250.338 171.932 255.664 168.037C261.18 163.951 266.71 160.069 272.227 156.391C277.961 152.7 283.682 149.022 289.415 145.753C295.341 142.28 301.075 138.998 307.205 135.728C313.143 132.663 319.068 129.599 325.211 126.738C331.353 123.865 337.483 121.209 343.83 118.757C349.96 116.1 356.306 113.648 362.653 111.592C368.987 109.345 375.539 107.097 381.873 105.258C388.424 103.419 394.962 101.58 401.513 99.9459C408.065 98.2985 414.603 96.8682 421.358 95.6423C427.91 94.4164 434.448 93.1904 441.204 92.3731C447.946 91.3515 454.702 90.5342 461.253 89.9212C467.996 89.3082 474.751 88.8996 481.494 88.4909C488.249 88.2866 495.005 88.0823 501.748 88.0823C508.503 88.2866 515.259 88.4909 522.001 88.6952C528.757 89.1039 535.5 89.7169 542.255 90.3298C548.806 91.1471 555.549 91.9644 562.305 92.9861C568.856 94.0077 575.598 95.2337 582.15 96.4596C588.688 97.8899 595.239 99.3329 601.79 100.968C608.329 102.806 614.88 104.645 621.418 106.484C627.765 108.528 634.112 110.775 640.446 113.035C646.793 115.283 653.127 117.735 659.27 120.391C665.604 123.047 671.746 125.704 677.889 128.781C683.814 131.642 689.957 134.707 695.882 137.976C701.82 141.054 707.541 144.527 713.48 148.001C719.201 151.474 724.935 155.165 730.451 158.843C735.981 162.725 741.498 166.607 747.027 170.706C752.34 174.588 757.665 178.879 762.773 183.183C768.098 187.474 773.002 191.969 778.123 196.477C783.027 200.972 787.943 205.671 792.643 210.588C797.355 215.287 802.055 220.191 806.55 225.312C811.058 230.216 815.348 235.324 819.652 240.649C823.943 245.757 828.029 251.274 831.924 256.599C836.011 262.116 839.906 267.646 843.584 273.163C847.262 278.884 850.952 284.618 854.221 290.339C857.695 296.277 860.977 301.998 864.246 308.128C867.311 314.066 870.376 319.991 873.249 326.134C876.11 332.264 878.766 338.406 881.218 344.74C883.887 350.883 886.339 357.217 888.382 363.551C890.63 369.898 892.877 376.436 894.729 382.783C896.568 389.321 898.407 395.873 900.041 402.411C901.676 408.962 903.106 415.501 904.345 422.256C905.571 428.794 906.797 435.346 907.614 442.088C908.636 448.844 909.453 455.587 910.066 462.125C910.679 468.88 911.088 475.623 911.496 482.379C911.701 489.121 911.905 495.877 911.905 502.62C911.701 509.375 911.496 516.118 911.292 522.873C910.883 529.616 910.27 536.372 909.657 543.114C908.84 549.666 908.023 556.408 907.001 563.164C905.98 569.702 904.754 576.458 903.515 582.996C902.084 589.547 900.654 596.086 899.02 602.637C897.181 609.175 895.342 615.714 893.503 622.265C891.447 628.599 889.199 634.946 886.952 641.28Z" stroke="white" stroke-width="18.2066"/>
<path d="M345.464 587.083L456.949 280.94L619.171 339.836L455.11 790.373L437.104 783.822C434.857 782.801 432.405 781.983 430.157 780.962C427.91 779.94 425.445 778.918 423.197 777.897C420.95 776.875 418.702 775.649 416.646 774.423C414.399 773.197 412.151 771.971 410.108 770.745C407.86 769.507 405.804 768.076 403.761 766.646C401.718 765.216 399.674 763.786 397.631 762.355C395.588 760.721 393.532 759.29 391.693 757.656C389.65 756.008 387.811 754.374 385.972 752.739C384.12 750.9 382.281 749.266 380.647 747.427C378.808 745.792 376.969 743.953 375.334 741.897C373.7 740.058 372.052 738.219 370.418 736.176C368.987 734.337 367.353 732.294 365.922 730.251C364.492 728.195 363.062 726.151 361.619 724.108C360.189 722.065 358.963 719.817 357.532 717.774C356.306 715.527 355.08 713.47 353.855 711.223C352.833 708.975 351.594 706.728 350.573 704.48C349.551 702.233 348.529 699.768 347.508 697.52C346.69 695.273 345.669 692.821 344.851 690.573C344.034 688.121 343.217 685.657 342.604 683.409C341.787 680.957 341.174 678.505 340.548 676.053C339.935 673.602 339.526 671.137 338.913 668.685C338.505 666.233 338.096 663.781 337.687 661.329C337.483 658.877 337.074 656.208 336.87 653.756C336.666 651.305 336.461 648.853 336.257 646.401C336.257 643.732 336.257 641.28 336.257 638.828C336.257 636.172 336.257 633.72 336.461 631.268C336.666 628.803 336.666 626.147 337.074 623.695C337.279 621.243 337.687 618.791 337.892 616.327C338.3 613.875 338.913 611.423 339.322 608.767C339.731 606.315 340.344 603.863 340.969 601.602C341.582 599.151 342.4 596.699 343.013 594.247C343.83 591.795 344.647 589.547 345.464 587.083Z" fill="white"/>
<path d="M436.083 332.468L455.723 278.475L511.772 298.729C510.955 300.568 510.342 302.202 509.525 303.837C508.707 305.676 507.686 307.31 506.869 308.958C505.847 310.592 504.825 312.023 503.599 313.657C502.565 315.088 501.339 316.518 500.113 317.948C498.683 319.378 497.457 320.604 496.027 321.83C494.596 323.069 493.166 324.295 491.723 325.521C490.088 326.543 488.454 327.564 487.023 328.586C485.389 329.607 483.55 330.425 481.915 331.242C480.268 332.059 478.429 332.672 476.794 333.285C474.956 333.898 473.117 334.511 471.278 334.92C469.426 335.329 467.587 335.737 465.748 335.942C463.909 336.35 462.07 336.35 460.231 336.567C458.175 336.567 456.336 336.567 454.497 336.567C452.659 336.35 450.82 336.146 448.764 335.942C446.925 335.533 445.086 335.329 443.247 334.716C441.612 334.307 439.773 333.694 437.922 333.081L436.083 332.468Z" fill="#323232"/>
<path d="M277.552 521.648L312.938 424.299C313.96 421.643 314.982 418.974 316.208 416.318C317.434 413.662 318.864 411.21 320.307 408.758C321.941 406.293 323.576 403.841 325.211 401.594C327.05 399.346 328.889 397.099 330.74 394.851C332.783 392.808 334.827 390.752 336.87 388.708C339.118 386.87 341.378 385.031 343.625 383.396C345.873 381.557 348.325 380.127 350.777 378.492C353.446 377.049 355.898 375.823 358.554 374.597C361.21 373.371 363.879 372.145 366.535 371.328C369.192 370.306 372.052 369.489 374.926 368.876C377.582 368.059 380.442 367.65 383.303 367.242C386.176 366.833 389.037 366.424 391.897 366.424C394.758 366.22 397.631 366.22 400.696 366.424C403.557 366.629 406.43 366.833 409.29 367.242C412.151 367.855 414.807 368.263 417.681 369.08C420.541 369.693 423.197 370.715 426.058 371.532L360.393 551.709L277.552 521.648Z" fill="white"/>
<path d="M256.072 575.028L291.459 477.679C292.48 475.01 293.502 472.354 294.728 469.698C295.954 467.042 297.384 464.59 298.827 462.125C300.462 459.673 302.096 457.221 303.731 454.974C305.57 452.726 307.409 450.479 309.261 448.218C311.304 446.175 313.347 444.132 315.39 442.293C317.638 440.25 319.898 438.411 322.146 436.776C324.393 435.141 326.845 433.494 329.297 432.064C331.966 430.429 334.418 429.203 337.074 427.977C339.731 426.751 342.4 425.73 345.056 424.708C347.712 423.686 350.573 422.869 353.446 422.256C356.102 421.439 358.963 421.03 361.823 420.622C364.696 420.2 367.557 419.792 370.418 419.792C373.278 419.587 376.151 419.587 379.216 419.792C382.077 419.996 384.95 420.2 387.811 420.622C390.671 421.235 393.328 421.643 396.201 422.461C399.061 423.074 401.718 424.095 404.578 424.912L338.913 605.089L256.072 575.028Z" fill="#323232"/>
<path d="M386.38 642.915L511.772 298.729L619.784 337.998L455.11 790.374C453.476 789.556 451.637 788.943 450.002 788.33C448.151 787.513 446.516 786.696 444.677 785.878C443.042 785.061 441.408 784.231 439.773 783.414C438.126 782.392 436.491 781.575 434.857 780.553C433.222 779.532 431.587 778.51 430.157 777.488C428.523 776.467 427.079 775.445 425.445 774.219C424.015 773.198 422.584 771.972 420.95 770.746C419.519 769.507 418.089 768.281 416.863 767.055C415.42 765.829 413.99 764.399 412.764 763.173C411.334 761.743 410.108 760.312 408.882 759.086C407.656 757.656 406.43 756.213 405.191 754.783C403.965 753.148 402.944 751.718 401.718 750.288C400.696 748.653 399.47 747.223 398.448 745.588C397.427 743.953 396.405 742.523 395.588 740.876C394.553 739.241 393.532 737.607 392.715 735.972C391.897 734.133 391.08 732.498 390.263 730.864C389.445 729.025 388.628 727.378 388.015 725.539C387.198 723.904 386.585 722.065 385.972 720.431C385.359 718.592 384.746 716.753 384.337 714.914C383.711 713.266 383.303 711.427 382.69 709.589C382.281 707.75 381.873 705.911 381.464 704.072C381.26 702.233 380.851 700.381 380.647 698.542C380.442 696.499 380.034 694.66 380.034 692.821C379.829 690.982 379.625 689.143 379.625 687.304C379.421 685.248 379.421 683.409 379.421 681.57C379.421 679.732 379.625 677.893 379.625 675.849C379.829 674.01 379.829 672.159 380.034 670.32C380.238 668.481 380.442 666.642 380.851 664.599C381.055 662.76 381.464 660.921 381.873 659.082C382.077 657.23 382.69 655.391 383.099 653.552C383.507 651.713 384.12 650.079 384.542 648.24C385.155 646.401 385.768 644.562 386.38 642.915Z" fill="#323232"/>
<path d="M437.104 671.546L581.537 275.206L689.548 314.475L545.32 710.815C544.707 712.654 543.89 714.288 543.072 716.14C542.255 717.775 541.438 719.409 540.416 721.044C539.395 722.678 538.373 724.313 537.351 725.743C536.125 727.173 534.887 728.617 533.661 730.047C532.435 731.477 531.004 732.703 529.574 734.133C528.348 735.359 526.714 736.381 525.283 737.607C523.84 738.628 522.206 739.65 520.571 740.672C518.936 741.693 517.302 742.523 515.667 743.341C513.816 744.158 512.181 744.771 510.342 745.384C508.503 745.997 506.664 746.61 505.03 747.019C503.178 747.427 501.339 747.836 499.296 748.245C497.457 748.449 495.618 748.653 493.779 748.653C491.927 748.653 490.088 748.653 488.045 748.653C486.206 748.449 484.367 748.245 482.528 748.04C480.677 747.836 478.838 747.427 476.999 747.019C475.16 746.406 473.321 745.997 471.482 745.18C469.835 744.567 467.996 743.954 466.361 743.136C464.726 742.306 463.092 741.285 461.457 740.467C459.81 739.446 458.175 738.424 456.745 737.198C455.315 736.177 453.68 734.951 452.454 733.52C451.024 732.294 449.594 731.068 448.355 729.638C447.129 728.195 445.903 726.765 444.881 725.13C443.655 723.7 442.634 722.065 441.817 720.431C440.795 718.796 439.978 717.162 439.16 715.527C438.33 713.88 437.513 712.041 436.9 710.202C436.287 708.567 435.878 706.728 435.265 704.889C434.857 703.05 434.652 701.211 434.244 699.36C434.039 697.521 433.835 695.682 433.835 693.639C433.631 691.8 433.631 689.961 433.835 688.122C433.835 686.27 434.039 684.227 434.448 682.388C434.652 680.549 435.061 678.71 435.47 676.871C436.083 675.032 436.491 673.398 437.104 671.546Z" fill="#FD7600"/>
<path d="M560.67 326.747L580.311 272.754L636.155 292.995C635.542 294.847 634.929 296.481 634.112 298.32C633.282 299.955 632.26 301.59 631.239 303.224C630.421 304.859 629.4 306.289 628.174 307.924C626.948 309.367 625.926 310.797 624.496 312.227C623.27 313.657 622.031 314.883 620.601 316.109C619.171 317.54 617.74 318.561 616.106 319.787C614.676 320.809 613.041 321.83 611.394 322.865C609.759 323.887 608.124 324.704 606.49 325.521C604.855 326.338 603.016 326.951 601.177 327.564C599.53 328.177 597.691 328.79 595.852 329.199C594.013 329.608 592.174 330.016 590.335 330.221C588.484 330.629 586.44 330.834 584.601 330.834C582.763 330.834 580.924 330.834 579.072 330.834C577.029 330.629 575.19 330.425 573.351 330.221C571.512 330.016 569.673 329.608 567.821 328.995C565.982 328.586 564.143 327.973 562.509 327.36L560.67 326.747Z" fill="#323232"/>
<path d="M494.596 345.558L550.441 365.811L511.159 473.989L455.315 453.748L494.596 345.558Z" fill="#FD7600"/>
<path d="M475.568 397.916L495.209 343.719L549.419 363.347C548.806 365.198 547.989 367.037 547.172 368.672C546.342 370.307 545.524 371.941 544.503 373.576C543.481 375.21 542.459 376.845 541.233 378.275C540.212 379.718 538.986 381.149 537.76 382.579C536.534 384.009 535.091 385.439 533.661 386.665C532.23 387.891 530.8 389.117 529.37 390.139C527.735 391.365 526.305 392.386 524.658 393.217C523.023 394.238 521.388 395.055 519.549 395.873C517.915 396.69 516.076 397.507 514.441 398.12C512.59 398.733 510.751 399.142 508.912 399.551C507.073 400.164 505.234 400.368 503.395 400.777C501.543 400.981 499.704 401.185 497.865 401.185C495.822 401.39 493.983 401.39 492.132 401.185C490.293 401.185 488.454 400.981 486.615 400.572C484.776 400.368 482.733 399.959 481.085 399.551C479.246 398.938 477.407 398.529 475.568 397.916Z" fill="#323232"/>
<path d="M442.021 826.36L642.081 276.841C642.694 275.002 643.511 273.367 644.341 271.528C645.158 269.894 645.976 268.259 646.997 266.624C648.019 264.977 649.04 263.547 650.062 261.912C651.288 260.482 652.514 259.052 653.74 257.621C654.966 256.191 656.409 254.965 657.839 253.739C659.269 252.513 660.7 251.274 662.13 250.048C663.765 249.027 665.195 248.005 666.842 246.984C668.477 245.962 670.111 245.145 671.95 244.327C673.585 243.51 675.22 242.897 677.071 242.284C678.91 241.671 680.749 241.058 682.588 240.649C684.427 240.241 686.266 239.832 688.118 239.628C689.957 239.219 691.795 239.219 693.634 239.015C695.473 239.015 697.517 239.015 699.368 239.015C701.207 239.219 703.046 239.424 704.885 239.628C706.724 240.037 708.563 240.241 710.415 240.854C712.253 241.262 714.092 241.875 715.931 242.488C717.566 243.101 719.405 243.919 721.052 244.736C722.687 245.349 724.321 246.371 725.956 247.392C727.591 248.21 729.225 249.435 730.656 250.457C732.303 251.683 733.733 252.922 734.959 254.148C736.389 255.374 737.82 256.6 739.046 258.03C740.272 259.46 741.498 260.89 742.532 262.525C743.758 263.955 744.78 265.59 745.597 267.237C746.618 268.872 747.436 270.507 748.253 272.141C749.07 273.98 749.888 275.615 750.501 277.454C751.114 279.088 751.522 280.94 752.135 282.779C752.544 284.618 752.965 286.457 753.17 288.296C753.374 290.134 753.578 292.178 753.578 294.017C753.783 295.868 753.783 297.707 753.578 299.546C753.578 301.589 753.374 303.428 752.965 305.267C752.761 307.106 752.34 308.958 751.931 310.797C751.522 312.636 750.909 314.475 750.296 316.109L589.505 757.656C588.892 759.291 588.279 761.129 587.462 762.764C586.849 764.603 586.032 766.238 585.214 768.077C584.397 769.711 583.58 771.358 582.558 772.993C581.741 774.628 580.719 776.262 579.698 777.897C578.867 779.531 577.846 781.166 576.824 782.596C575.598 784.231 574.577 785.674 573.555 787.309C572.329 788.739 571.103 790.169 569.877 791.599C568.856 793.234 567.617 794.46 566.187 795.89C564.961 797.321 563.735 798.764 562.304 799.99C561.078 801.42 559.648 802.646 558.218 803.872C556.775 805.098 555.345 806.324 553.914 807.55C552.484 808.776 551.054 809.797 549.419 811.023C547.989 812.045 546.341 813.283 544.911 814.305C543.277 815.327 541.642 816.348 540.007 817.166C538.373 818.187 536.738 819.005 535.091 820.026C533.456 820.844 531.822 821.661 529.983 822.478C528.348 823.295 526.714 824.113 524.862 824.726C523.023 825.543 521.388 826.156 519.549 826.782C517.915 827.395 516.076 828.008 514.237 828.416C512.385 829.029 510.546 829.438 508.707 830.051C506.868 830.46 505.03 830.868 503.178 831.277C501.339 831.481 499.5 831.89 497.661 832.094C495.822 832.298 493.983 832.503 492.131 832.707C490.088 832.911 488.249 833.116 486.41 833.116C484.571 833.32 482.733 833.32 480.881 833.32C478.838 833.32 476.999 833.116 475.16 833.116C473.321 832.911 471.482 832.911 469.426 832.707C467.587 832.503 465.748 832.298 463.909 831.89C462.07 831.685 460.231 831.277 458.38 830.868C456.541 830.46 454.702 830.051 452.863 829.642C451.024 829.234 449.172 828.621 447.333 828.212C445.699 827.599 443.86 826.986 442.021 826.36Z" fill="white"/>
<path d="M440.182 825.747L503.804 650.896C506.664 651.918 509.32 652.939 511.772 654.165C514.441 655.596 517.098 656.822 519.549 658.469C522.001 659.899 524.249 661.534 526.714 663.169C528.961 665.007 531.209 666.846 533.252 668.685C535.5 670.729 537.556 672.785 539.395 674.828C541.233 677.075 543.072 679.323 544.911 681.571C546.546 684.022 548.193 686.27 549.624 688.939C551.054 691.391 552.484 693.843 553.71 696.499C554.936 699.155 555.958 701.824 556.979 704.481C557.809 707.341 558.627 709.997 559.444 712.858C560.057 715.731 560.67 718.387 561.079 721.248C561.487 724.108 561.692 726.969 561.896 730.047C561.896 732.907 561.896 735.768 561.896 738.628C561.692 741.489 561.283 744.362 560.874 747.223C560.466 750.083 559.853 752.944 559.24 755.6C558.422 758.473 557.605 761.334 556.571 763.99L553.301 772.993C552.28 775.65 551.258 778.306 550.032 780.962C548.806 783.618 547.376 786.083 545.933 788.535C544.298 790.987 542.664 793.439 541.029 795.686C539.19 797.934 537.351 800.194 535.5 802.442C533.456 804.485 531.413 806.528 529.37 808.367C527.122 810.41 524.862 812.249 522.614 813.897C520.162 815.736 517.915 817.166 515.463 818.596C512.794 820.231 510.342 821.457 507.686 822.683C505.03 823.909 502.361 825.135 499.704 825.952C497.048 826.986 494.188 827.803 491.314 828.416C488.658 829.234 485.798 829.642 482.937 830.051C480.064 830.46 477.203 830.868 474.343 830.868C471.482 831.073 468.404 831.073 465.544 830.868C462.683 830.664 459.81 830.46 456.949 830.051C454.089 829.438 451.228 829.029 448.559 828.212C445.699 827.599 443.042 826.578 440.182 825.747Z" fill="#323232"/>
<path d="M437.104 671.546L440.386 662.555L548.602 701.824L545.32 710.814C544.707 712.653 543.89 714.288 543.072 716.14C542.255 717.774 541.438 719.409 540.416 721.043C539.395 722.678 538.373 724.313 537.351 725.743C536.125 727.173 534.887 728.616 533.661 730.047C532.435 731.477 531.004 732.703 529.574 734.133C528.348 735.359 526.714 736.381 525.283 737.607C523.84 738.628 522.206 739.65 520.571 740.671C518.936 741.693 517.302 742.523 515.667 743.34C513.816 744.158 512.181 744.771 510.342 745.384C508.503 745.997 506.664 746.61 505.03 747.018C503.178 747.427 501.339 747.836 499.296 748.244C497.457 748.449 495.618 748.653 493.779 748.653C491.927 748.653 490.088 748.653 488.045 748.653C486.206 748.449 484.367 748.244 482.528 748.04C480.677 747.836 478.838 747.427 476.999 747.018C475.16 746.405 473.321 745.997 471.482 745.179C469.835 744.566 467.996 743.953 466.361 743.136C464.726 742.306 463.092 741.284 461.457 740.467C459.81 739.446 458.175 738.424 456.745 737.198C455.315 736.176 453.68 734.95 452.454 733.52C451.024 732.294 449.594 731.068 448.355 729.638C447.129 728.195 445.903 726.765 444.881 725.13C443.655 723.7 442.634 722.065 441.817 720.431C440.795 718.796 439.978 717.161 439.16 715.527C438.33 713.879 437.513 712.04 436.9 710.201C436.287 708.567 435.878 706.728 435.265 704.889C434.857 703.05 434.652 701.211 434.244 699.359C434.039 697.521 433.835 695.682 433.835 693.638C433.631 691.799 433.631 689.961 433.835 688.122C433.835 686.27 434.039 684.227 434.448 682.388C434.652 680.549 435.061 678.71 435.47 676.871C436.083 675.032 436.491 673.397 437.104 671.546Z" fill="#FD7600"/>
<path d="M493.166 680.549L630.217 304.041C630.421 303.224 630.83 302.202 631.239 301.385C631.647 300.568 632.056 299.751 632.669 298.933C633.078 297.912 633.703 297.299 634.316 296.481C634.929 295.664 635.542 294.847 636.155 294.221C636.768 293.404 637.585 292.791 638.198 292.178C639.016 291.565 639.629 290.952 640.446 290.339C641.263 289.726 642.081 289.113 642.898 288.704C643.715 288.091 644.545 287.683 645.567 287.274C646.384 286.865 647.406 286.457 648.223 286.252C649.04 285.844 650.062 285.639 651.084 285.435C651.901 285.231 652.923 285.026 653.944 284.822C654.762 284.618 655.796 284.618 656.818 284.618C657.839 284.618 658.656 284.618 659.678 284.618C660.7 284.618 661.721 284.822 662.539 284.822C663.56 285.026 664.582 285.231 665.399 285.435C666.434 285.639 667.251 286.048 668.273 286.252C669.09 286.661 670.111 287.07 670.929 287.478C671.746 287.887 672.768 288.296 673.585 288.909C674.402 289.317 675.22 289.93 675.833 290.543C676.65 291.156 677.48 291.769 678.093 292.382C678.91 292.995 679.523 293.608 680.136 294.425C680.953 295.051 681.566 295.868 681.975 296.686C682.588 297.503 683.201 298.32 683.61 299.138C684.223 299.955 684.631 300.772 685.04 301.794C685.449 302.611 685.857 303.428 686.062 304.45C686.47 305.267 686.675 306.289 686.879 307.106C687.083 308.128 687.288 309.162 687.492 309.98C687.709 311.001 687.709 312.023 687.709 313.044C687.913 313.862 687.913 314.883 687.709 315.905C687.709 316.927 687.709 317.744 687.492 318.766C687.288 319.787 687.083 320.604 686.879 321.626C686.675 322.66 686.266 323.478 686.062 324.499L549.011 701.007C548.602 701.824 548.193 702.846 547.785 703.663C547.376 704.48 546.967 705.298 546.342 706.319C545.933 707.137 545.32 707.954 544.707 708.567C544.094 709.384 543.481 710.201 542.868 710.814C542.255 711.632 541.642 712.245 540.825 712.858C540.212 713.675 539.394 714.288 538.577 714.709C537.76 715.322 536.943 715.935 536.125 716.344C535.295 716.957 534.478 717.366 533.456 717.774C532.639 718.183 531.822 718.592 530.8 718.796C529.983 719.205 528.961 719.409 528.144 719.613C527.122 719.817 526.101 720.022 525.283 720.226C524.249 720.43 523.227 720.43 522.206 720.43C521.388 720.635 520.367 720.635 519.345 720.43C518.323 720.43 517.506 720.226 516.485 720.226C515.463 720.022 514.646 719.817 513.611 719.613C512.59 719.409 511.772 719 510.751 718.796C509.933 718.387 508.912 717.979 508.094 717.57C507.277 717.161 506.46 716.753 505.643 716.14C504.825 715.731 504.008 715.118 503.178 714.505C502.361 714.084 501.543 713.266 500.93 712.653C500.113 712.04 499.5 711.427 498.887 710.61C498.274 709.997 497.661 709.18 497.048 708.362C496.435 707.545 495.822 706.728 495.413 705.911C495.005 705.093 494.392 704.276 493.983 703.459C493.575 702.437 493.37 701.62 492.962 700.598C492.553 699.768 492.336 698.746 492.132 697.929C491.927 696.907 491.723 695.886 491.519 695.069C491.519 694.047 491.314 693.025 491.314 692.004C491.314 691.186 491.314 690.165 491.314 689.143C491.314 688.122 491.519 687.304 491.519 686.27C491.723 685.248 491.927 684.431 492.132 683.409C492.336 682.388 492.757 681.57 493.166 680.549Z" fill="#323232"/>
</svg>
